<?xml version="1.0" encoding="UTF-8"?><svg id="a" xmlns="http://www.w3.org/2000/svg" viewBox="0 0 1700 1243.91"><defs><style>.b{fill:#83a3b2;}</style></defs><path class="b" d="M1491.83,880.82c-4.77,6.62-7.47,14.39-9.06,22.33-1.64,8.17-2.23,16.51-3.06,24.79-.93,9.29-2.45,18.46-4.74,27.52-2.34,9.29-5.34,18.4-8.65,27.38-3.33,9.02-6.99,17.91-10.69,26.78-.46,1.11-.92,2.21-1.39,3.32-.06,.14,.17,.2,.22,.06,3.7-8.87,7.4-17.74,10.81-26.72,3.38-8.92,6.48-17.96,8.98-27.17,2.43-8.96,4.24-18.06,5.27-27.29,.95-8.41,1.45-16.88,2.85-25.23,1.35-8.06,3.58-16.1,7.94-23.09,.54-.87,1.12-1.73,1.72-2.56,.09-.12-.11-.24-.2-.12h0Z"/><g><path class="b" d="M120.56,423.94c36.52,6.82,73.85,5.02,110.43-.43,37.91-5.64,75.14-14.93,112.67-22.56,18.95-3.85,37.98-7.17,57.16-9.64,17.81-2.3,35.68-4.16,53.44-6.85,17.89-2.71,35.71-6.28,52.89-12.02,8.38-2.8,16.47-6.21,24.47-9.94,8.7-4.05,17.46-8.05,26.98-9.72,18.06-3.19,36.7,.47,54.63-3.87,13.93-3.37,27.57-12.97,29.68-28.13,.44-3.14,.21-6.26-.59-9.31-.04-.14-.26-.08-.22,.06,2.06,7.81-.2,15.89-4.89,22.31-5.08,6.96-12.46,11.42-20.62,13.91-17.42,5.34-35.83,2.02-53.65,4.15-17.83,2.13-33.1,12.03-49.67,18.14-16.54,6.1-33.8,10.01-51.16,12.92-17.84,2.99-35.83,4.94-53.78,7.16-17.78,2.2-35.46,4.9-53.05,8.29-36.68,7.06-72.95,16.19-109.77,22.53-36.37,6.26-73.62,9.79-110.4,5.06-4.84-.62-9.66-1.39-14.46-2.29-.15-.03-.21,.2-.06,.22h0Z"/><path class="b" d="M147.49,250.21c33.81-6.77,68.01-11.6,102.38-14.42,33.9-2.79,67.96-3.65,101.95-2.56,17.08,.54,34.14,1.58,51.16,3.1,8.46,.76,16.99,1.46,25.32,3.18,8.27,1.71,15.73,4.93,23.25,8.68,7.12,3.56,14.23,6.46,22.08,8.01,7.68,1.51,15.5,2.07,23.27,2.82,17.33,1.66,34.55,4.39,51.55,8.17,6.55,1.46,17.18,2.35,18.9,10.34,.59,2.74,.81,5.19,3.14,7.05,2.58,2.06,6.22,2.94,9.26,4.05,16.29,5.96,32.58,11.93,48.87,17.89,4.15,1.52,8.3,3.04,12.45,4.56,.14,.05,.2-.17,.06-.22-16.6-6.08-33.2-12.15-49.79-18.23-4-1.46-7.99-2.93-11.99-4.39-3.84-1.41-9-2.49-10.78-6.6-1.21-2.79-.81-5.87-2.93-8.29-1.71-1.96-4.24-3.04-6.67-3.82-7.77-2.48-16.07-3.85-24.08-5.35-8.18-1.54-16.41-2.84-24.66-3.9-16.48-2.11-34.04-1.77-49.64-8.12-7.5-3.05-14.41-7.39-22.07-10.09-7.53-2.66-15.46-3.9-23.37-4.78-16.9-1.88-33.9-3.03-50.88-3.81-34.3-1.57-68.68-1.17-102.93,1.21-33.94,2.35-67.75,6.64-101.2,12.85-4.24,.79-8.47,1.61-12.7,2.45-.15,.03-.08,.25,.06,.22h0Z"/><path class="b" d="M367.59,228.75c12.67-1.84,25.14-4.91,37.19-9.24,7.46-2.68,17.5-6.89,19.06-15.73,.93-5.27-2.58-10.58-.96-15.75,1.93-6.16,11.06-7.61,16.47-8.75,12.67-2.67,25.85-2.15,38.29,1.38,5.96,1.69,11.75,3.9,17.68,5.67,6.08,1.81,12.26,2.9,18.58,3.32,13.27,.89,26.7,.4,39.99,.44,26.97,.08,53.94,.17,80.9,.25,6.47,.02,13.01-.18,19.44,.66,6.59,.86,12.49,3.29,18.29,6.45,5.31,2.89,10.53,5.86,16.1,8.23,4.88,2.07,9.89,3.81,14.98,5.28,21.95,6.31,44.91,7.6,67.49,10.12,11.73,1.31,23.46,2.94,34.94,5.73,4.74,1.15,12.61,3.06,12.04,9.45-.46,5.24-6.86,8.2-11.17,9.65-23.11,7.77-47.61,11.21-71.73,14.08-23.51,2.8-47.14,4.88-70.44,9.16-11.65,2.14-23.22,4.84-34.5,8.45-5.53,1.77-10.99,3.76-16.35,6-5.85,2.44-11.7,5.16-17.98,6.34-1.57,.29-3.16,.49-4.76,.54-1.52,.05-4.24,.27-5.56-.47-1.39-.78-1.63-2.91-2.07-4.27-.54-1.67-1.08-3.34-1.63-5.01-.05-.14-.27-.08-.22,.06,.54,1.67,1.08,3.34,1.63,5.01,.32,.97,.65,3.51,1.37,4.2,.25,.24,1.33,.33,1.66,.39,1.59,.27,3.21,.37,4.82,.32,6.07-.18,11.88-2.35,17.43-4.63,11.6-4.77,23.21-9.05,35.37-12.17,24.16-6.19,49.01-8.94,73.74-11.7,24.43-2.73,48.97-5.44,72.87-11.4,5.87-1.46,11.86-2.97,17.54-5.08,3.56-1.32,7.63-3.44,9.46-6.95,4.97-9.54-11.02-12.2-16.69-13.41-23.45-4.99-47.51-5.72-71.18-9.22-11.75-1.74-23.44-4.18-34.63-8.22-5.76-2.08-11.34-4.6-16.71-7.54-5.45-2.99-10.82-6.3-16.8-8.12-5.84-1.78-11.97-2.08-18.03-2.14-6.8-.08-13.6-.05-20.4-.07-14.08-.04-28.17-.09-42.25-.13l-42.25-.13c-13.63-.04-27.52,.6-40.8-3.01-6.52-1.77-12.82-4.24-19.3-6.13-5.85-1.7-11.84-2.81-17.92-3.18-6.04-.37-12.11-.04-18.07,.96-3.25,.54-6.46,1.29-9.61,2.24-2.43,.73-4.99,1.52-7.07,3.04-3.85,2.79-3.87,7.01-3.04,11.28,.58,2.97,1.37,5.97,.77,9-.54,2.69-2.03,5.05-3.95,6.98-3.95,3.99-9.31,6.27-14.5,8.15-6.08,2.2-12.28,4.09-18.55,5.65-6.28,1.57-12.63,2.8-19.04,3.72-.15,.02-.08,.25,.06,.22h0Z"/><path class="b" d="M815.68,233.92c10.54,6.09,9.81,20.47,7.95,30.83-1.33,7.39-3.25,14.7-5.01,21.99-1.91,7.9-3.89,15.79-5.95,23.65-4.12,15.73-8.53,31.38-13.24,46.94-4.71,15.56-9.72,31.03-15.03,46.4-5.28,15.3-10.86,30.51-16.72,45.6-.74,1.91-1.49,3.82-2.24,5.73-.05,.14,.17,.2,.22,.06,6.06-15.39,11.83-30.9,17.29-46.52,5.46-15.62,10.62-31.34,15.46-47.15,4.85-15.82,9.39-31.73,13.62-47.72,2.1-7.93,4.12-15.88,6.06-23.84,1.88-7.7,3.83-15.42,5.4-23.19,1.13-5.6,1.83-11.42,1.25-17.13-.51-5.01-2.14-10.12-5.92-13.64-.92-.86-1.94-1.58-3.03-2.21-.13-.08-.25,.13-.12,.2h0Z"/><path class="b" d="M645.28,312.67c4.95,.57,9.7,2.63,13.47,5.9,3.19,2.77,5.6,6.29,7.33,10.12,3.62,8.02,4.48,16.99,5.26,25.66,.91,10.14,1.75,20.29,2.05,30.46,.3,10.1,.08,20.24-1.2,30.27-1.27,9.96-3.6,19.81-7.43,29.1-.5,1.2-1.02,2.4-1.56,3.58-.06,.14,.14,.25,.2,.12,4.26-9.28,6.98-19.17,8.52-29.25,1.55-10.1,1.96-20.35,1.78-30.56-.19-10.47-.99-20.91-1.92-31.33-.78-8.84-1.45-17.96-4.72-26.3-1.51-3.84-3.61-7.47-6.48-10.45-3.25-3.36-7.4-5.79-11.94-6.94-1.11-.28-2.23-.48-3.36-.61-.15-.02-.15,.22,0,.23h0Z"/><path class="b" d="M636.1,287.1c.31-1.81,2.72,.31,3.13,1.03,.5,.88,.75,1.97,1.05,2.93,.31,.99,.6,1.99,.86,3,1.08,4.19,1.7,8.51,1.84,12.84,.08,2.4,0,4.81-.22,7.2-.01,.15,.22,.15,.23,0,.44-4.8,.28-9.65-.46-14.41-.37-2.41-.9-4.8-1.57-7.15-.33-1.14-.69-2.27-1.08-3.38-.28-.78-.55-1.44-1.16-2.02-.7-.66-2.58-1.7-2.86-.1-.03,.15,.2,.21,.22,.06h0Z"/><path class="b" d="M665.19,278.69c-.27,10.81-.54,21.62-.81,32.43-.08,3.06-.15,6.12-.23,9.18,0,.15,.23,.15,.23,0,.27-10.81,.54-21.62,.81-32.43,.08-3.06,.15-6.12,.23-9.18,0-.15-.23-.15-.23,0h0Z"/><path class="b" d="M675.51,302.82c6.95-4.52,15.85-5.68,23.73-3.11,.14,.05,.2-.18,.06-.22-6.19-2.02-13.05-1.76-19.09,.64-1.68,.67-3.29,1.51-4.81,2.49-.13,.08,0,.28,.12,.2h0Z"/><path class="b" d="M707.49,295.64c2.76,1.54,5.92,2.28,9.08,2.12,1.53-.08,3.04-.37,4.49-.86,1.66-.55,3.24-1.3,4.9-1.84,3.59-1.16,7.21-.65,10.85-.08,2.86,.45,5.72,.85,8.6,.35,2.74-.48,5.39-1.76,6.81-4.25,.07-.13-.13-.25-.2-.12-1.3,2.29-3.68,3.53-6.19,4.05-2.91,.61-5.83,.23-8.73-.23-3.23-.51-6.55-1.08-9.79-.35-3.16,.72-5.98,2.47-9.21,2.94-3.6,.52-7.32-.17-10.49-1.94-.13-.07-.25,.13-.12,.2h0Z"/><path class="b" d="M763.62,274.4c-2.47,5.12-4.94,10.26-6.81,15.64-1.89,5.44-3.08,11.1-3.87,16.81-.35,2.53-.58,5.06-.87,7.6-.25,2.17-.61,4.38-1.45,6.42-.84,2.06-2.25,3.84-4.28,4.82-2.31,1.11-4.97,1.11-7.48,1.28-2.35,.16-4.64,.53-6.65,1.84-1.72,1.12-3.04,2.85-2.85,4.99,.01,.15,.25,.15,.23,0-.19-2.2,1.27-3.93,3.07-5,2.03-1.2,4.27-1.48,6.58-1.62,2.28-.14,4.65-.2,6.78-1.09,1.87-.78,3.31-2.2,4.26-3.97,2.09-3.88,2.06-8.63,2.57-12.9,.69-5.7,1.73-11.38,3.44-16.88,1.92-6.17,4.72-12,7.52-17.81,.06-.13-.14-.25-.2-.12h0Z"/><path class="b" d="M766.68,300.46c-.68,2.08-1.36,4.17-2.04,6.25-.05,.14,.18,.2,.22,.06l2.04-6.25c.05-.14-.18-.2-.22-.06h0Z"/><path class="b" d="M773.71,279.72c-.65,9.93-1.29,19.86-1.94,29.8-.64,9.88-1.29,19.77-1.93,29.65-.64,9.8-1.26,19.6-1.92,29.39-.63,9.32-1.37,18.64-2.73,27.89-1.35,9.1-3.32,18.13-6.39,26.82-.38,1.07-.77,2.12-1.18,3.18-.05,.14,.17,.2,.22,.06,3.33-8.59,5.53-17.57,7.04-26.64,1.51-9.1,2.34-18.3,3-27.5,.7-9.7,1.29-19.4,1.92-29.11,.65-9.98,1.3-19.96,1.95-29.94,.65-9.93,1.29-19.86,1.94-29.8l.25-3.8c0-.15-.22-.15-.23,0h0Z"/><path class="b" d="M779.31,288.04c.2,10.56-.22,21.13-1.26,31.65-.29,2.97-.64,5.94-1.03,8.9-.02,.15,.21,.15,.23,0,1.38-10.47,2.15-21.03,2.3-31.59,.04-2.99,.03-5.97-.02-8.96,0-.15-.24-.15-.23,0h0Z"/><path class="b" d="M786.88,289.21c2.11-3.1,4.22-6.2,6.33-9.3,.08-.12-.12-.24-.2-.12-2.11,3.1-4.22,6.2-6.33,9.3-.08,.12,.12,.24,.2,.12h0Z"/><path class="b" d="M791.89,279.65c-.75,9.57-1.63,19.12-2.67,28.66-1.04,9.62-2.23,19.23-3.57,28.82-1.32,9.5-2.79,18.98-4.4,28.44-1.62,9.5-3.38,18.99-5.29,28.44-1.9,9.4-3.94,18.78-6.12,28.12-.27,1.16-.54,2.31-.82,3.47-.03,.15,.19,.21,.22,.06,2.23-9.38,4.31-18.8,6.25-28.24,1.94-9.44,3.74-18.92,5.39-28.42,1.65-9.5,3.16-19.02,4.53-28.57,1.35-9.46,2.56-18.94,3.63-28.44,1.08-9.58,2.01-19.18,2.79-28.79,.1-1.18,.19-2.37,.28-3.55,.01-.15-.22-.15-.23,0h0Z"/><path class="b" d="M760.06,433.98c7.66-10.06,14.04-21.07,18.96-32.72,1.38-3.25,2.63-6.56,3.78-9.9l-.22-.06c-2.26,7.78-4.64,15.52-7.15,23.22-2.5,7.66-5.12,15.29-7.86,22.87-1.56,4.31-3.16,8.6-4.8,12.87l.23,.03c.15-8.82,.3-17.64,.45-26.46,0-.14-.19-.15-.23-.03-2.63,7.53-1.3,15.63,.03,23.28,.03,.15,.25,.08,.22-.06-1.32-7.61-2.64-15.66-.03-23.15l-.23-.03c-.15,8.82-.3,17.64-.45,26.46,0,.14,.18,.15,.23,.03,2.9-7.56,5.67-15.17,8.32-22.82,2.64-7.62,5.15-15.28,7.54-22.98,1.36-4.37,2.67-8.76,3.95-13.16,.04-.15-.18-.2-.22-.06-4.09,11.95-9.68,23.38-16.61,33.94-1.93,2.94-3.97,5.82-6.1,8.62-.09,.12,.11,.24,.2,.12h0Z"/><path class="b" d="M804.89,282.92c-1.35,7.87-2.72,15.73-4.12,23.59-1.4,7.86-2.84,15.71-4.3,23.56-1.47,7.89-2.97,15.77-4.5,23.64-1.52,7.84-3.07,15.67-4.65,23.49-1.58,7.82-3.19,15.64-4.83,23.45-.2,.98-.41,1.95-.62,2.93-.03,.15,.19,.21,.22,.06,1.64-7.81,3.26-15.63,4.85-23.45,1.59-7.82,3.14-15.65,4.67-23.48,1.54-7.87,3.04-15.75,4.52-23.64,1.47-7.85,2.91-15.7,4.32-23.55,1.41-7.86,2.79-15.72,4.15-23.58,.17-.98,.34-1.97,.51-2.95,.03-.15-.2-.21-.22-.06h0Z"/><path class="b" d="M717.41,327.62c-1.15,12.24-2.7,24.45-4.64,36.59-1.92,12-4.21,23.95-6.89,35.8-1.51,6.7-3.15,13.38-4.9,20.02-.04,.15,.19,.21,.22,.06,3.13-11.86,5.88-23.83,8.24-35.87,2.35-11.98,4.31-24.03,5.89-36.13,.89-6.81,1.66-13.64,2.3-20.48,.01-.15-.22-.15-.23,0h0Z"/><path class="b" d="M687.92,338.8c4.38,1.25,8.91,1.87,13.46,1.84,.15,0,.15-.23,0-.23-4.53,.03-9.04-.59-13.4-1.83-.14-.04-.21,.18-.06,.22h0Z"/><path class="b" d="M700.23,319.25v20.8c0,.15,.23,.15,.23,0v-20.8c0-.15-.23-.15-.23,0h0Z"/><path class="b" d="M685.77,310.94c1.05,7.22,1.34,14.54,.87,21.82,0,.15,.22,.15,.23,0,.47-7.3,.17-14.64-.88-21.89-.02-.15-.25-.08-.22,.06h0Z"/><path class="b" d="M744.92,336.93c.59,12.98,.47,25.99-.38,38.95-.85,12.95-2.42,25.86-4.7,38.64-1.28,7.17-2.79,14.3-4.51,21.38-.04,.15,.19,.21,.22,.06,3.07-12.6,5.44-25.36,7.09-38.22,1.66-12.89,2.6-25.86,2.82-38.85,.12-7.32,.02-14.65-.32-21.96,0-.15-.24-.15-.23,0h0Z"/><path class="b" d="M730.39,358.78v30.16c0,.15,.23,.15,.23,0v-30.16c0-.15-.23-.15-.23,0h0Z"/><path class="b" d="M725.08,368.15c.55,7.64,.37,15.32-.53,22.92-.02,.15,.22,.15,.23,0,.9-7.61,1.08-15.28,.53-22.92-.01-.15-.24-.15-.23,0h0Z"/><path class="b" d="M618.75,305.95c2.64,2.57,1.4,6.84-.91,9.17-3.11,3.13-8.16,2.98-12.23,2.66-4.87-.38-9.72-.78-14.6-.98-4.96-.2-9.92-.25-14.88-.17-9.99,.17-19.98,.91-29.89,2.22-4.85,.64-9.68,1.42-14.49,2.33-4.57,.87-9.15,1.79-13.65,3-6.62,1.77-13.94,4.55-17.77,10.61-.47,.74-.87,1.52-1.21,2.32-.03,.06-.01,.16,.07,.17,5.12,.76,10.23,1.52,15.35,2.28,4.01,.6,8.1,1.02,11.96,2.31,3.03,1.01,6.29,2.59,8.07,5.37,1.86,2.92,1.37,6.6-.79,9.22-2.58,3.12-6.61,4.85-10.33,6.18-.14,.05-.08,.28,.06,.22,3.4-1.22,6.92-2.75,9.55-5.29,2.36-2.29,3.61-5.58,2.5-8.8-1.04-3.04-3.89-4.99-6.71-6.24-3.56-1.58-7.37-2.17-11.19-2.74-6.14-.91-12.28-1.83-18.42-2.74l.07,.17c3-7.09,10.56-10.46,17.52-12.46,4.39-1.26,8.9-2.18,13.39-3.06,4.94-.97,9.91-1.79,14.9-2.48,10.12-1.38,20.33-2.17,30.54-2.36,5.04-.1,10.07-.05,15.11,.15,4.96,.19,9.89,.6,14.83,.99,3.91,.31,8.62,.45,11.83-2.21,2.29-1.9,3.83-5.43,2.63-8.33-.26-.64-.66-1.2-1.16-1.68-.11-.1-.27,.06-.16,.16h0Z"/><path class="b" d="M150,402.36c10.94-5.36,23.12-6.84,35.17-7.11,12.23-.27,24.45,.41,36.68,.09,26.13-.7,52.11-4.02,77.88-8.23,26.23-4.29,52.34-9.33,78.48-14.13,6.5-1.19,13-2.39,19.49-3.58,5.47-1,10.98-1.9,16.35-3.35,4.69-1.27,9.35-3.01,13.36-5.8,4.36-3.03,7-7.17,9.83-11.55,13.46-20.81,40.63-16.96,61.78-20.82,3.01-.55,5.97-1.28,8.87-2.24,.14-.05,.08-.27-.06-.22-20.69,6.79-46.09,.67-64.02,15.39-4.24,3.48-6.7,8-9.77,12.43-3.21,4.64-7.67,7.91-12.83,10.12-4.89,2.1-10.12,3.28-15.33,4.29-6.22,1.2-12.47,2.3-18.7,3.45-26.16,4.81-52.29,9.8-78.51,14.28-26.3,4.5-52.8,8.27-79.48,9.47-12.59,.57-25.14,.19-37.74,.13-11.46-.05-23.18,.47-34.15,4.12-2.55,.85-5.03,1.88-7.45,3.06-.13,.07-.02,.27,.12,.2h0Z"/><path class="b" d="M124.91,425.66c6.29,3.98,12.09,8.73,17.24,14.12,5.14,5.38,9.64,11.39,13.33,17.86,2.02,3.53,3.88,7.2,5.12,11.09,1.24,3.88,1.7,7.91,1.19,11.96-1.01,7.98-5.14,15.19-9.41,21.85-4.78,7.45-9.74,14.79-14.62,22.18-.62,.93-1.23,1.87-1.85,2.8-.08,.13,.12,.24,.2,.12,5.05-7.64,10.11-15.27,15.13-22.93,4.36-6.64,8.73-13.67,10.36-21.55,.79-3.81,.83-7.73,0-11.55-.88-4.05-2.6-7.86-4.52-11.5-3.5-6.63-7.84-12.82-12.85-18.39-4.99-5.55-10.65-10.5-16.84-14.69-.79-.53-1.58-1.05-2.38-1.56-.13-.08-.24,.12-.12,.2h0Z"/><path class="b" d="M168.83,482.92c14.51-.95,28.97-2.68,43.29-5.19,7.15-1.26,14.28-2.7,21.35-4.35,5.44-1.27,10.91-2.75,15.92-5.29,2.38-1.2,4.64-2.66,6.63-4.44,1-.9,1.94-1.88,2.77-2.93,.85-1.08,1.7-2.24,2.19-3.53,.48-1.25,.46-2.57-.19-3.75-.61-1.1-1.6-1.94-2.62-2.66-1.27-.9-2.64-1.68-3.97-2.48-1.43-.87-2.88-1.72-4.35-2.53-2.86-1.58-5.83-3-8.94-4.02-3.29-1.09-6.71-1.63-10.16-1.81-3.61-.19-7.24-.02-10.85,.12-3.72,.15-7.45,.3-11.17,.45-7.45,.3-14.9,.6-22.34,.9-3.72,.15-7.45,.3-11.17,.45-3.66,.15-7.34,.2-11,.48-1.69,.13-3.36,.37-4.98,.86-.14,.04-.08,.27,.06,.22,3.4-1.04,7.04-.97,10.56-1.11,3.65-.15,7.29-.29,10.94-.44,7.29-.29,14.59-.59,21.88-.88,7.24-.29,14.47-.66,21.71-.86,3.55-.1,7.12-.07,10.64,.46,3.28,.49,6.44,1.47,9.48,2.79,3,1.31,5.87,2.91,8.68,4.59,1.39,.83,2.79,1.66,4.15,2.54,1.16,.75,2.34,1.6,3.09,2.78,1.82,2.87-.68,6.05-2.56,8.19-1.78,2.02-3.9,3.7-6.2,5.1-4.72,2.87-10.06,4.55-15.39,5.9-6.56,1.66-13.22,3.01-19.87,4.25-14.01,2.62-28.16,4.49-42.37,5.6-1.74,.14-3.47,.26-5.21,.37-.15,0-.15,.24,0,.23h0Z"/><path class="b" d="M270.9,460.75c-.87,3.92-.7,8.03,.52,11.86,.59,1.84,1.51,3.51,2.28,5.28,.81,1.86,1.49,4.06,.26,5.9-.08,.12,.12,.24,.2,.12,1-1.48,.8-3.23,.25-4.85-.66-1.92-1.74-3.65-2.44-5.55-1.5-4.04-1.79-8.48-.85-12.69,.03-.15-.19-.21-.22-.06h0Z"/><path class="b" d="M260.98,471.2c.82,4.48,1.65,8.97,2.47,13.45,.03,.15,.25,.08,.22-.06-.82-4.48-1.65-8.97-2.47-13.45-.03-.15-.25-.08-.22,.06h0Z"/><path class="b" d="M252.93,477.44c2,3.02,2.81,6.72,2.23,10.3-.02,.15,.2,.21,.22,.06,.59-3.64-.21-7.41-2.25-10.48-.08-.12-.28,0-.2,.12h0Z"/><path class="b" d="M227.03,485.28c5.69,.49,10.84,4.25,13.33,9.35,.7,1.44,1.18,2.98,1.4,4.57,.02,.15,.25,.08,.22-.06-.82-5.7-4.9-10.68-10.18-12.91-1.52-.64-3.13-1.04-4.78-1.18-.15-.01-.15,.22,0,.23h0Z"/><path class="b" d="M245.76,498.79l15.67,1.1c.15,.01,.15-.22,0-.23l-15.67-1.1c-.15-.01-.15,.22,0,.23h0Z"/><path class="b" d="M268.68,502.38c5.21-.04,10.41,.39,15.54,1.28,.15,.03,.21-.2,.06-.22-5.15-.89-10.37-1.33-15.6-1.29-.15,0-.15,.23,0,.23h0Z"/><path class="b" d="M278.2,481.01c7.4,2.03,14.8,4.05,22.24,5.94,7.47,1.89,14.97,3.65,22.54,5.12,7.44,1.45,14.94,2.62,22.49,3.37,3.79,.38,7.59,.55,11.38,.84,1.86,.14,3.73,.36,5.54,.83,1.76,.46,3.41,1.2,5,2.07,2.8,1.54,5.52,3.47,8.68,4.18,2.43,.54,5.26,.46,7.36-1.02,.51-.36,.96-.8,1.34-1.29,.09-.12-.07-.28-.16-.16-1.79,2.31-4.86,2.83-7.6,2.42-3.2-.48-5.95-2.31-8.71-3.88-1.45-.83-2.94-1.61-4.53-2.15-1.62-.55-3.31-.86-5.01-1.05-3.67-.42-7.38-.48-11.06-.81-7.57-.67-15.1-1.77-22.57-3.17-7.42-1.39-14.79-3.06-22.12-4.89-7.37-1.84-14.71-3.82-22.04-5.83-.91-.25-1.81-.5-2.72-.74-.14-.04-.21,.19-.06,.22h0Z"/><path class="b" d="M303.78,428.21c-.52,1.95,.42,3.74,1.71,5.16,1.61,1.77,3.71,3.07,5.64,4.44,2.28,1.62,4.56,3.25,6.84,4.87,2.12,1.51,4.29,2.97,6.32,4.6,1.79,1.44,3.47,3.09,4.58,5.12,1.29,2.33,1.63,5,1.8,7.62,.36,5.63,.59,11.26,.88,16.9l.99,19.13c0,.15,.24,.15,.23,0-.58-11.29-1.17-22.57-1.75-33.86-.13-2.5-.21-5.06-.93-7.48-.64-2.14-1.86-4-3.41-5.6-1.56-1.6-3.37-2.92-5.17-4.21-2.26-1.61-4.52-3.22-6.78-4.83-1.25-.89-2.5-1.78-3.75-2.67-1.24-.88-2.52-1.73-3.7-2.7-1.89-1.55-3.97-3.8-3.27-6.45,.04-.14-.19-.21-.22-.06h0Z"/><path class="b" d="M335.4,462.75c.77,2.85,1.54,5.69,2.31,8.54,.04,.14,.26,.08,.22-.06-.77-2.85-1.54-5.69-2.31-8.54-.04-.14-.26-.08-.22,.06h0Z"/><path class="b" d="M348.65,462.79v9.36c0,.15,.23,.15,.23,0v-9.36c0-.15-.23-.15-.23,0h0Z"/><path class="b" d="M372.09,436.85c-.9,7.8-1.68,15.6-2.36,23.42-.68,7.86-1.26,15.72-1.72,23.59-.26,4.42-.48,8.83-.68,13.25,0,.15,.23,.15,.23,0,.34-7.84,.78-15.67,1.34-23.5,.56-7.87,1.23-15.72,2-23.57,.44-4.4,.91-8.8,1.41-13.19,.02-.15-.22-.15-.23,0h0Z"/><path class="b" d="M375.96,461.75c-.48-4.53,.29-9.13,2.23-13.26l-.22-.06c-.45,7.56-.9,15.12-1.35,22.67,0,.15,.22,.15,.23,0,.45-7.56,.9-15.12,1.35-22.67,0-.11-.17-.16-.22-.06-1.96,4.16-2.75,8.8-2.26,13.37,.02,.15,.25,.15,.23,0h0Z"/><path class="b" d="M386.42,447.22c-.92,8.69-2.32,17.32-4.19,25.86-.53,2.43-1.11,4.85-1.71,7.27-.04,.15,.19,.21,.22,.06,2.16-8.56,3.84-17.23,5.04-25.97,.33-2.4,.62-4.81,.88-7.22,.02-.15-.22-.15-.23,0h0Z"/><path class="b" d="M393.94,439.98c-2.53,14.47-4.35,29.07-5.44,43.72-.31,4.12-.55,8.24-.75,12.36,0,.15,.23,.15,.23,0,.68-14.65,2.09-29.27,4.21-43.79,.6-4.09,1.26-8.16,1.97-12.23,.03-.15-.2-.21-.22-.06h0Z"/><path class="b" d="M391.59,484.63c-.86-9.1,.18-18.33,3.02-27.02,.05-.14-.18-.2-.22-.06-2.85,8.71-3.89,17.96-3.03,27.08,.01,.15,.25,.15,.23,0h0Z"/><path class="b" d="M400.35,440.91c-1.31,11.85-2.14,23.74-2.5,35.66-.1,3.38-.16,6.76-.19,10.15,0,.15,.23,.15,.23,0,.09-11.92,.65-23.83,1.68-35.7,.29-3.37,.63-6.74,1-10.1,.02-.15-.22-.15-.23,0h0Z"/><path class="b" d="M410.12,457.66c6.1,2.44,13.3,1.57,18.65-2.25,.12-.09,0-.29-.12-.2-5.3,3.79-12.42,4.65-18.47,2.23-.14-.06-.2,.17-.06,.22h0Z"/><path class="b" d="M436.35,428.55c.65,8.14,.19,16.36-1.4,24.38-.79,3.98-1.99,7.84-3.01,11.77-.96,3.69-1.53,7.43-1.23,11.25,.32,4.11,1.52,8.12,3.5,11.74,.07,.13,.27,.01,.2-.12-1.83-3.34-2.99-7.02-3.4-10.81-.42-3.88,.06-7.7,1.01-11.47,.97-3.86,2.18-7.64,2.99-11.54,.8-3.85,1.34-7.75,1.62-11.68,.32-4.5,.3-9.03-.06-13.53-.01-.15-.24-.15-.23,0h0Z"/><path class="b" d="M444.97,431.46c-1.46,8.31-2.89,16.64-3.76,25.04-.87,8.4-1.18,16.91-.28,25.32,.49,4.65,1.36,9.25,2.66,13.73,.04,.14,.27,.08,.22-.06-2.32-8.02-3.22-16.37-3.19-24.7,.03-8.47,.98-16.92,2.24-25.29,.71-4.67,1.51-9.33,2.33-13.98,.03-.15-.2-.21-.22-.06h0Z"/><path class="b" d="M450.76,436.81c-1.53,13.44-2.58,26.94-3.15,40.46-.16,3.84-.28,7.68-.37,11.53,0,.15,.23,.15,.23,0,.3-13.53,1.07-27.04,2.33-40.51,.36-3.83,.75-7.65,1.19-11.47,.02-.15-.22-.15-.23,0h0Z"/><path class="b" d="M456.48,440.93c-.54,10.81-1.07,21.62-1.61,32.43-.15,3.06-.3,6.12-.45,9.18,0,.15,.23,.15,.23,0,.54-10.81,1.07-21.62,1.61-32.43,.15-3.06,.3-6.12,.45-9.18,0-.15-.23-.15-.23,0h0Z"/><path class="b" d="M459.44,476.31c-5.83-10.73-1.7-23.41,2.94-33.72,4.58-10.16,10.2-20.52,9.16-32.04-.48-5.35-2.44-10.6-6.37-14.38-.11-.1-.27,.06-.16,.16,7.68,7.36,7.48,19.33,4.51,28.78-3.58,11.4-10.72,21.51-12.65,33.44-.98,6.05-.6,12.41,2.38,17.88,.07,.13,.27,.01,.2-.12h0Z"/><path class="b" d="M495.1,390.15c3.5,13.15,7.12,26.87,5.18,40.58-1.8,12.76-8.91,24.01-10.92,36.72-1.02,6.45-.73,13.24,2.29,19.15,.07,.13,.27,.02,.2-.12-5.84-11.45-1.48-24.64,2.72-35.82,2.28-6.05,4.64-12.13,5.72-18.54,1.09-6.48,.88-13.1,0-19.59-1.04-7.6-3-15.04-4.97-22.44-.04-.14-.26-.08-.22,.06h0Z"/><path class="b" d="M510.21,385.3c4.91,7.78,8.14,16.57,9.61,25.64,1.48,9.13,1.2,18.55-.89,27.56-1.18,5.08-2.93,10.02-5.25,14.69-.07,.13,.13,.25,.2,.12,4.11-8.27,6.43-17.37,6.97-26.58,.55-9.29-.71-18.7-3.73-27.51-1.69-4.92-3.94-9.64-6.72-14.04-.08-.13-.28,0-.2,.12h0Z"/><path class="b" d="M524.09,387.99c1.33,8.34,2.31,16.72,2.94,25.14,.62,8.35,.9,16.73,.83,25.1-.04,4.72-.19,9.44-.45,14.15,0,.15,.22,.15,.23,0,.46-8.44,.58-16.89,.33-25.34-.24-8.41-.83-16.81-1.77-25.17-.52-4.66-1.16-9.31-1.9-13.95-.02-.15-.25-.08-.22,.06h0Z"/><path class="b" d="M538.5,383.85c1.38,8.65,1.82,17.44,1.3,26.18-.26,4.37-.81,8.71-1.45,13.04-.61,4.14-1.26,8.28-1.53,12.46-.29,4.62-.09,9.28,1.13,13.76,.04,.14,.26,.08,.22-.06-2.27-8.31-.97-16.97,.28-25.33,.62-4.2,1.2-8.39,1.5-12.63,.3-4.35,.37-8.72,.2-13.08-.19-4.83-.67-9.64-1.43-14.41-.02-.15-.25-.08-.22,.06h0Z"/><path class="b" d="M540.69,416.81c1.69-4.2,3.38-8.39,5.07-12.59,1.61-4,3.31-7.98,4.72-12.06,2.39-6.9,3.72-14.5,.71-21.43-1.41-3.26-3.74-6.1-6.91-7.78-.13-.07-.25,.13-.12,.2,5.85,3.1,8.57,9.99,8.57,16.34,0,8.26-3.75,16.07-6.77,23.58l-5.5,13.66c-.06,.14,.17,.2,.22,.06h0Z"/><path class="b" d="M582.46,368.11c-.03,3.9,1.07,7.65,2.27,11.32,1.24,3.78,2.43,7.56,3.36,11.43,1.88,7.84,2.93,15.88,3.12,23.94,.11,4.49-.06,8.99-.48,13.46-.01,.15,.22,.15,.23,0,.75-7.93,.67-15.93-.24-23.84-.91-7.89-2.66-15.65-5.15-23.19-1.4-4.26-2.91-8.58-2.88-13.12,0-.15-.23-.15-.23,0h0Z"/><path class="b" d="M610.74,372.14c.28,9,.57,18.01,1.27,27,.69,8.81,1.78,17.6,3.65,26.24,1.07,4.94,2.41,9.82,4.06,14.6,.05,.14,.27,.08,.22-.06-2.9-8.4-4.81-17.11-6.08-25.89-1.29-8.9-1.93-17.88-2.35-26.85-.23-5.01-.39-10.02-.55-15.02,0-.15-.24-.15-.23,0h0Z"/><path class="b" d="M628.17,436.94c2.25-10.13,3.24-20.52,2.94-30.89-.09-2.93-.28-5.85-.57-8.76-.01-.15-.25-.15-.23,0,1.02,10.3,.78,20.72-.76,30.96-.43,2.9-.97,5.77-1.61,8.63-.03,.15,.19,.21,.22,.06h0Z"/><path class="b" d="M630.74,360.86c.57-.41,.05-1.01-.46-1.17-.95-.3-1.26,.75-1.06,1.49,.17,.6,.56,1.12,.93,1.61,.49,.66,.98,1.31,1.47,1.96,.92,1.22,1.85,2.43,2.77,3.65,3.59,4.77,7.14,9.69,9.5,15.2,1.16,2.71,2.01,5.56,2.35,8.49,.37,3.24,.03,6.45-.64,9.63-.68,3.22-1.61,6.38-2.1,9.64-.24,1.59-.36,3.21-.3,4.82,.07,1.79,.37,3.55,.6,5.32,.24,1.85,.41,3.73,.19,5.59-.19,1.63-.62,3.22-1.26,4.73-1.3,3.04-3.46,5.68-6.21,7.52-.12,.08,0,.28,.12,.2,4.33-2.9,7.22-7.78,7.64-12.98,.27-3.27-.58-6.47-.81-9.72-.23-3.22,.34-6.4,1.06-9.53,.7-3.04,1.54-6.07,1.91-9.17,.34-2.81,.22-5.64-.35-8.41-1.11-5.4-3.79-10.35-6.82-14.9-1.8-2.71-3.76-5.32-5.73-7.92-.96-1.26-1.91-2.52-2.86-3.79-.48-.65-1.13-1.36-1.28-2.17-.09-.51,.09-1.18,.71-1.06,.27,.05,.95,.45,.5,.77-.12,.09,0,.29,.12,.2h0Z"/><path class="b" d="M656.11,380.58c-1.07,11.92-.92,23.95,.46,35.84,.39,3.32,.87,6.63,1.44,9.92,.03,.15,.25,.08,.22-.06-2.05-11.78-2.9-23.77-2.51-35.72,.11-3.33,.31-6.66,.61-9.98,.01-.15-.22-.15-.23,0h0Z"/><path class="b" d="M665.14,384.81c-.77,7.97-1.54,15.93-2.31,23.9-.01,.15,.22,.15,.23,0,.77-7.97,1.54-15.93,2.31-23.9,.01-.15-.22-.15-.23,0h0Z"/><path class="b" d="M129.01,541.04c10.9-7.06,22.58-12.97,34.95-16.99,13.1-4.26,26.75-6.01,40.47-6.57,13.68-.55,27.38-.06,41.07-.24,13.71-.18,27.21-1.39,40.66-4.09,13.68-2.75,27.21-6.09,41.05-8.01,14.08-1.96,28.27-2.97,42.48-3.48,14.13-.51,28.26-.53,42.4-.52,3.37,0,6.77-.08,10.13,.2,3.71,.31,7.11,1.29,10.52,2.74,5.94,2.52,11.75,4.48,18.18,5.35,3.14,.42,6.31,.66,9.48,.81,2.98,.14,6.06-.02,9.01,.51,3.23,.58,5.88,2.22,5.98,5.81,.08,2.8-.71,5.83-1.53,8.49-3.5,11.39-12.13,20.61-23.18,24.98-6.05,2.39-12.5,3.56-18.86,4.85-7,1.42-14,2.83-21.01,4.25-13.97,2.83-27.95,5.67-41.92,8.48-13.91,2.8-27.85,5.52-41.91,7.51-7.19,1.02-14.41,1.84-21.65,2.39-6.63,.5-13.28,.75-19.87,1.64-6.25,.84-12.31,2.35-18.12,4.82-5.88,2.5-11.44,5.66-17.17,8.48-5.62,2.77-11.43,4.89-17.41,6.73-5.4,1.66-10.85,3.22-16.07,5.41-4.76,2-9.32,4.57-13.12,8.11-3.6,3.36-6.39,7.47-8.61,11.84-4.73,9.32-7.05,19.63-11.2,29.19-2.21,5.1-4.98,9.95-8.72,14.1-3.9,4.33-8.65,7.84-13.79,10.57-11.49,6.11-24.51,8.15-37.38,8.61-6.75,.24-13.51,.08-20.26-.08-.15,0-.15,.23,0,.23,24.23,.59,52.44,.75,70.6-18.1,7.48-7.76,11.07-17.96,14.48-27.95,3.45-10.09,7.01-20.77,15.03-28.24,8.89-8.29,21.24-10.9,32.46-14.52,5.7-1.84,11.13-4.17,16.46-6.88,6.06-3.08,12.04-6.42,18.45-8.73,13.34-4.81,27.9-4.25,41.83-5.66,14.13-1.43,28.15-3.81,42.09-6.48,14.3-2.74,28.55-5.71,42.82-8.6,14.13-2.86,28.35-5.44,42.41-8.64,5.96-1.36,11.92-3.15,17.14-6.42,4.4-2.75,8.21-6.43,11.2-10.67,3.09-4.38,5.31-9.39,6.39-14.65,.84-4.09,1.4-8.68-3.21-10.49-2.21-.86-4.63-.91-6.97-.97-3.39-.1-6.79-.24-10.17-.55-7.2-.66-13.9-2.32-20.53-5.19-2.96-1.28-5.93-2.47-9.14-2.98-3.18-.51-6.41-.51-9.63-.52-7.13-.01-14.25-.02-21.38,.03-28.58,.2-57.26,1.41-85.32,7.16-14.06,2.88-27.99,6.49-42.31,7.88-14.11,1.37-28.3,1.06-42.46,1.01-13.74-.05-27.56,.12-41.16,2.31-12.94,2.09-25.42,6.24-37.17,12.04-5.74,2.83-11.28,6.03-16.65,9.51-.13,.08,0,.28,.12,.2h0Z"/><path class="b" d="M130.07,721.13c2.2,1.43,4.6-.17,6.38-1.54,1.14-.87,2.2-1.85,3.42-2.61,1.32-.83,2.77-1.41,4.27-1.83,5.41-1.56,11.33-1.24,16.36-4.06,1.05-.59,2.02-1.3,2.85-2.17,.91-.96,1.5-2.05,2.07-3.23,.29-.61,.61-1.23,1.1-1.69,.64-.61,1.48-.84,2.34-.89,1.45-.09,2.89,.19,4.34,.11,2.64-.15,5.23-.98,7.49-2.33,2.37-1.42,4.21-3.38,5.66-5.71,.46-.74,.96-1.51,1.73-1.96,.82-.48,1.8-.5,2.73-.46,1.83,.07,3.63,.13,5.46-.08,3.48-.4,6.85-1.49,9.91-3.19,.13-.07,.01-.27-.12-.2-2.85,1.58-5.98,2.64-9.22,3.09-1.61,.22-3.24,.3-4.86,.22-1.33-.07-2.81-.28-4.02,.43-1.18,.68-1.75,2.02-2.49,3.1-.79,1.14-1.73,2.17-2.79,3.07-2.12,1.79-4.71,3.03-7.44,3.55-1.44,.28-2.88,.32-4.34,.21-1.26-.09-2.65-.24-3.82,.36-1.15,.59-1.64,1.8-2.17,2.9-.57,1.18-1.33,2.23-2.31,3.11-4.21,3.8-10.28,3.95-15.55,4.93-3.13,.58-6.12,1.53-8.66,3.52-2.1,1.64-5.33,5.05-8.2,3.18-.13-.08-.24,.12-.12,.2h0Z"/><path class="b" d="M216.14,629.11c.48,11.84,7.04,22.4,7.96,34.15,.25,3.22,0,6.45-.94,9.55-.04,.14,.18,.21,.22,.06,3.45-11.41-2.47-22.85-5.35-33.69-.87-3.3-1.53-6.66-1.67-10.08,0-.15-.24-.15-.23,0h0Z"/><path class="b" d="M190.45,671.93c1.69,4.52,3.39,9.04,5.08,13.57,.05,.14,.28,.08,.22-.06-1.69-4.52-3.39-9.04-5.08-13.57-.05-.14-.28-.08-.22,.06h0Z"/><path class="b" d="M186.23,681.24l1.26,14.54c.01,.15,.25,.15,.23,0l-1.26-14.54c-.01-.15-.25-.15-.23,0h0Z"/><path class="b" d="M184.66,696.91c1.66-4.33,2.32-8.98,1.94-13.6-.01-.15-.25-.15-.23,0,.38,4.6-.28,9.23-1.93,13.54-.05,.14,.17,.2,.22,.06h0Z"/><path class="b" d="M166.79,705.15c2.04-6.65,1.74-13.91-.85-20.36-.05-.11-.24-.11-.23,.03,.39,8.9-.28,17.83-2.02,26.57-.03,.15,.2,.21,.22,.06,1.74-8.76,2.42-17.71,2.03-26.63l-.23,.03c2.57,6.42,2.87,13.63,.85,20.24-.04,.14,.18,.21,.22,.06h0Z"/><path class="b" d="M158.78,709.42c1.03-3.41,1.27-7.01,.71-10.53-.02-.15-.25-.08-.22,.06,.56,3.48,.31,7.03-.71,10.4-.04,.14,.18,.21,.22,.06h0Z"/><path class="b" d="M156.15,692.72c1.78,7.87,1.47,16.14-.89,23.86-.04,.14,.18,.21,.22,.06,2.38-7.76,2.68-16.07,.89-23.99-.03-.15-.26-.08-.22,.06h0Z"/><path class="b" d="M207.26,685.82c4.89-.79,6.76-5.82,8.41-9.87,1.08-2.65,2.16-5.41,4.01-7.63,2.61-3.13,6.47-3.69,10.3-4.14,19.01-2.21,38.01-4.42,57.02-6.63,19.15-2.23,38.31-4.46,57.46-6.68,9.52-1.11,19.07-2.24,28.66-2.49,9.44-.25,18.75,.87,28.16,1.43,18.26,1.09,36.4-2.44,54.15-6.37,11.94-2.65,25.89-6.61,33.19-17.28,4.5-6.57,4.69-14.39,4.81-22.08,.14-9.55,.28-19.09,.42-28.64,.14-9.14,.52-18.32,.26-27.45-.23-8.06-1.31-16.33-5.22-23.51-6.26-11.48-18.29-17.81-30.46-21.24-6.5-1.83-13.18-2.94-19.88-3.69-8.58-.96-17.3-1.66-25.93-1.15-4.34,.26-8.65,.87-12.86,1.93-.15,.04-.08,.26,.06,.22,8.99-2.27,18.29-2.35,27.49-1.76,7.33,.48,14.67,1.2,21.9,2.55,12.78,2.39,26.3,6.87,35.11,16.96,11.33,12.99,9.7,31.17,9.46,47.21-.14,9.26-.27,18.52-.41,27.79-.07,4.66-.11,9.33-.21,13.99-.1,4.47-.37,9.03-1.91,13.27-4.69,12.94-18.94,18.41-31.21,21.54-7.81,1.99-15.78,3.49-23.7,4.9-9.18,1.63-18.47,2.83-27.8,2.81-9.29-.01-18.51-1.39-27.79-1.67-9.21-.27-18.41,.5-27.56,1.5-18.75,2.04-37.47,4.34-56.21,6.52l-55.75,6.49c-4.4,.51-8.82,.95-13.22,1.55-3.03,.41-5.93,1.21-8.07,3.51-3.55,3.82-4.37,9.28-7.01,13.65-1.32,2.18-3.13,3.82-5.71,4.24-.15,.02-.08,.25,.06,.22h0Z"/><path class="b" d="M446.08,499.8c10.63-13.57,29.82-14.08,45.49-16.01,9.6-1.18,19.01-3.27,28.11-6.57,4.61-1.67,9.11-3.62,13.49-5.83,4.03-2.04,8.51-4.15,11.87-7.22,1.47-1.34,2.51-2.93,3.1-4.83,.74-2.38,1.08-4.84,3.11-6.54,2.05-1.72,4.89-2.53,7.41-3.3,2.48-.76,5.01-1.35,7.57-1.8,10.36-1.8,20.96-1.24,31.39-.46,21.77,1.62,43.57,3.36,65.2,6.37,10.68,1.49,21.31,3.3,31.85,5.59,5.26,1.15,10.49,2.42,15.69,3.83,5.01,1.36,10.25,2.62,15.05,4.61,3.86,1.6,8.16,4.21,10.09,8.07,1.02,2.04,1.1,4.31-.07,6.31-1.28,2.21-3.67,3.38-5.99,4.19-4.99,1.76-10.19,3.07-15.28,4.52-5.32,1.52-10.66,2.99-16,4.42-21.38,5.72-42.95,10.75-64.65,15.09-10.83,2.16-21.7,4.05-32.57,5.98-4.08,.72-8.38,1.69-11.64,4.41-2.57,2.14-4.14,5.66-3.71,9.02,.44,3.36,2.91,4.97,5.72,6.38,1.48,.74,3.2,1.43,4.31,2.69,1.98,2.24,0,4.63-1.98,5.99-8.09,5.6-17.07,9.99-26.23,13.51-18.21,6.99-37.53,10.55-56.77,13.38-4.74,.7-9.5,1.35-14.25,2-.15,.02-.08,.24,.06,.22,19.81-2.7,39.74-5.49,58.94-11.27,9.31-2.8,18.42-6.32,27.02-10.85,4.16-2.19,8.58-4.51,12.26-7.46,2.33-1.87,2.72-4.6,.23-6.47-2.96-2.22-7.45-2.83-8.77-6.76-1.49-4.42,1.23-9.09,4.95-11.37,4.24-2.6,9.47-3.11,14.27-3.94,5.55-.95,11.08-1.94,16.61-2.98,22.3-4.19,44.47-9.12,66.45-14.77,11.08-2.85,22.12-5.88,33.1-9.09,2.52-.74,5.07-1.43,7.57-2.27,1.75-.59,3.51-1.32,4.93-2.53,2.52-2.16,3.17-5.52,1.67-8.46-1.77-3.47-5.42-5.91-8.83-7.55-4.49-2.15-9.57-3.32-14.34-4.65-10.64-2.97-21.44-5.34-32.31-7.27-21.66-3.85-43.58-5.98-65.5-7.77-10.77-.88-21.58-2.01-32.39-2.07-5.06-.03-10.14,.23-15.14,1.03-4.82,.76-10.04,1.88-14.38,4.2-1.66,.89-2.98,2.12-3.72,3.88-.93,2.22-1.08,4.67-2.48,6.69-1.48,2.13-3.71,3.58-5.89,4.89-2.2,1.33-4.46,2.58-6.74,3.76-9.36,4.84-19.37,8.45-29.66,10.72-8.86,1.95-17.89,2.56-26.85,3.84-7.95,1.13-16.13,2.78-23.1,6.95-3.25,1.94-6.1,4.43-8.43,7.41-.09,.12,.07,.28,.16,.16h0Z"/><path class="b" d="M437.2,644.82c.3,1.3,.59,2.6,.89,3.9,.03,.13,.22,.1,.23-.03,.5-8.32,1-16.64,1.5-24.96,.25-4.1,.51-8.19,.74-12.29,.17-3.14,.25-6.31-.19-9.43-.48-3.39-1.67-6.68-4.04-9.21-.1-.11-.27,.06-.16,.16,4.46,4.77,4.5,11.82,4.19,17.95-.41,7.99-.95,15.98-1.43,23.97-.28,4.61-.55,9.21-.83,13.82l.23-.03c-.3-1.3-.59-2.6-.89-3.9-.03-.15-.26-.08-.22,.06h0Z"/><path class="b" d="M462.06,642.73c-.11-12.41-.57-24.82-1.38-37.21-.23-3.54-.49-7.08-.78-10.61-.01-.15-.25-.15-.23,0,1.01,12.37,1.67,24.77,1.98,37.18,.09,3.55,.15,7.09,.18,10.64,0,.15,.23,.15,.23,0h0Z"/><path class="b" d="M480.93,633.38c.04-8.95,.22-17.9,.55-26.84,.33-8.91,.8-17.81,1.41-26.7,.35-5.04,.74-10.08,1.18-15.11,.01-.15-.22-.15-.23,0-.78,8.92-1.41,17.84-1.9,26.78-.49,8.9-.83,17.8-1.03,26.71-.11,5.05-.18,10.11-.21,15.16,0,.15,.23,.15,.23,0h0Z"/><path class="b" d="M483.07,555.34c.97,8.74,1.49,17.54,1.53,26.33,.04,8.76-.37,17.52-1.25,26.24-.5,5.01-1.16,10-1.97,14.97-.02,.15,.2,.21,.22,.06,1.41-8.66,2.36-17.39,2.85-26.14,.49-8.82,.51-17.67,.07-26.49-.25-5-.66-9.99-1.22-14.96-.02-.15-.25-.15-.23,0h0Z"/><path class="b" d="M280.74,653.19c1-10.06,.91-20.22-.29-30.26-.33-2.78-.75-5.55-1.25-8.31-.03-.15-.25-.08-.22,.06,1.79,9.9,2.5,19.99,2.11,30.04-.11,2.83-.31,5.65-.59,8.46-.01,.15,.22,.15,.23,0h0Z"/><path class="b" d="M261.51,657.3v-27.04c0-.15-.23-.15-.23,0v27.04c0,.15,.23,.15,.23,0h0Z"/><path class="b" d="M363.37,641.69c.55-8,.28-16.03-.81-23.97-.02-.15-.24-.08-.22,.06,1.08,7.92,1.35,15.94,.8,23.91-.01,.15,.22,.15,.23,0h0Z"/><path class="b" d="M372.54,638.59c-.12,2.17,.5,4.3,1.76,6.06,.07,.09,.21,.06,.22-.06,.46-8.58,.57-17.18,.32-25.78,0-.15-.24-.15-.23,0,.24,8.59,.14,17.19-.32,25.78l.22-.06c-1.24-1.74-1.85-3.81-1.73-5.95,0-.15-.22-.15-.23,0h0Z"/><path class="b" d="M377.85,620.91c1.54,7.54,2.46,15.19,2.77,22.88,0,.15,.24,.15,.23,0-.31-7.71-1.24-15.38-2.78-22.94-.03-.15-.25-.08-.22,.06h0Z"/><path class="b" d="M382.16,641.73c1.04-6.93,2.08-13.87,3.12-20.8,.02-.15-.2-.21-.22-.06-1.04,6.93-2.08,13.87-3.12,20.8-.02,.15,.2,.21,.22,.06h0Z"/><path class="b" d="M390.39,599.05l1.1,31.66,.31,8.93c0,.15,.24,.15,.23,0-.37-10.55-.73-21.11-1.1-31.66-.1-2.98-.21-5.95-.31-8.93,0-.15-.24-.15-.23,0h0Z"/><path class="b" d="M395.62,642.75c2.02-7.62,3.13-15.47,3.29-23.35,.05-2.27,0-4.55-.1-6.82,0-.15-.24-.15-.23,0,.38,7.89-.17,15.82-1.68,23.57-.43,2.2-.93,4.38-1.5,6.54-.04,.15,.19,.21,.22,.06h0Z"/><path class="b" d="M205.19,692.32c5.96,.31,11.48,2.77,16.71,5.48,1.32,.69,2.64,1.39,3.95,2.1,1.21,.65,2.49,1.22,3.63,1.99,.63,.43,1.17,.97,1.41,1.71,.24,.77,.15,1.59,.15,2.38,0,1.16,.3,2.25,.86,3.27,1.19,2.16,3.2,3.66,4.62,5.64,1.37,1.91,2.62,4.92,.93,7.02-.91,1.14-2.4,1.57-3.72,2.03-1.5,.52-3,1.04-4.49,1.56-3.03,1.05-6.06,2.1-9.1,3.16-2.94,1.02-5.87,2.05-8.82,3.03-2.92,.97-5.88,1.82-8.81,2.74-1.18,.37-2.32,.85-3.29,1.65-1.01,.83-1.8,1.87-2.66,2.83-.93,1.03-1.97,1.87-3.19,2.52-1.26,.66-2.6,1.13-3.93,1.61-3,1.07-6,2.15-9,3.22-2.81,1-5.65,1.94-8.41,3.06-2.35,.95-4.63,2.13-6.45,3.92-.98,.96-1.83,2.05-2.85,2.98-1.04,.94-2.25,1.6-3.58,2.06-2.75,.94-5.78,1.24-8.65,1.61-3.02,.4-6.09,.64-9.13,.33-4.96-.5-10.08-2.8-12.66-7.26-.57-.99-.98-2.06-1.22-3.18-.03-.15-.26-.08-.22,.06,.97,4.61,4.86,7.94,9.13,9.51,5.72,2.11,12.05,1.12,17.91,.21,2.64-.41,5.42-.85,7.65-2.43,1.13-.8,2.03-1.87,2.97-2.88,.97-1.05,2.01-1.97,3.21-2.74,2.44-1.55,5.21-2.47,7.92-3.44,3.11-1.11,6.21-2.22,9.32-3.34,1.57-.56,3.14-1.12,4.71-1.69,1.25-.45,2.5-.92,3.66-1.56,1.2-.67,2.2-1.53,3.11-2.55,.89-1,1.72-2.09,2.81-2.9,1.23-.92,2.72-1.33,4.17-1.75,1.52-.44,3.04-.91,4.55-1.39,3.09-.99,6.16-2.04,9.22-3.11,3.13-1.09,6.27-2.17,9.4-3.26,1.57-.55,3.14-1.09,4.71-1.64,1.37-.48,2.81-.88,4.13-1.5,1.02-.48,1.91-1.2,2.35-2.27,.41-1,.37-2.13,.1-3.16-.64-2.46-2.39-4.2-4.05-6.02-.88-.97-1.75-1.99-2.33-3.19-.3-.62-.52-1.3-.6-1.99-.08-.74,0-1.48-.04-2.22-.07-1.22-.6-2.12-1.6-2.81-1.21-.84-2.6-1.46-3.89-2.15-5.23-2.8-10.56-5.73-16.43-6.96-1.37-.29-2.75-.47-4.15-.54-.15,0-.15,.23,0,.23h0Z"/><path class="b" d="M176.42,777.85c2.31,6.98,3.35,14.36,3.07,21.71-.08,2.15-.28,4.3-.59,6.43-.02,.15,.2,.21,.22,.06,1.06-7.34,.8-14.86-.78-22.11-.46-2.08-1.02-4.13-1.69-6.15-.05-.14-.27-.08-.22,.06h0Z"/><path class="b" d="M181.82,758.34c2.46,9.2,3.98,18.65,4.51,28.16,.15,2.7,.22,5.4,.22,8.1,0,.15,.23,.15,.23,0,.02-9.55-.94-19.09-2.87-28.44-.55-2.65-1.17-5.28-1.87-7.89-.04-.14-.26-.08-.22,.06h0Z"/><path class="b" d="M188.3,757.24c2.57,8.77,4.08,17.83,4.48,26.96,0,.15,.24,.15,.23,0-.4-9.15-1.91-18.23-4.49-27.02-.04-.14-.27-.08-.22,.06h0Z"/><path class="b" d="M199.1,788.36c.43-6.96,.08-13.95-1.04-20.83-.02-.15-.25-.08-.22,.06,1.12,6.86,1.47,13.83,1.04,20.77,0,.15,.22,.15,.23,0h0Z"/><path class="b" d="M200.89,759.28c1.72,8.67,3.44,17.34,5.16,26.01,.03,.15,.25,.08,.22-.06-1.72-8.67-3.44-17.34-5.16-26.01-.03-.15-.25-.08-.22,.06h0Z"/><path class="b" d="M216.87,786.45c8.79-6.66,17.93-13.56,28.74-16.49,4.53-1.23,9.53-1.57,13.6-4.11,1.9-1.18,3.44-2.86,4.38-4.9,.93-2.04,1.25-4.3,1.22-6.53-.06-5.15-1.78-10.17-3.36-15.02-1.84-5.63-3.92-11.18-6.25-16.63-1.16-2.72-2.38-5.41-3.66-8.08-1.2-2.5-2.41-5.02-3.85-7.39-1.34-2.19-2.91-4.28-4.92-5.9-1.89-1.53-4.09-2.59-6.38-3.38-4.98-1.72-10.24-2.35-15.11-4.43-2.53-1.08-4.99-2.35-7.61-3.2-2.67-.86-5.46-1.18-8.24-.82-1.33,.17-2.63,.49-3.89,.94-.14,.05-.08,.28,.06,.22,2.69-.96,5.58-1.29,8.42-.94,2.86,.36,5.53,1.48,8.13,2.65,2.39,1.08,4.76,2.15,7.28,2.89,2.41,.71,4.88,1.23,7.32,1.85,2.41,.62,4.81,1.35,7.02,2.52,2.32,1.22,4.28,2.94,5.88,5.01,1.58,2.04,2.82,4.32,3.99,6.62,1.31,2.58,2.55,5.2,3.74,7.84,2.43,5.38,4.62,10.87,6.56,16.45,.96,2.76,1.86,5.54,2.7,8.33,.69,2.31,1.31,4.64,1.66,7.02,.68,4.67,.28,9.85-3.35,13.27-3.49,3.27-8.57,3.92-13.05,4.93-10.47,2.34-19.42,8.31-27.89,14.64-1.08,.81-2.16,1.63-3.24,2.44-.12,.09,0,.29,.12,.2h0Z"/><path class="b" d="M276.63,742.43c-.5-2.55-1.01-5.09-1.51-7.64-.25-1.27-.5-2.55-.75-3.82-.24-1.23-.69-2.66-.15-3.87,.75-1.68,2.91-1.95,4.51-2.18,.8-.12,1.66-.17,2.41-.5,.71-.31,1.33-.82,1.8-1.43,.82-1.04,1.28-2.66-.14-3.4-.13-.07-.25,.13-.12,.2,1.81,.94,.24,3.15-.86,3.96-1.37,1-3.24,.87-4.83,1.24-1.4,.33-2.79,1.02-3.16,2.53-.23,.93,0,1.92,.18,2.84,.25,1.27,.5,2.55,.75,3.82,.55,2.77,1.09,5.54,1.64,8.31,.03,.15,.25,.08,.22-.06h0Z"/><path class="b" d="M279.19,711.39v-6.24c0-.15-.23-.15-.23,0v6.24c0,.15,.23,.15,.23,0h0Z"/><path class="b" d="M286.41,701c1.49-4.05,1.63-8.49,.41-12.63-.04-.14-.27-.08-.22,.06,1.22,4.1,1.07,8.49-.41,12.5-.05,.14,.17,.2,.22,.06h0Z"/><path class="b" d="M380.49,646.08c.98,4.68,4.46,8.24,8.61,10.39,5.23,2.72,11.25,2.97,17.03,2.98,6.55,.02,13,.18,19.48,1.32,6.15,1.08,12.17,2.83,17.95,5.18,3.08,1.26,6.08,2.69,8.99,4.29,.67,.37,1.34,.75,2.01,1.14,1.03,.6,1.24,.81,.68,2.05-.57,1.25-1.22,2.47-1.95,3.63-3.02,4.82-7.3,8.73-12.01,11.87-10.29,6.85-22.41,9.72-33.97,13.63-6.59,2.23-12.72,5.11-18.88,8.33-6.24,3.27-12.85,6.44-20.08,5.83-.04,0-.08,.02-.1,.06-3.04,6.37,1.48,13.18,.78,19.72-.18,1.75-.94,3.33-2.43,4.33-1.95,1.3-4.5,1.09-6.41,2.48-3.1,2.26-3.6,6.89-5.05,10.18-7,15.87-24.82,23.14-40.31,27.95-10.39,3.23-20.94,5.96-31.41,8.89l-34.52,9.66c-5.75,1.61-11.51,3.22-17.26,4.83-5.57,1.56-11.37,3.66-17.23,3.49-5.66-.17-10.37-3.52-15.76-4.8-5-1.2-10.21-1.12-15.29-.43-5.38,.74-10.64,2.15-15.85,3.64-.69,.2-1.09,.45-.18,.28,.69-.13,1.39-.43,2.05-.64,1.37-.43,2.73-.87,4.09-1.32,2.64-.88,5.26-1.79,7.87-2.75,10.27-3.77,20.32-8.15,30.07-13.12,2.47-1.26,4.93-2.57,7.36-3.9,.13-.07,.01-.27-.12-.2-16.66,9.14-34.23,16.52-52.42,22.02-.14,.04-.08,.27,.06,.22,6.45-1.86,12.98-3.69,19.68-4.3,3.26-.3,6.56-.3,9.8,.19,3.36,.5,6.46,1.61,9.57,2.95,2.66,1.14,5.33,2.16,8.25,2.36,3.08,.22,6.16-.3,9.14-1.02,6.75-1.61,13.41-3.69,20.09-5.56,13.64-3.82,27.28-7.64,40.92-11.45,11.89-3.33,23.95-6.3,35.64-10.28,9.02-3.07,18.05-6.96,25.44-13.09,3.54-2.93,6.64-6.41,8.93-10.4,1.11-1.93,2-3.97,2.72-6.08,.81-2.41,1.51-5.2,3.54-6.9,2.07-1.73,5.08-1.34,7.18-3.06,1.19-.97,1.81-2.36,2.02-3.86,.52-3.77-.87-7.67-1.43-11.36-.34-2.23-.55-4.58,0-6.8,.1-.39,.21-1.19,.51-1.47,.43-.41,1.69-.13,2.2-.14,1.35-.01,2.71-.15,4.04-.4,5.71-1.05,10.9-3.92,15.98-6.59,5.76-3.04,11.66-5.55,17.85-7.6,6.22-2.07,12.54-3.86,18.68-6.17,9.69-3.65,19.39-9.01,25.48-17.65,1.43-2.03,2.6-4.21,3.52-6.52,.02-.05-.01-.11-.05-.13-9.38-5.68-19.78-9.6-30.58-11.47-5.4-.93-10.83-1.29-16.3-1.29-5.75,0-11.76,.2-17.25-1.79-5.2-1.88-9.98-5.79-11.15-11.41-.03-.15-.26-.08-.22,.06h0Z"/><path class="b" d="M134.19,823.31c9-3.86,18.6-6.27,28.35-7.17,9.68-.89,19.49-.31,28.99,1.78,1.18,.26,2.35,.54,3.52,.85,.58,.15,1.17,.31,1.75,.48,.22,.06,.65,.09,.81,.23,.22,.19,.17,.44,.14,.71-.22,2.19-2.18,3.78-3.89,4.91-2.08,1.38-4.3,2.57-6.46,3.81-2.28,1.3-4.57,2.6-6.85,3.9-8.56,4.9-16.83,10.18-24.55,16.34-7.48,5.97-14.45,12.6-20.78,19.78-.79,.9-1.57,1.8-2.35,2.72-.04,.05-.05,.12,0,.16,5.63,5.03,12.02,9.2,18.9,12.32,3.42,1.55,6.95,2.76,10.52,3.87,3.68,1.15,7.4,2.31,10.73,4.28,6.76,4,10.87,11.2,15.11,17.55,4.79,7.17,9.53,14.37,14.23,21.6,5.33,8.21,10.61,16.45,15.83,24.74,.08,.13,.28,0,.2-.12-7.97-12.65-16.08-25.22-24.32-37.69-2.05-3.11-4.12-6.21-6.19-9.31-1.9-2.84-3.76-5.72-5.81-8.45-1.83-2.44-3.85-4.76-6.25-6.67-2.46-1.95-5.28-3.32-8.21-4.41-3.02-1.12-6.14-1.96-9.18-3-3.19-1.09-6.3-2.39-9.31-3.91-2.91-1.46-5.73-3.12-8.42-4.96-1.39-.94-2.74-1.94-4.06-2.97-.62-.49-1.23-.98-1.83-1.49-.3-.25-.6-.51-.9-.76-.17-.15-.39-.29-.53-.47-.21-.26-.23-.19-.04-.51,.38-.66,1.06-1.24,1.56-1.81,.58-.66,1.16-1.32,1.75-1.97,1.12-1.24,2.26-2.47,3.43-3.68,2.27-2.36,4.6-4.65,7-6.87,4.91-4.54,10.11-8.79,15.54-12.7,5.68-4.09,11.63-7.73,17.7-11.21,3.15-1.81,6.33-3.58,9.47-5.41,2.46-1.43,5.38-2.78,7.14-5.11,.72-.96,1.13-2.06,1.05-3.26,0-.05-.03-.1-.09-.11-8.15-2.41-16.62-3.68-25.11-3.81-8.49-.13-17,.87-25.23,2.99-4.61,1.19-9.11,2.73-13.48,4.6-.14,.06-.02,.26,.12,.2h0Z"/><path class="b" d="M174.45,886.77c1.62-2.89,3.24-5.79,4.85-8.68,.79-1.41,1.58-2.83,2.37-4.24,.69-1.23,1.32-2.54,2.21-3.63,.99-1.2,2.26-1.8,3.81-1.85,1.57-.05,3.16,.2,4.72,.34,3.21,.29,6.44,.52,9.64,.89,1.19,.14,2.52,.38,3.43,1.21,1.02,.94,1.02,2.35,.37,3.49-.65,1.13-1.69,2.02-2.69,2.82-1.01,.81-2.03,1.59-2.95,2.52-1.76,1.79-3.21,3.88-4.27,6.15-.52,1.11-.95,2.27-1.27,3.46-.33,1.21-.45,2.45-.73,3.67-.15,.64-.36,1.32-.83,1.81-.7,.74-1.71,.72-2.64,.53-1.48-.3-3-.82-4.27-1.64-1.27-.82-2.27-2-2.61-3.5-.31-1.38-.03-2.87,1.03-3.86,.11-.1-.05-.27-.16-.16-1.72,1.59-1.48,4.38-.14,6.14,.82,1.07,1.98,1.82,3.21,2.35,1.22,.53,2.76,1.1,4.11,1.02,2.78-.15,2.63-3.8,3.11-5.77,.71-2.89,2.03-5.63,3.84-8,.88-1.15,1.88-2.22,2.98-3.17,1.09-.94,2.29-1.74,3.3-2.77,.76-.78,1.52-1.73,1.66-2.84,.14-1.08-.38-2.11-1.26-2.72-.98-.68-2.22-.88-3.38-1-1.73-.18-3.46-.32-5.19-.48l-5.57-.51c-1.59-.15-3.31-.46-4.88-.03-1.41,.38-2.41,1.42-3.18,2.61-1.05,1.6-1.91,3.34-2.85,5.01-1.99,3.57-3.99,7.13-5.98,10.7-.07,.13,.13,.25,.2,.12h0Z"/><path class="b" d="M219.93,863.64c-.6-.34-.71,.53-.52,.92,.44,.88,1.32-.06,1.51-.62,.22-.66,.19-1.39,.26-2.08,.1-.94,.25-1.87,.45-2.79,.39-1.78,.97-3.53,1.72-5.19,.71-1.57,1.56-3.23,2.72-4.52,.62-.69,1.38-1.2,2.28-1.44,.84-.23,1.72-.25,2.59-.34,3.26-.32,5.59-2.4,8.06-4.36,5.5-4.38,12.23-6.88,19.12-7.99,3.61-.58,7.3-.56,10.89-1.26,3.61-.71,6.63-2.6,9.79-4.37,6.43-3.61,13.4-6.27,20.6-7.88,.89-.2,1.79-.38,2.69-.55,.13-.02,.1-.24-.03-.23-5.7,.59-10.69,3.52-15.21,6.87-2.36,1.75-4.62,3.62-6.92,5.43-2.55,2.01-5.17,3.9-7.91,5.63-5.69,3.61-11.73,6.63-17.79,9.56-6.54,3.15-13.1,6.27-19.65,9.41-3.71,1.78-7.42,3.55-11.14,5.33-3.16,1.51-7.23,3.73-10.68,1.79-.13-.07-.25,.13-.12,.2,2.61,1.47,5.66,.57,8.23-.53,3.33-1.43,6.57-3.11,9.84-4.68,6.72-3.22,13.45-6.43,20.17-9.65,6.15-2.94,12.31-5.88,18.19-9.34,2.87-1.69,5.66-3.5,8.34-5.48,2.36-1.75,4.63-3.63,6.94-5.44,5.22-4.11,10.93-8.16,17.73-8.86l-.03-.23c-6.72,1.26-13.26,3.41-19.41,6.4-3.11,1.51-6.01,3.45-9.14,4.92-3.37,1.58-6.97,1.88-10.62,2.19-6.41,.53-12.76,1.97-18.48,4.99-1.43,.75-2.81,1.6-4.12,2.54-1.27,.91-2.45,1.95-3.7,2.9-1.22,.93-2.54,1.78-4.03,2.2-1.56,.43-3.26,.2-4.78,.8-1.45,.57-2.38,1.89-3.16,3.18-.96,1.58-1.75,3.26-2.35,5.01-.58,1.68-.99,3.42-1.21,5.19-.11,.85-.05,1.8-.32,2.63-.12,.37-.63,1.14-1.04,.63-.11-.13-.21-.88,.16-.67,.13,.07,.25-.13,.12-.2h0Z"/><path class="b" d="M340.87,809.32c5.17,2.27,10.09-2.27,12.94-6.14,3.11-4.22,5.83-10.38,11.5-11.59,1.62-.35,3.12,.02,4.72,.28,1.08,.18,2.19,.19,3.2-.29,1.58-.75,2.29-2.44,2.71-4.04,.54-2.04,.72-4.16,1.31-6.2,.31-1.08,.73-2.14,1.42-3.04,.88-1.16,2.15-1.87,3.4-2.56,2.27-1.24,4.21-2.62,4.91-5.25,.7-2.62,.21-5.43,0-8.08-.24-3.02-.03-5.91,1.32-8.67,1.28-2.6,3.25-4.81,5.41-6.71,4.63-4.06,10.26-7.11,15.75-9.84,5.68-2.83,11.58-5.2,17.58-7.25,12-4.1,24.39-6.93,36.74-9.73,12.38-2.8,24.8-5.56,36.88-9.48,2.84-.92,5.71-1.84,8.46-3,2.18-.91,4.53-2.16,5.76-4.27,2.71-4.66-2.22-8.57-6.08-10.16-3.08-1.27-6.46-2.03-9.74-2.57-3.39-.56-6.83-.81-10.26-.74-1.74,.04-3.48,.15-5.2,.35-1.7,.2-3.38,.51-5.09,.61-3.09,.19-6.08-.61-7.96-3.2-2.87-3.95-2.78-9.35-4.46-13.8-1.83-4.86-5.93-8.1-10.47-10.34-5.61-2.77-11.78-4.42-17.71-6.37-7.16-2.36-14.33-4.72-21.49-7.08-3.47-1.14-6.94-2.29-10.41-3.43-.14-.05-.2,.18-.06,.22,13.91,4.58,27.86,9.09,41.74,13.76,5.12,1.72,10.5,3.75,14.43,7.6,1.93,1.9,3.29,4.18,4.11,6.76,.73,2.29,1.14,4.67,1.73,7,.53,2.08,1.19,4.23,2.51,5.96,1.41,1.85,3.48,2.91,5.78,3.13,3.3,.32,6.66-.6,9.95-.82,3.47-.23,6.96-.14,10.42,.28,3.5,.42,6.96,1.18,10.31,2.26,2.54,.82,5.19,2.04,6.96,4.11,1.93,2.26,1.99,5.3-.06,7.51-1.91,2.06-4.71,3.04-7.28,3.98-11.7,4.25-23.81,7.19-35.93,9.96-12.11,2.77-24.27,5.35-36.18,8.91-11.69,3.49-23.16,7.96-33.6,14.34-4.67,2.85-9.49,6.19-12.27,11.03-1.31,2.29-1.97,4.81-1.95,7.45,.02,2.76,.6,5.5,.43,8.26-.09,1.42-.41,2.84-1.2,4.04-.85,1.29-2.14,2.1-3.46,2.83-2.06,1.14-3.89,2.25-4.85,4.49-.82,1.9-1.07,3.99-1.46,6-.35,1.84-.78,4.11-2.42,5.27-2.32,1.63-5.28-.16-7.86,.2-2.37,.34-4.4,1.76-6.05,3.43-4,4.04-6.01,9.66-10.72,13.04-2.37,1.7-5.26,2.62-8.05,1.39-.14-.06-.25,.14-.12,.2h0Z"/><path class="b" d="M600.58,439.64c16.65,4.64,33.9,6.5,51.05,8.22,17.25,1.74,34.61,3.34,51.45,7.65,8.28,2.12,16.48,4.85,24.16,8.63,7.33,3.61,13.98,8.5,18.45,15.44,8.07,12.54,8.36,28.48,6.94,42.85-.39,3.94-.96,7.85-1.53,11.77-.68,4.59-1.29,9.22-1.07,13.87,.2,4.37,1.42,8.54,2.3,12.81,.44,2.14,.79,4.32,.76,6.52-.01,1.1-.12,2.21-.35,3.28-.11,.51-.25,1.01-.41,1.5-.23,.69-.54,.91-1.23,1.18-1.93,.76-4.14,.54-5.9-.53-.13-.08-.25,.12-.12,.2,1.49,.9,3.26,1.22,4.98,.87,.57-.11,1.8-.37,2.19-.87,.2-.26,.29-.73,.39-1.04,.18-.58,.33-1.16,.43-1.76,.74-4.13-.24-8.33-1.16-12.34-.51-2.2-1.04-4.39-1.35-6.63-.35-2.52-.4-5.08-.27-7.62,.24-4.73,1.08-9.39,1.73-14.07,2-14.43,2.96-30.19-2.85-43.91-3-7.07-7.88-12.98-14.2-17.33-7.04-4.86-15.26-8.05-23.37-10.64-16.71-5.34-34.23-7.45-51.61-9.23-17.77-1.82-35.67-3.3-53.09-7.44-2.09-.5-4.17-1.04-6.24-1.61-.14-.04-.21,.18-.06,.22h0Z"/><path class="b" d="M718.07,556.42c3.83-12.37,4.53-25.66,2.07-38.37-.7-3.61-1.65-7.16-2.84-10.63-.05-.14-.27-.08-.22,.06,4.23,12.27,5.34,25.57,3.24,38.37-.58,3.55-1.41,7.06-2.47,10.5-.04,.14,.18,.2,.22,.06h0Z"/><path class="b" d="M700.47,513.02c1.39,6.83,2.77,13.66,4.16,20.49,.69,3.41,1.39,6.83,2.08,10.24,.48,2.38,.82,4.83,.65,7.27-.19,2.68-1.14,5.33-3.51,6.8-.13,.08-.01,.28,.12,.2,4.16-2.59,3.98-8.22,3.31-12.47-.52-3.29-1.29-6.56-1.95-9.82-.72-3.57-1.45-7.13-2.17-10.7-.82-4.02-1.63-8.04-2.45-12.06-.03-.15-.25-.08-.22,.06h0Z"/><path class="b" d="M682.8,517.43c3.21,5.24,5.81,10.83,7.74,16.66,1.88,5.68,3.27,11.69,3.66,17.67,.2,3.1-.06,6.4-2.02,8.96-.09,.12,.11,.24,.2,.12,1.68-2.19,2.14-4.96,2.11-7.67-.03-2.92-.51-5.85-1.04-8.71-1.14-6.12-3-12.11-5.53-17.8-1.43-3.22-3.07-6.34-4.92-9.35-.08-.13-.28-.01-.2,.12h0Z"/><path class="b" d="M687.95,549.13c-.43-7.8-3.88-15.31-9.53-20.72-.11-.1-.27,.06-.16,.16,5.6,5.37,9.03,12.82,9.46,20.56,0,.15,.24,.15,.23,0h0Z"/><path class="b" d="M670.88,541.94c1.12,3.9,.27,8.22-2.27,11.39l.18,.02-11.34-20.29c-.07-.13-.27-.01-.2,.12l11.34,20.29c.03,.06,.14,.08,.18,.02,2.59-3.24,3.47-7.63,2.33-11.62-.04-.14-.27-.08-.22,.06h0Z"/><path class="b" d="M650.97,548.99c-1.84-7.64-5-14.96-9.34-21.52-1.2-1.82-2.49-3.58-3.86-5.28-.09-.12-.26,.05-.16,.16,4.9,6.07,8.74,12.97,11.29,20.34,.72,2.08,1.34,4.2,1.85,6.35,.03,.15,.26,.08,.22-.06h0Z"/><path class="b" d="M497.15,594.92c37.98-9.68,76.24-18.29,114.7-25.81,9.62-1.88,19.25-3.69,28.89-5.43,9.84-1.78,19.7-3.68,29.67-4.58,17.88-1.61,35.79,1.28,52.02,9.09,4.16,2,8.18,4.3,12.01,6.88,2.63,1.77,10.3,6.24,6.2,10.03-3.1,2.87-10.87,1.74-11.78,6.85,0,.05,0,.11,.05,.13,25.46,12.87,52.62,22.34,80.59,28.01,3.1,.63,6.54,.86,9.45,2.16,1.44,.64,3,1.71,3.06,3.46,.08,1.99-1.83,3.61-3.04,4.97-4.19,4.73-8.43,9.43-12.89,13.92-9.11,9.17-19.33,17.61-31.43,22.48-6.46,2.6-13.29,3.85-20.03,5.49-6.78,1.65-12.95,4.06-18.95,7.64-6.21,3.71-12.3,7.22-19.07,9.84-6.71,2.59-13.6,4.74-20.49,6.79-27.84,8.27-56.6,13.43-85.58,15.44-28.87,2-57.97,.86-86.59-3.46-3.58-.54-7.15-1.13-10.71-1.77-.15-.03-.21,.2-.06,.22,23.87,4.27,48.11,6.34,72.35,6.18,24.24-.16,48.47-2.52,72.28-7.06,11.95-2.28,23.79-5.11,35.48-8.48,11.31-3.27,23-6.61,33.44-12.15,5.25-2.79,10.09-6.3,15.48-8.82,5.6-2.63,11.66-3.97,17.66-5.34,5.39-1.23,10.75-2.55,15.85-4.7,4.9-2.07,9.53-4.73,13.87-7.78,8.65-6.07,16.18-13.57,23.3-21.33,1.81-1.96,3.59-3.95,5.36-5.94,1.36-1.53,3.59-3.34,3.94-5.47,.65-3.95-4.88-5.03-7.62-5.53-23.99-4.46-47.47-11.7-69.81-21.52-2.75-1.21-5.48-2.45-8.19-3.74-1.36-.64-2.71-1.29-4.05-1.96-.63-.31-1.26-.62-1.88-.93-.68-.34-1.5-.53-1.4-1.33,.19-1.59,2.48-2.55,3.73-3.01,1.51-.56,3.09-.91,4.62-1.42,2.13-.72,4.62-1.97,4.39-4.61-.16-1.82-1.63-3.19-2.98-4.26-2.22-1.76-4.6-3.34-7-4.85-9.32-5.85-19.65-10.08-30.39-12.49-11.55-2.59-23.3-2.81-35.02-1.45-12.6,1.45-25.09,4-37.55,6.33-12.67,2.36-25.32,4.85-37.94,7.45-25.35,5.22-50.6,10.92-75.74,17.09-6.1,1.5-12.2,3.02-18.29,4.57-.15,.04-.08,.26,.06,.22h0Z"/><path class="b" d="M749.27,565.88c-.28,6.81,1.9,13.6,5.87,19.12,1.96,2.73,4.36,5.14,7.1,7.08,2.79,1.98,6.12,3.13,8.8,5.27,1.43,1.15,2.45,2.56,2.99,4.32,.5,1.63,.8,3.3,1.91,4.66,1.8,2.21,4.79,2.85,7.48,3.16,1.56,.18,3.13,.26,4.69,.37,1.97,.15,3.91,.44,5.83,.95,4.29,1.14,8.42,2.91,12.56,4.49,8.52,3.23,17.05,6.47,25.57,9.7,1.08,.41,2.17,.82,3.25,1.23,.14,.05,.2-.17,.06-.22-8.42-3.19-16.83-6.39-25.25-9.58-4.16-1.58-8.29-3.23-12.48-4.7-1.99-.7-4.02-1.31-6.09-1.69-1.61-.29-3.24-.4-4.87-.51-2.96-.2-6.27-.31-8.87-1.9-1.41-.86-2.37-2.15-2.89-3.71-.57-1.7-.83-3.44-1.92-4.91-1.92-2.6-5.09-3.88-7.84-5.39-3-1.65-5.68-3.82-7.93-6.39-4.56-5.18-7.39-11.92-7.71-18.83-.04-.84-.04-1.68,0-2.53,0-.15-.23-.15-.23,0h0Z"/><path class="b" d="M757.85,569.38c-.88-.77,.02-2.1,.92-2.37,1.17-.36,2.38,.53,3.3,1.14,1.86,1.24,3.89,2.05,6.08,2.5,4.51,.94,9.16,.59,13.72,1,10.38,.94,20.21,4.73,29.98,8.1,9.35,3.22,19.43,5.54,27.61,11.37,6.83,4.87,12.27,12.52,11.25,21.26-.45,3.88-2.14,7.7-5.11,10.29-3.54,3.09-8.37,3.81-12.91,3.72-1.18-.02-2.35-.1-3.53-.2-.15-.01-.15,.22,0,.23,4.73,.4,9.83,.43,14.12-1.88,3.47-1.87,5.86-5.19,6.99-8.93,1.15-3.82,1.05-7.99-.28-11.74-1.48-4.18-4.25-7.8-7.56-10.71-7.73-6.79-17.9-9.43-27.44-12.6-10.25-3.41-20.4-7.6-31.2-8.94-5.05-.63-10.21-.17-15.22-1.13-2.42-.46-4.58-1.35-6.63-2.71-1.36-.9-3.51-1.85-4.5,.08-.3,.58-.28,1.23,.23,1.68,.11,.1,.28-.07,.16-.16h0Z"/><path class="b" d="M696.22,446.79c12.77-.33,25.57,.82,38.09,3.34,12.52,2.52,24.77,6.41,36.49,11.5,11.63,5.06,22.74,11.3,33.11,18.6,10.41,7.33,20.08,15.74,28.74,25.08,8.71,9.39,16.41,19.73,22.82,30.82,.77,1.33,1.52,2.67,2.25,4.02,.07,.13,.27,.01,.2-.12-6.08-11.22-13.44-21.72-21.86-31.3-8.42-9.59-17.87-18.25-28.11-25.86-10.3-7.66-21.4-14.26-33.06-19.66-11.58-5.36-23.71-9.53-36.15-12.37-12.39-2.82-25.09-4.32-37.8-4.35-1.58,0-3.15,.02-4.73,.06-.15,0-.15,.24,0,.23h0Z"/><path class="b" d="M768.05,458.82c10.55-3.16,21.73-3.65,32.59-1.97,10.96,1.7,21.55,5.5,31.32,10.72,10.02,5.35,19.08,12.25,27.28,20.09,8.44,8.07,15.94,17.05,22.88,26.43,6.94,9.39,13.32,19.17,19.6,29.01,.76,1.19,1.51,2.37,2.27,3.56,.08,.13,.28,0,.2-.12-6.35-9.98-12.74-19.94-19.66-29.53-6.84-9.48-14.2-18.62-22.46-26.9-8.06-8.07-16.96-15.3-26.86-21-9.6-5.53-20.06-9.7-30.94-11.85-10.66-2.11-21.74-2.23-32.34,.28-1.32,.31-2.63,.67-3.93,1.06-.14,.04-.08,.27,.06,.22h0Z"/><path class="b" d="M771.95,520.79c13.3,1.95,26.57,4.28,39.6,7.64,12.91,3.33,25.61,7.67,37.56,13.63,11.21,5.58,21.67,12.57,30.72,21.25,8.51,8.16,15.79,17.67,21.07,28.23,5.23,10.44,8.42,21.94,8.68,33.65,.03,1.44,.02,2.87-.03,4.31,0,.15,.23,.15,.23,0,.43-11.66-2.06-23.25-6.73-33.91-4.73-10.8-11.59-20.62-19.74-29.12-8.54-8.9-18.5-16.23-29.32-22.12-11.77-6.41-24.38-11.14-37.27-14.76-13.03-3.66-26.35-6.2-39.72-8.27-1.67-.26-3.33-.51-5-.75-.15-.02-.21,.2-.06,.22h0Z"/><path class="b" d="M902.54,552.02c6.74,11.98,11.45,25.09,13.89,38.62,.69,3.84,1.2,7.71,1.52,11.59,.01,.15,.25,.15,.23,0-1.14-13.73-4.6-27.25-10.18-39.85-1.58-3.57-3.34-7.07-5.26-10.48-.07-.13-.27-.01-.2,.12h0Z"/><path class="b" d="M785.65,448.18c5.51-1.06,11.05,.11,16.34,1.67,5.13,1.51,10.17,3.37,15.46,4.27,9.66,1.65,19.51,.86,29.26,1.01,9.47,.15,19.29,1.24,27.32,6.7,8.53,5.8,13.7,15.43,17.95,24.56,4.7,10.1,8.16,20.78,10.27,31.72,.26,1.33,.49,2.67,.71,4.01,.02,.15,.25,.08,.22-.06-1.8-11.02-4.94-21.81-9.35-32.07-2.14-4.99-4.54-9.9-7.36-14.54-2.59-4.26-5.62-8.31-9.42-11.58-3.59-3.09-7.82-5.31-12.35-6.68-4.53-1.37-9.26-1.94-13.97-2.17-9.94-.49-19.92,.48-29.83-.65-5.37-.61-10.46-2.13-15.6-3.75-5.17-1.63-10.51-3.26-15.99-3.09-1.26,.04-2.51,.18-3.74,.42-.15,.03-.08,.25,.06,.22h0Z"/><path class="b" d="M840.79,465.8c5.15,1.28,10.87-2.09,12.24-7.22,.04-.14-.19-.21-.22-.06-1.34,5-6.93,8.3-11.96,7.06-.15-.04-.21,.19-.06,.22h0Z"/><path class="b" d="M872.72,455.9c5.05,4.1,11.55,6.05,18.02,5.91,6.44-.15,12.9-2.36,17.82-6.58,2.94-2.52,4.94-6.2,8.43-8.04,3.36-1.78,7.42-1.96,10.5-4.3,4.99-3.79,4.53-10.9,2.34-16.1-2.56-6.07-7.96-10.69-13.63-13.79-6.14-3.36-13.04-5.1-19.94-6.02-7.22-.96-14.53-1.05-21.8-.87-9.37,.23-18.73,.65-28.09,.92-9.6,.28-19.21,.45-28.82,.3-9.58-.15-19.17-.64-28.7-1.66-2.41-.26-4.82-.55-7.22-.88-.15-.02-.21,.2-.06,.22,18.47,2.54,37.15,2.85,55.76,2.48,9.38-.19,18.75-.54,28.12-.86,7.61-.26,15.24-.57,22.85-.15,13.67,.75,28.42,3.9,37.8,14.71,3.95,4.55,6.72,11.92,4.18,17.79-1.46,3.36-4.51,4.97-7.86,6.02-1.69,.53-3.42,.98-5.03,1.74-1.75,.83-3.16,2.08-4.44,3.51-1.22,1.35-2.34,2.78-3.66,4.03-1.19,1.12-2.49,2.12-3.87,3-2.78,1.75-5.88,2.97-9.08,3.66-6.47,1.38-13.46,.62-19.34-2.48-1.45-.77-2.82-1.67-4.09-2.71-.12-.09-.28,.07-.16,.16h0Z"/><path class="b" d="M917.77,417.14c10.22-.07,20.86,.06,30.57,3.63,4.76,1.75,9.19,4.42,12.68,8.13,3.66,3.88,6.09,8.76,7.44,13.89,1.53,5.82,1.72,11.95,.93,17.9-.02,.15,.21,.15,.23,0,1.39-10.43-.25-21.94-7.02-30.34-6.58-8.15-16.86-11.49-26.92-12.71-5.94-.72-11.94-.79-17.92-.75-.15,0-.15,.23,0,.23h0Z"/><path class="b" d="M934.22,437.97c.19-1.19,1.76-.23,2.23,.22,.38,.37,.61,.84,.85,1.3,.31,.57,.6,1.15,.89,1.73,1.13,2.32,2.1,4.72,2.9,7.18,1.59,4.89,2.51,10,2.71,15.14,.11,2.86,0,5.73-.33,8.58-.02,.15,.22,.15,.23,0,1.29-11.15-.85-22.64-6.1-32.56-.5-.95-.99-1.79-2.03-2.22-.65-.27-1.45-.26-1.58,.57-.02,.15,.2,.21,.22,.06h0Z"/><path class="b" d="M955.29,445.08c-.69-1.73-1.39-3.47-2.08-5.2-.05-.14-.28-.08-.22,.06,.69,1.73,1.39,3.47,2.08,5.2,.05,.14,.28,.08,.22-.06h0Z"/><path class="b" d="M946.97,434.67c3.54,8.17,5.78,16.9,6.61,25.77,.23,2.51,.35,5.03,.36,7.55,0,.15,.23,.15,.23,0-.03-8.98-1.49-17.93-4.33-26.45-.79-2.37-1.68-4.7-2.67-6.98-.06-.14-.26-.02-.2,.12h0Z"/><path class="b" d="M963.47,425.38c5.23,5.93,8.48,13.53,9.22,21.4,.21,2.21,.21,4.44,.02,6.65-.01,.15,.22,.15,.23,0,.68-7.93-1.24-16.02-5.36-22.83-1.15-1.91-2.48-3.71-3.95-5.38-.1-.11-.26,.05-.16,.16h0Z"/><path class="b" d="M953.87,417.31c4.9,4.19,11.6,5.34,16.57,9.42,4.67,3.83,7.01,9.6,8.29,15.35,.76,3.39,1.19,6.84,1.55,10.28,.02,.15,.25,.15,.23,0-.62-5.96-1.42-12.07-3.88-17.6-1.18-2.66-2.79-5.15-4.89-7.18-2.3-2.22-5.13-3.69-8-5.02-3.37-1.55-6.86-2.98-9.71-5.42-.11-.1-.28,.07-.16,.16h0Z"/><path class="b" d="M957.14,417.63c6.23,1.19,12.84-2.68,14.84-8.7,.02-.06-.02-.13-.08-.14-3.62-.6-6.96-2.38-9.5-5.03-.66-.69-1.25-1.43-1.78-2.22-.24-.36-.47-.73-.68-1.12-.05-.1-.25-.38-.25-.46,.01-.3,.55-.43,.77-.55,2.07-1.05,4.13-2.09,6.2-3.14,2.12-1.07,4.24-2.15,6.35-3.22,1.71-.86,3.51-1.65,5.05-2.8,1.19-.89,2.2-2.04,2.57-3.5,.39-1.54,.05-3.14-.6-4.56-2.77-6-9.83-8.65-15.75-10.27-3.36-.91-6.77-1.63-10.11-2.59-3.31-.95-6.47-2.24-9.47-3.93-11.59-6.52-20.35-17.61-32.96-22.39-7.72-2.93-15.8-2.06-23.87-1.94-4.43,.07-8.78-.25-13.04-1.52-3.98-1.18-7.85-2.8-12.04-3-8.53-.42-16.5,3.88-24.54,6.05-8.53,2.3-17.43,3.25-26.26,2.82-2.18-.11-4.36-.3-6.53-.58-.15-.02-.15,.21,0,.23,7.82,.99,15.76,.89,23.55-.3,3.89-.59,7.74-1.45,11.5-2.58,3.78-1.13,7.45-2.58,11.22-3.72,3.78-1.14,7.72-1.97,11.69-1.66,3.94,.31,7.6,1.84,11.35,2.96,7.55,2.25,15.29,1.28,23.04,1.26,3.81-.01,7.63,.28,11.31,1.34,2.91,.84,5.68,2.1,8.3,3.6,5.39,3.08,10.16,7.12,14.99,10.99,4.66,3.74,9.44,7.43,14.85,10.02,5.58,2.67,11.68,3.66,17.59,5.32,5.75,1.61,12.72,4.38,15.16,10.36,.73,1.8,.84,3.83-.24,5.52-.92,1.44-2.44,2.37-3.91,3.15-3.57,1.91-7.23,3.67-10.84,5.5-1.86,.94-3.72,1.88-5.58,2.83-.06,.03-.07,.11-.04,.16,1.95,3.86,5.36,6.89,9.43,8.38,.53,.19,1.07,.36,1.62,.5,.25,.06,.51,.12,.77,.17,.41,.08,.45,.05,.41,.43-.06,.5-.49,1.16-.74,1.61-.25,.45-.54,.89-.84,1.31-1.35,1.83-3.2,3.28-5.26,4.21-2.36,1.07-4.99,1.44-7.54,.95-.15-.03-.21,.2-.06,.22h0Z"/><path class="b" d="M941.14,470.35c.18,5.32-.71,10.65-2.6,15.63-.96,2.52-2.17,4.95-3.62,7.22-1.43,2.25-3.13,4.28-4.86,6.3-2.87,3.35-6.13,7.1-6.49,11.7-.27,3.4,.96,7.51,4.21,9.15,.85,.43,1.76,.61,2.7,.68,1.37,.11,2.83,.06,3.96,.97,1.7,1.36,1.7,3.91,1.96,5.88,.27,2.04,.84,3.83,2.28,5.35,1.63,1.73,3.79,2.88,5.86,3.99,9.83,5.3,20.47,9.1,31.44,11.24,9.03,1.76,18.35,1.79,27.27,4.14,3.9,1.03,7.79,2.55,10.94,5.13,3.24,2.66,5.5,6.42,6.09,10.59,.67,4.68-.71,9.46-3.09,13.48-2.55,4.31-6.26,7.64-10.58,10.12-4.6,2.64-9.69,4.31-14.81,5.63-5.57,1.44-11.21,2.6-16.82,3.85-12.16,2.71-24.33,5.43-36.49,8.14-2.99,.67-5.98,1.33-8.97,2-2.62,.59-5.25,1.22-7.76,2.19-4.39,1.69-8.43,4.56-10.3,9.03-.84,2.01-1.11,4.19-.65,6.33,.03,.15,.26,.08,.22-.06-1.11-5.19,2.23-10.2,6.46-12.91,4.71-3.03,10.44-3.98,15.81-5.17,12.16-2.71,24.33-5.43,36.49-8.14,5.84-1.3,11.69-2.58,17.53-3.92,5.03-1.16,10.06-2.45,14.82-4.48,4.5-1.92,8.81-4.53,12.11-8.19,2.96-3.29,5.19-7.36,6.06-11.72,.82-4.11,.29-8.37-1.8-12.04-1.86-3.26-4.76-5.72-8.07-7.42-7.32-3.77-15.94-4.38-23.98-5.25-11.19-1.22-22.12-3.88-32.5-8.29-2.55-1.08-5.05-2.26-7.51-3.52-2.3-1.19-4.74-2.37-6.72-4.07-.97-.83-1.82-1.82-2.34-3-.45-1.02-.62-2.12-.76-3.22-.22-1.73-.28-3.73-1.37-5.18-1.46-1.95-3.88-1.39-5.97-1.85-1.98-.44-3.5-1.87-4.4-3.65-.93-1.83-1.25-3.96-1.05-5.98,.23-2.41,1.35-4.63,2.68-6.61,1.46-2.17,3.22-4.11,4.91-6.1,1.63-1.92,3.13-3.93,4.41-6.1,2.6-4.41,4.34-9.31,5.12-14.37,.38-2.47,.52-4.97,.44-7.46,0-.15-.24-.15-.23,0h0Z"/><path class="b" d="M851.95,571.34c7.72,5.75,14.56,12.66,20.28,20.4,5.67,7.67,10.27,16.15,13.56,25.11,1.84,5.01,3.27,10.18,4.27,15.42,.03,.15,.25,.08,.22-.06-1.79-9.43-4.99-18.57-9.42-27.09-4.42-8.51-10.06-16.4-16.71-23.32-3.73-3.88-7.77-7.45-12.09-10.67-.12-.09-.24,.11-.12,.2h0Z"/><path class="b" d="M865.79,610.75c2.85,.15,4.27,3.25,5.11,5.57,1.13,3.1,2.1,6.27,2.91,9.47,1.64,6.43,2.65,13.01,3.15,19.62,1.01,13.28,0,26.65-1.98,39.79-1.11,7.39-2.54,14.73-4.14,22.03-.03,.15,.19,.21,.22,.06,2.92-13.36,5.29-26.88,6.17-40.54,.86-13.45,.23-27.09-3-40.22-.9-3.64-1.95-7.27-3.3-10.78-.88-2.29-2.38-5.1-5.15-5.25-.15,0-.15,.23,0,.23h0Z"/><path class="b" d="M863.75,702.06c4.19-12.36,4.76-25.87,1.73-38.56-.86-3.6-2.01-7.12-3.44-10.54-.06-.14-.28-.08-.22,.06,5.05,12.06,6.56,25.53,4.38,38.42-.61,3.58-1.5,7.11-2.66,10.55-.05,.14,.18,.2,.22,.06h0Z"/><path class="b" d="M852.73,640.44c2.91,7.3,5.09,14.89,6.49,22.63,1.41,7.76,2.04,15.66,1.89,23.55-.09,4.45-.43,8.88-1.02,13.29-.02,.15,.21,.15,.23,0,1.05-7.83,1.3-15.76,.77-23.64-.53-7.85-1.84-15.66-3.91-23.25-1.17-4.29-2.58-8.51-4.23-12.64-.05-.14-.28-.08-.22,.06h0Z"/><path class="b" d="M854.49,695.78c-.68-5.9-1.37-11.79-2.05-17.69-.02-.15-.25-.15-.23,0,.68,5.9,1.37,11.79,2.05,17.69,.02,.15,.25,.15,.23,0h0Z"/><path class="b" d="M842.15,664.43c5.39,11.65,8.2,24.46,8.21,37.3,0,3.56-.21,7.12-.63,10.66-.02,.15,.22,.15,.23,0,1.53-12.78,.25-25.86-3.71-38.11-1.1-3.4-2.41-6.73-3.91-9.97-.06-.14-.26-.02-.2,.12h0Z"/><path class="b" d="M817.02,661.26c6.51,10.74,11.81,22.17,15.92,34.04,4.07,11.75,6.98,23.88,8.91,36.16,1.96,12.48,2.9,25.1,3.04,37.72,.14,12.72-.54,25.45-1.85,38.1-1.32,12.68-3.28,25.29-5.76,37.8-.31,1.55-.62,3.09-.94,4.63-.03,.15,.19,.21,.22,.06,2.59-12.43,4.69-24.97,6.17-37.58,1.49-12.75,2.36-25.58,2.41-38.42,.05-12.61-.67-25.24-2.38-37.74-1.7-12.43-4.38-24.74-8.22-36.69-3.81-11.85-8.77-23.33-14.93-34.15-.78-1.36-1.58-2.72-2.39-4.06-.08-.13-.28-.01-.2,.12h0Z"/><path class="b" d="M800.11,678.19c5.46,5.02,10.13,10.87,13.79,17.31,1.03,1.81,1.97,3.66,2.84,5.54,.06,.14,.26,.02,.2-.12-3.09-6.72-7.21-12.96-12.2-18.42-1.42-1.56-2.91-3.05-4.47-4.48-.11-.1-.28,.06-.16,.16h0Z"/><path class="b" d="M804.51,706.02c5.22,4.72,9.84,10.09,13.72,15.96,3.87,5.84,7.02,12.16,9.34,18.76,1.3,3.71,2.34,7.51,3.11,11.37,.03,.15,.25,.08,.22-.06-1.38-6.89-3.62-13.6-6.66-19.93-3.02-6.31-6.82-12.24-11.29-17.62-2.55-3.07-5.32-5.96-8.29-8.64-.11-.1-.28,.06-.16,.16h0Z"/><path class="b" d="M783.93,713.2c10.16,12.64,25.71,18.77,38.18,28.63,6.7,5.3,12.15,11.77,15.39,19.74,3.5,8.6,4.56,17.96,4.93,27.17,.4,10.02,.26,20.09,.18,30.12-.08,10.63-.34,21.27-1.1,31.88-1.46,20.41-4.94,40.65-11.99,59.91-6.56,17.91-15.83,34.82-27.44,49.96-1.49,1.94-3.02,3.85-4.58,5.74-.1,.11,.07,.28,.16,.16,12.11-14.59,22-31,29.25-48.52,7.76-18.77,12.12-38.6,14.11-58.78,2.1-21.26,2.08-42.76,1.8-64.11-.12-9.17-.58-18.46-3-27.35-2.25-8.26-6.39-15.69-12.53-21.69-11.65-11.39-27.55-17.16-39.18-28.58-1.42-1.4-2.76-2.88-4.01-4.43-.09-.12-.26,.05-.16,.16h0Z"/><path class="b" d="M248.31,865.08c6.87,11.85,12.15,24.61,15.65,37.86,.99,3.74,1.83,7.51,2.53,11.31,.03,.15,.25,.08,.22-.06-2.5-13.49-6.8-26.63-12.77-38.99-1.68-3.48-3.5-6.9-5.44-10.24-.08-.13-.28-.01-.2,.12h0Z"/><path class="b" d="M257.89,865.54c5.72,10.84,10.11,22.38,13.01,34.29,.82,3.38,1.52,6.78,2.11,10.21,.03,.15,.25,.08,.22-.06-2.07-12.11-5.63-23.94-10.6-35.18-1.4-3.18-2.92-6.31-4.54-9.38-.07-.13-.27-.02-.2,.12h0Z"/><path class="b" d="M281.27,915.26v-17.68c0-.15-.23-.15-.23,0v17.68c0,.15,.23,.15,.23,0h0Z"/><path class="b" d="M285.26,913.18c.23,2.11,1.14,4.05,2.62,5.57,.05,.06,.14,.04,.18-.02,4.16-6.69,7.72-13.74,10.63-21.05,.83-2.08,1.6-4.19,2.33-6.31,.05-.14-.18-.2-.22-.06-2.55,7.47-5.75,14.71-9.58,21.6-1.07,1.93-2.19,3.83-3.36,5.7l.18-.02c-1.43-1.47-2.33-3.36-2.55-5.41-.02-.15-.25-.15-.23,0h0Z"/><path class="b" d="M305.87,866.38c.42,8.37,.58,16.75,.47,25.13-.11,8.42-.48,16.83-1.11,25.23-.36,4.71-.8,9.42-1.32,14.12-.02,.15,.22,.15,.23,0,.92-8.33,1.59-16.69,1.99-25.06,.41-8.41,.55-16.83,.42-25.25-.07-4.73-.22-9.45-.46-14.18,0-.15-.24-.15-.23,0h0Z"/><path class="b" d="M305.61,932.07c2.58-7.75,4.62-15.68,6.1-23.71,1.46-7.93,2.38-15.97,2.74-24.03,.21-4.59,.23-9.2,.08-13.79,0-.15-.24-.15-.23,0,.27,8.09-.02,16.2-.86,24.25-.85,8.11-2.27,16.17-4.23,24.08-1.1,4.43-2.37,8.81-3.81,13.14-.05,.14,.18,.2,.22,.06h0Z"/><path class="b" d="M312.75,847.61c1.73,11.58,3.08,23.21,4.03,34.87,.95,11.6,1.51,23.23,1.67,34.87,.1,6.58,.06,13.17-.09,19.75,0,.15,.23,.15,.23,0,.27-11.71,.16-23.43-.36-35.14-.51-11.7-1.42-23.39-2.73-35.03-.72-6.48-1.57-12.94-2.54-19.39-.02-.15-.25-.08-.22,.06h0Z"/><path class="b" d="M316.98,938.47c3.27-4.66,5.13-10.1,6.43-15.59,1.41-5.99,2.36-12.11,3.14-18.22,1.62-12.74,2.2-25.59,2.26-38.42,.03-7.24-.1-14.48-.32-21.72,0-.15-.24-.15-.23,0,.37,12.73,.51,25.48-.09,38.21-.59,12.64-1.86,25.32-4.46,37.71-1.32,6.29-3.2,12.6-6.93,17.92-.09,.12,.12,.24,.2,.12h0Z"/><path class="b" d="M445.53,836.67c-12.19,1.47-24.25,3.99-36.01,7.54-5.73,1.73-11.43,3.66-16.98,5.93-4.35,1.78-8.75,3.97-12.05,7.4-3.44,3.57-5.06,8.33-4.56,13.26,.54,5.37,3.1,10.37,5.76,14.98,2.88,4.98,6,9.8,8.59,14.95,2.65,5.27,4.94,10.73,6.96,16.27,4.03,11.05,7.03,22.43,9.91,33.82,.35,1.37,.69,2.74,1.03,4.11,.04,.15,.26,.08,.22-.06-2.82-11.23-5.65-22.47-9.36-33.44-1.82-5.38-3.86-10.69-6.2-15.87-2.36-5.2-5.07-10.19-8.05-15.06-5.25-8.58-12.6-20.08-6.32-30.04,2.57-4.07,6.8-6.74,11.06-8.76,5.13-2.43,10.59-4.26,15.99-6.01,11.53-3.73,23.38-6.48,35.38-8.19,1.54-.22,3.07-.42,4.61-.61,.15-.02,.15-.25,0-.23h0Z"/><path class="b" d="M336.28,909.01c1.1,13.5,1.43,27.06,.99,40.6-.12,3.82-.31,7.64-.56,11.45,0,.15,.22,.15,.23,0,.87-13.52,.98-27.08,.32-40.61-.19-3.82-.44-7.63-.75-11.44-.01-.15-.25-.15-.23,0h0Z"/><path class="b" d="M348.01,906.91c.75,8.65,1.34,17.31,1.78,25.99,.43,8.63,.71,17.27,.82,25.92,.07,4.9,.08,9.8,.05,14.7,0,.15,.23,.15,.23,0,.06-8.68-.04-17.37-.29-26.04-.25-8.64-.67-17.28-1.24-25.9-.32-4.89-.7-9.78-1.12-14.66-.01-.15-.25-.15-.23,0h0Z"/><path class="b" d="M356.03,921.51c1.41-7.97,2.82-15.94,4.22-23.91,.03-.15-.2-.21-.22-.06-1.41,7.97-2.82,15.94-4.22,23.91-.03,.15,.2,.21,.22,.06h0Z"/><path class="b" d="M361.92,888.18c.54,12.06,.98,24.13,1.33,36.2,.34,12.03,.59,24.06,.73,36.1,.08,6.77,.13,13.54,.15,20.32,0,.15,.23,.15,.23,0-.04-12.07-.17-24.15-.4-36.22-.23-12.03-.56-24.06-.99-36.09-.24-6.77-.51-13.53-.82-20.3,0-.15-.24-.15-.23,0h0Z"/><path class="b" d="M549.45,921.77c7.72,1.99,15.76,2.67,23.71,1.98,2.21-.19,4.41-.49,6.6-.89,.15-.03,.08-.25-.06-.22-7.81,1.43-15.85,1.53-23.69,.28-2.18-.35-4.35-.8-6.49-1.36-.15-.04-.21,.19-.06,.22h0Z"/><path class="b" d="M601.73,924.47c3.14,2.05,6.94,2.35,10.58,1.97,4.19-.44,8.31-1.58,12.4-2.53,4.6-1.07,9.2-2.15,13.78-3.29,4.54-1.13,9.05-2.38,13.58-3.54,4.51-1.15,9.03-1.93,13.7-1.77,4.64,.16,9.21,.99,13.78,1.75,4.37,.72,8.77,1.36,13.21,1.35,4.32-.01,8.62-.54,12.84-1.44,8.67-1.84,16.94-5.15,25.03-8.71,1.01-.44,2.01-.89,3.01-1.34,.14-.06,.02-.26-.12-.2-8.09,3.63-16.3,7.12-24.92,9.31-4.24,1.08-8.57,1.82-12.94,2.06-4.52,.25-8.99-.16-13.45-.84-4.36-.67-8.7-1.53-13.1-1.95-4.39-.42-8.72-.26-13.04,.62-4.5,.91-8.9,2.26-13.35,3.4-4.53,1.16-9.08,2.26-13.63,3.33-4.31,1.01-8.61,2.1-12.95,2.96-3.79,.75-7.9,1.25-11.63-.04-.94-.32-1.82-.76-2.65-1.3-.13-.08-.24,.12-.12,.2h0Z"/><path class="b" d="M785.35,849.76c-.49,15.3-1.49,30.59-3.01,45.82-1.53,15.37-3.59,30.68-6.16,45.91-2.55,15.1-5.61,30.11-9.17,45-3.56,14.89-7.62,29.66-12.17,44.28-4.55,14.62-9.6,29.08-15.13,43.36-.7,1.81-1.41,3.62-2.13,5.42-.06,.14,.17,.2,.22,.06,5.68-14.3,10.87-28.78,15.56-43.43,4.69-14.65,8.89-29.45,12.58-44.39,3.69-14.93,6.88-29.99,9.56-45.14,2.65-15.02,4.81-30.12,6.45-45.28,1.65-15.22,2.79-30.5,3.4-45.79,.08-1.94,.15-3.88,.21-5.82,0-.15-.23-.15-.23,0h0Z"/><path class="b" d="M524.22,870.62c3.09,13.74,6.07,27.5,8.96,41.28,2.9,13.85,5.69,27.72,8.39,41.62,2.68,13.82,5.26,27.67,7.73,41.53,2.47,13.86,4.85,27.74,7.12,41.64,2.28,13.97,4.46,27.95,6.53,41.95,.26,1.73,.51,3.47,.76,5.2,.02,.15,.25,.08,.22-.06-2.04-13.93-4.18-27.85-6.42-41.75-2.25-13.97-4.61-27.93-7.07-41.86-2.45-13.87-5-27.72-7.65-41.55-2.65-13.83-5.41-27.64-8.27-41.43-2.87-13.86-5.85-27.69-8.93-41.51-.38-1.71-.76-3.42-1.15-5.13-.03-.15-.26-.08-.22,.06h0Z"/><path class="b" d="M654.5,1074.49c.66,.63,1.32,1.26,1.98,1.9,.07,.07,.16,.03,.19-.05,4.51-10.78,8.7-21.71,12.55-32.74,3.84-11,7.34-22.12,10.5-33.34,1.78-6.32,3.45-12.68,5.02-19.06,.04-.15-.19-.21-.22-.06-2.78,11.35-5.91,22.62-9.38,33.79-3.46,11.13-7.26,22.15-11.39,33.05-2.33,6.14-4.76,12.25-7.3,18.31l.19-.05c-.66-.63-1.32-1.26-1.98-1.9-.11-.1-.27,.06-.16,.16h0Z"/><path class="b" d="M698.15,919.42v4.16c0,.15,.23,.15,.23,0v-4.16c0-.15-.23-.15-.23,0h0Z"/><path class="b" d="M703.9,1036.08c4.01-10.23,7.83-20.53,11.48-30.89,3.64-10.36,7.1-20.79,10.38-31.28,3.28-10.49,6.37-21.03,9.27-31.62,2.9-10.59,5.62-21.24,8.15-31.93,2.53-10.69,4.87-21.43,7.02-32.2,.27-1.37,.54-2.73,.81-4.1,.03-.15-.18-.21-.22-.06-.5,1.63-1,3.26-1.49,4.89-.04,.14,.18,.21,.22,.06,.5-1.63,1-3.26,1.49-4.89l-.22-.06c-2.1,10.78-4.39,21.53-6.87,32.23-2.48,10.7-5.15,21.36-8.01,31.97-2.86,10.61-5.9,21.16-9.13,31.66-3.23,10.5-6.64,20.94-10.24,31.32-3.6,10.38-7.38,20.7-11.34,30.94-.5,1.3-1.01,2.6-1.52,3.89-.05,.14,.17,.2,.22,.06h0Z"/><path class="b" d="M618.18,1052.55c1.83-15.49,2.91-31.07,3.23-46.67,.32-15.6-.12-31.21-1.31-46.76-.67-8.75-1.58-17.49-2.73-26.19-.02-.15-.25-.15-.23,0,2.04,15.47,3.33,31.03,3.87,46.62,.53,15.59,.31,31.21-.67,46.77-.55,8.76-1.35,17.51-2.38,26.23-.02,.15,.22,.15,.23,0h0Z"/><path class="b" d="M594.4,1045.28c-.04-10.97-.27-21.95-.71-32.91-.44-10.96-1.07-21.92-1.9-32.86-.47-6.16-1-12.32-1.6-18.48-.01-.15-.25-.15-.23,0,1.06,10.92,1.92,21.86,2.58,32.82,.66,10.95,1.12,21.92,1.38,32.89,.15,6.18,.23,12.36,.25,18.54,0,.15,.23,.15,.23,0h0Z"/><path class="b" d="M380.33,723.46c4.38,4.83,7.56,10.69,9.22,17,.04,.14,.26,.08,.22-.06-1.67-6.35-4.87-12.24-9.28-17.1-.1-.11-.27,.05-.16,.16h0Z"/><path class="b" d="M374.3,730.52c4.95,6.03,8.12,13.46,9.1,21.2,.27,2.16,.37,4.34,.3,6.51,0,.15,.23,.15,.23,0,.26-7.82-1.74-15.66-5.67-22.42-1.12-1.92-2.39-3.74-3.79-5.45-.1-.12-.26,.05-.16,.16h0Z"/><path class="b" d="M364.83,740.99c6.19,7.88,10.2,17.41,11.56,27.34,.39,2.85,.55,5.72,.5,8.6,0,.15,.23,.15,.23,0,.18-10.13-2.41-20.25-7.41-29.06-1.4-2.46-2.98-4.81-4.73-7.04-.09-.12-.26,.05-.16,.16h0Z"/><path class="b" d="M363.17,748.88c1.96,7.97,3.49,16.05,4.56,24.18,.31,2.32,.58,4.64,.81,6.96,.02,.15,.25,.15,.23,0-.83-8.19-2.1-16.33-3.82-24.38-.49-2.29-1.01-4.56-1.57-6.83-.04-.15-.26-.08-.22,.06h0Z"/><path class="b" d="M355.43,755.28c3.28,9.6,5.42,19.58,6.33,29.69,.26,2.86,.42,5.72,.49,8.59,0,.15,.24,.15,.23,0-.24-10.16-1.68-20.29-4.31-30.11-.74-2.77-1.58-5.52-2.51-8.23-.05-.14-.27-.08-.22,.06h0Z"/><path class="b" d="M342.33,772.77c.83,8.01,.18,16.13-1.91,23.91-.04,.14,.19,.21,.22,.06,2.1-7.79,2.75-15.94,1.92-23.97-.02-.15-.25-.15-.23,0h0Z"/><path class="b" d="M344.57,807.18c2.81,.79,5.36-.03,8.13-.61,2.95-.62,8.36-.68,8.9,3.39,.5,3.74-5.14,6.4-7.67,8.17l-9.15,6.41c-.1,.07-.06,.21,.06,.22,33.61,2.17,66.99,7.19,100.66,8.39,33.9,1.21,67.87-.41,101.75-1.37,33.86-.96,67.73-1.89,101.55-3.92,33.06-1.98,66.11-4.98,98.78-10.56,14.6-2.5,30.52-4.47,43.68-11.71,5.39-2.96,10.23-7.02,13.76-12.08,1.68-2.41,3.04-5.04,3.95-7.84,.92-2.83,1.09-5.72,1.62-8.62,.55-2.99,1.55-6.52,5-7.09,.12-.02,.1-.2,0-.22-5.51-1.46-7.26-7.75-7.07-12.83,.22-5.85,2.66-11.7,1.12-17.56-1.15-4.36-4.43-7.61-8.07-10.08-4.61-3.13-9.81-5.51-14.85-7.87-21.77-10.18-45.18-16.81-69.04-19.64-13.67-1.62-27.47-1.97-41.2-1.07-.15,0-.15,.24,0,.23,23.4-1.53,46.99,.61,69.73,6.33,11.43,2.87,22.63,6.63,33.47,11.26,5.29,2.26,10.5,4.72,15.6,7.39,4.62,2.41,9.59,5.15,12.44,9.68,5.84,9.26-2.69,20.19,2.23,29.75,.66,1.28,1.55,2.46,2.71,3.32,.35,.26,1.86,.76,2.01,1.07,.25,.52,.75-.54-.19,.26-.21,.18-.69,.3-.92,.45-2.7,1.75-3.15,5.82-3.53,8.69-.69,5.1-2.09,9.69-5.02,13.99-3.06,4.5-7.22,8.26-11.84,11.11-9.95,6.12-21.69,8.39-33.01,10.57-49.93,9.63-100.88,12.81-151.61,14.82-25.55,1.01-51.11,1.67-76.67,2.39-25.67,.73-51.37,1.71-77.06,1.2-25.65-.51-51.12-3.25-76.62-5.79-6.18-.62-12.35-1.21-18.54-1.74-3.09-.26-6.18-.51-9.28-.74-.36-.03-4.56-.1-4.64-.32-.27-.72,2.91-2.49,3.52-2.92,2.32-1.62,4.64-3.25,6.95-4.87,1.63-1.14,3.64-2.28,4.8-3.96,1.75-2.54,.45-5.21-2.23-6.3-4.73-1.92-9.39,1.76-14.18,.42-.14-.04-.21,.18-.06,.22h0Z"/><path class="b" d="M823.14,817.47c3.05,6.51,5.19,13.44,6.37,20.54,1.17,7.09,1.39,14.35,.63,21.49-.43,4.04-1.18,8.05-2.24,11.97-.04,.14,.19,.21,.22,.06,1.87-6.97,2.77-14.18,2.68-21.39-.09-7.24-1.15-14.48-3.18-21.43-1.13-3.89-2.57-7.69-4.29-11.36-.06-.14-.26-.02-.2,.12h0Z"/><path class="b" d="M826.47,777.17c2.98,8.84,5.3,17.89,6.93,27.07,.47,2.66,.89,5.33,1.24,8.01,.02,.15,.25,.15,.23,0-1.24-9.29-3.17-18.48-5.78-27.49-.75-2.57-1.55-5.12-2.4-7.66-.05-.14-.27-.08-.22,.06h0Z"/><path class="b" d="M824.81,761.56c5.24,7.17,8.5,15.73,9.38,24.57,.25,2.47,.31,4.95,.18,7.43,0,.15,.23,.15,.23,0,.44-8.85-1.52-17.76-5.58-25.63-1.17-2.26-2.51-4.43-4.02-6.48-.09-.12-.29,0-.2,.12h0Z"/><path class="b" d="M904.52,676.66c9.48,6.79,18.66,13.99,27.52,21.58,8.81,7.54,17.3,15.46,25.44,23.73,4.59,4.66,9.06,9.43,13.41,14.31,.1,.11,.26-.05,.16-.16-7.78-8.7-15.92-17.07-24.42-25.07-8.49-8-17.33-15.64-26.48-22.88-5.08-4.02-10.25-7.92-15.52-11.69-.12-.09-.24,.11-.12,.2h0Z"/><path class="b" d="M925.64,633.18c20.22,10.87,35.33,28.52,49.95,45.77,7.44,8.78,14.87,17.59,23.04,25.7,8.78,8.73,19.32,16.06,26.35,26.4,3.46,5.09,5.99,10.76,9.68,15.71,3.36,4.5,7.72,7.95,12.83,10.28,11.32,5.16,23.96,4.72,36.1,4.41,7.27-.19,14.53-.23,21.73,.88,6.75,1.04,13.35,2.86,19.81,5.06,13.17,4.48,25.93,10.21,38.77,15.52,11.24,4.65,23.2,8.76,33.21,15.84,4.61,3.26,8.81,7.3,11.65,12.22,.77,1.33,.92,4.28,2.6,4.92,.91,.35,1.39-.54,1.38-1.37,0-.65-.36-1.15-.88-.49-.09,.12,.07,.28,.16,.16,.48-.61,.54,.32,.45,.67-.2,.81-.85,1.09-1.53,.45-.92-.86-1-2.33-1.45-3.44-.88-2.15-2.52-4.16-4.01-5.91-3.34-3.93-7.48-7.11-11.87-9.78-9.9-6.02-21.07-9.94-31.74-14.36-12.39-5.13-24.71-10.65-37.44-14.91-6.13-2.05-12.39-3.76-18.79-4.76-6.57-1.03-13.18-1.13-19.81-.98-12.34,.27-25.13,1.07-36.81-3.71-5.56-2.28-10.39-5.81-14.02-10.61-3.57-4.73-6.05-10.15-9.29-15.1-6.53-9.98-16.36-17.05-24.85-25.22-7.91-7.62-15.1-15.94-22.2-24.3-13.91-16.37-27.8-33.44-46.05-45.2-2.23-1.44-4.52-2.78-6.86-4.04-.13-.07-.25,.13-.12,.2h0Z"/><path class="b" d="M825.12,942.22c23.5,6.03,47.87,3.67,71.5-.32,12.19-2.06,24.29-4.54,36.48-6.62,12.77-2.18,25.57-3.72,38.51-4.33,25.4-1.19,50.97,.24,76.24-3.09,20.09-2.65,40.35-8.41,57.26-19.9,4.14-2.81,8.05-5.96,11.64-9.45,3.84-3.73,6.96-8.13,10.86-11.78,3.61-3.38,7.99-4.91,12.41-6.89,3.08-1.38,6.48-3.15,7.87-6.43,1.65-3.92-.39-7.78-2.22-11.22-1.09-2.03-2.24-4.13-2.6-6.44-.49-3.09,.98-5.73,2.08-8.51,3.61-9.07-1.16-18.19-7.78-24.44-7.85-7.41-18.29-11.09-28.64-13.45-11.56-2.63-23.42-3.44-35.22-4.25-26.38-1.81-52.75-3.61-79.13-5.41-23.39-1.6-46.88-3.94-70.35-3.64-20.72,.26-42,2.88-60.8,12.15-4.6,2.27-8.99,4.93-13.14,7.95-.12,.09,0,.29,.12,.2,17.06-12.41,37.79-17.7,58.56-19.38,21.77-1.76,43.62,.08,65.35,1.57,25.62,1.75,51.25,3.51,76.87,5.26,12.39,.85,24.81,1.5,37.17,2.68,11.78,1.12,23.63,3.01,34.66,7.47,9.45,3.82,19.21,10.94,22.46,21.04,.74,2.28,1.08,4.71,.87,7.11-.24,2.74-1.26,5.1-2.31,7.61-.85,2.05-1.37,4.09-.97,6.31,.37,2.02,1.32,3.89,2.27,5.69,2.12,4.01,4.73,8.69,1.76,13-2.38,3.45-6.94,4.91-10.62,6.46-4.35,1.84-7.89,4.18-11.09,7.69-3.46,3.78-6.64,7.73-10.43,11.19-15.23,13.92-35.11,21.63-55.11,25.62-23.75,4.74-48.11,4.15-72.2,4.56-12.58,.22-25.16,.73-37.65,2.29-11.85,1.48-23.59,3.7-35.32,5.9-23.6,4.42-47.71,9-71.82,6.64-5.9-.58-11.74-1.6-17.48-3.07-.15-.04-.21,.19-.06,.22h0Z"/><path class="b" d="M996.39,793.33c8.37-6.57,18.18-11.26,28.55-13.62,5.8-1.32,11.73-1.89,17.65-2.35,6.01-.46,12.03-.89,18.04-1.33,6.81-.5,13.62-1,20.43-1.5,.15-.01,.15-.24,0-.23-12.3,.9-24.6,1.79-36.9,2.7-5.9,.44-11.81,.93-17.61,2.11-5.19,1.05-10.25,2.68-15.08,4.84-5.44,2.43-10.57,5.53-15.25,9.2-.12,.09,.05,.26,.16,.16h0Z"/><path class="b" d="M1139,814.5c28.05-10.29,58.46-3.82,86.09,4.57,14.67,4.45,29.18,9.43,43.74,14.22l45.03,14.8c12.35,4.06,28.17,7.61,34.23,20.56,1.38,2.94,2.14,6.22,1.88,9.48-.12,1.47-.45,2.93-1,4.3-.58,1.45-1.5,2.86-1.63,4.45-.23,2.83,2.48,4.62,4.45,6.12,2.66,2.02,5.44,3.92,7.89,6.2,4.64,4.32,8.72,11.94,4.55,17.95-2.76,3.98-7.94,5.15-12.31,6.43-3.78,1.11-8.08,2.37-10.45,5.77-3.8,5.44-.03,12.25-1.12,18.22-1.01,5.53-5.54,9.26-10.32,11.66-5.63,2.83-11.88,4.15-17.97,5.59-14.64,3.46-29.43,6.26-44.32,8.37-29.95,4.25-60.28,5.75-90.51,4.5-15.03-.62-30.03-1.93-44.94-3.91-7.62-1.01-15.21-2.21-22.77-3.58-5.29-.96-10.78-2.34-15.28-5.4-2.29-1.55-4.29-3.62-5.34-6.22-.21-.52-.39-1.07-.52-1.62-.23-.96,.15-.84,.97-.79,1.56,.11,3.13,.16,4.7,.15,6.07-.02,12.13-.86,17.99-2.43,11.65-3.13,22.53-9.18,31.23-17.55,17.69-17.03,24.99-43.51,19.2-67.29-1.28-5.25-4.12-11.09-2.68-16.59,.32-1.21,.9-2.34,1.81-3.21,1.13-1.08,2.63-1.35,3.85-2.25,2.06-1.53,1.08-4.14-.02-5.95-3.34-5.49-7.63-10.58-12.08-15.19-4.51-4.66-9.47-8.9-14.79-12.61-.18-.12-1.94-1.17-1.91-1.3,.09-.39,1.96-.49,2.35-.55,1.93-.28,3.88-.43,5.82-.43,3.75,0,7.46,.52,11.07,1.51,.14,.04,.21-.18,.06-.22-6.47-1.78-13.23-1.97-19.78-.57-.1,.02-.11,.16-.03,.21,6.17,4.08,11.9,8.81,17.04,14.13,2.47,2.55,4.8,5.23,6.98,8.03,1.13,1.45,2.23,2.93,3.28,4.44,1.07,1.55,2.42,3.2,2.87,5.06,.62,2.57-1.26,3.4-3.17,4.36-1.02,.51-1.89,1.21-2.54,2.15-1.36,1.97-1.51,4.52-1.31,6.83,.24,2.74,.98,5.4,1.79,8.01,.99,3.19,1.76,6.45,2.28,9.75,2.15,13.75,.13,28.13-5.64,40.78-5.63,12.35-14.85,22.72-26.39,29.86-12.86,7.95-28.16,11.81-43.25,10.54-.08,0-.12,.08-.11,.15,1.18,7.19,8.17,10.85,14.52,12.79,4.3,1.31,8.77,1.98,13.19,2.72,5.35,.9,10.71,1.71,16.08,2.43,21.42,2.88,43.02,4.35,64.63,4.41,21.69,.06,43.38-1.29,64.89-4.05,10.59-1.36,21.14-3.06,31.62-5.1,5.41-1.05,10.8-2.2,16.17-3.43,4.73-1.09,9.52-2.12,14.16-3.58,6.42-2.02,13.93-5.35,16.64-12.03,1.69-4.19,.56-8.52,.21-12.84-.36-4.4,.87-8.32,4.74-10.69,5.44-3.32,12.53-3.1,17.58-7.16,6.69-5.39,3.28-14.7-1.88-19.79-3.36-3.31-7.55-5.6-10.99-8.79-1.16-1.08-2.02-2.32-1.92-3.97,.09-1.44,.89-2.71,1.44-4.01,.75-1.76,1.16-3.65,1.21-5.56,.23-8.52-5.56-15.8-12.48-20.08-3.94-2.44-8.28-4.15-12.64-5.67-5.1-1.77-10.26-3.4-15.39-5.09-10.91-3.59-21.82-7.17-32.73-10.76-10.82-3.56-21.64-7.11-32.47-10.67-10.1-3.32-20.21-6.63-30.48-9.4-19.66-5.3-40.48-8.86-60.77-5.26-4.89,.87-9.7,2.17-14.36,3.88-.14,.05-.08,.28,.06,.22h0Z"/><path class="b" d="M1088.18,637.54c-.21,7.88-.55,15.75-1.02,23.62-.48,7.87-1.09,15.73-1.83,23.57-.75,7.89-1.63,15.76-2.66,23.61-1.02,7.88-2.19,15.75-3.48,23.59-1.29,7.78-2.7,15.53-4.25,23.26-.19,.97-.39,1.93-.59,2.9-.03,.15,.19,.21,.22,.06,1.59-7.76,3.05-15.55,4.37-23.36,1.32-7.81,2.51-15.64,3.57-23.49,1.05-7.78,1.96-15.58,2.74-23.4,.79-7.88,1.44-15.78,1.95-23.68,.51-7.9,.89-15.82,1.13-23.74,.03-.98,.06-1.97,.08-2.95,0-.15-.23-.15-.23,0h0Z"/><path class="b" d="M1115.34,629.67c1.33,5.73,2.77,11.88,1.14,17.7-1.28,4.59-4.5,8.83-9.33,9.93-4.75,1.08-9.59-.58-14.37-.24-2.16,.15-4.24,.78-5.95,2.13-1.97,1.54-3.37,3.67-5.28,5.27-4.24,3.55-9.83,5.16-15.19,6.04-5.92,.97-11.96,.96-17.93,.58-5.99-.37-11.96-1.07-17.93-1.66-6.15-.61-12.29-1.2-18.44-1.77-6.2-.58-12.39-1.14-18.59-1.68-5.36-.47-10.95-1.16-16.24,.25-1.2,.32-2.35,.76-3.46,1.31-.13,.07-.02,.27,.12,.2,5.14-2.54,11.03-2.25,16.58-1.78,6.21,.52,12.41,1.09,18.61,1.67,6.29,.58,12.58,1.18,18.87,1.8,6.1,.6,12.19,1.3,18.3,1.76,5.99,.45,12.03,.62,18.01-.13,5.26-.66,10.71-1.93,15.24-4.79,2.21-1.4,3.88-3.24,5.65-5.14,1.79-1.92,3.81-3.26,6.43-3.68,4.78-.76,9.58,.94,14.38,.32,4.6-.59,8.06-3.75,9.9-7.91,2.2-4.97,1.74-10.53,.71-15.73-.3-1.51-.64-3.01-.99-4.51-.03-.15-.26-.08-.22,.06h0Z"/><path class="b" d="M1016.09,703.93c7.67-4.41,16.29-7.09,25.11-7.8,4.43-.36,8.8-.08,13.22,.31,4.35,.39,8.84,.73,13.1-.47,2.05-.58,3.93-1.57,5.83-2.51,2.04-1.01,4.12-1.82,6.35-2.29,4.37-.92,8.89-.69,13.3-.3,4.44,.38,8.89,.96,13.36,.87,3.85-.08,7.69-.7,11.38-1.79,7.36-2.17,14.16-6.22,19.51-11.73,.68-.7,1.33-1.43,1.97-2.17,.1-.11-.07-.28-.16-.16-5.11,6.03-11.86,10.59-19.32,13.19-3.71,1.29-7.59,2.1-11.51,2.35-4.37,.29-8.74-.18-13.09-.59-4.35-.41-8.76-.8-13.11-.27-2.09,.26-4.16,.73-6.13,1.5-2.01,.78-3.87,1.89-5.85,2.75-4.23,1.86-8.82,1.92-13.36,1.58-4.44-.33-8.84-.83-13.3-.64-8.51,.38-16.93,2.57-24.53,6.42-.97,.49-1.93,1.01-2.87,1.55-.13,.07-.01,.28,.12,.2h0Z"/><path class="b" d="M1096.04,608.76c6.66,7.45,12.11,15.92,16.31,24.99,4.22,9.11,7.18,18.78,9,28.64,1.89,10.26,2.5,20.71,2.03,31.13-.52,11.34-2.3,22.6-5.01,33.61-2.7,10.98-6.31,21.72-10.56,32.2-.52,1.29-1.06,2.58-1.6,3.86-.06,.14,.17,.2,.22,.06,4.45-10.55,8.29-21.36,11.23-32.43,2.9-10.94,4.92-22.14,5.72-33.43,.74-10.52,.42-21.11-1.21-31.54-1.54-9.9-4.22-19.63-8.14-28.86-3.89-9.17-9-17.83-15.35-25.51-.81-.98-1.64-1.94-2.48-2.88-.1-.11-.26,.05-.16,.16h0Z"/><path class="b" d="M1135.69,613.57c1.34,21.74,1.87,43.54,1.57,65.32-.3,21.67-1.42,43.34-3.35,64.93-1.08,12.1-2.42,24.18-4.01,36.23-.02,.15,.21,.15,.23,0,2.85-21.6,4.89-43.3,6.1-65.06,1.21-21.64,1.6-43.33,1.17-65-.24-12.15-.74-24.29-1.48-36.42,0-.15-.24-.15-.23,0h0Z"/><path class="b" d="M1160.5,606.3c1.06,10.7,2.1,21.4,2.94,32.11,.84,10.75,1.47,21.52,1.71,32.31,.23,10.65,.08,21.31-.66,31.94-.75,10.64-2.09,21.25-4.24,31.71-2.13,10.36-5.05,20.55-8.91,30.4-.48,1.22-.97,2.43-1.47,3.64-.06,.14,.17,.2,.22,.06,4.09-9.82,7.26-20.01,9.59-30.39,2.3-10.24,3.8-20.64,4.69-31.09,.92-10.7,1.2-21.44,1.07-32.17-.13-10.78-.69-21.55-1.47-32.3-.78-10.73-1.79-21.45-2.85-32.16-.13-1.35-.27-2.71-.4-4.06-.01-.15-.25-.15-.23,0h0Z"/><path class="b" d="M1189.1,582.65c3.15,14.37,4.89,29.04,5.18,43.76,.29,14.64-.84,29.31-3.39,43.73-2.48,14.02-6.53,27.65-10.6,41.27-4.02,13.42-8.06,26.9-10.37,40.75-2.17,13.07-2.68,26.52,.19,39.52,.37,1.69,.8,3.36,1.28,5.02,.04,.14,.27,.08,.22-.06-3.84-13.35-3.96-27.34-2-41.02,1.98-13.79,5.85-27.22,9.82-40.55,4.05-13.58,8.26-27.14,10.97-41.07,2.77-14.19,4.15-28.66,4.15-43.12,0-14.39-1.37-28.79-4.12-42.91-.35-1.8-.72-3.59-1.11-5.38-.03-.15-.26-.08-.22,.06h0Z"/><path class="b" d="M1229.31,540.82c.26,6.81,.52,13.61,.79,20.42,.26,6.69,.58,13.39,.77,20.08,.09,3.21-.11,6.4-1.54,9.32-1.25,2.54-3.15,4.71-5.13,6.71-4.13,4.16-8.56,8.05-13.12,11.72-9.11,7.34-18.96,13.76-29.36,19.14-2.61,1.35-5.26,2.64-7.94,3.86-2.59,1.18-5.25,2.21-7.85,3.36-1.98,.88-4.11,2.06-5.01,4.15-.58,1.34-.49,2.85-.99,4.21-.37,1.01-1.01,1.91-1.81,2.63-3.38,3.03-8.4,3.02-12.64,3.4-3.79,.34-8.62,1.32-10.87,4.75-.52,.79-.83,1.68-.96,2.62-.02,.15,.2,.21,.22,.06,.66-4.66,5.81-6.36,9.83-6.98,2.2-.34,4.43-.33,6.63-.64,2.09-.29,4.22-.78,6.1-1.77,1.7-.9,3.13-2.28,3.77-4.14,.49-1.42,.38-2.99,1.07-4.34,.59-1.15,1.59-2,2.67-2.67,2.28-1.41,4.94-2.24,7.39-3.3,2.64-1.15,5.25-2.36,7.83-3.64,10.47-5.19,20.42-11.44,29.65-18.61,4.62-3.59,9.07-7.41,13.31-11.45,4.03-3.84,8.11-7.98,8.84-13.75,.4-3.18,.09-6.45-.03-9.64-.13-3.4-.26-6.81-.39-10.21-.26-6.77-.52-13.54-.78-20.3l-.19-4.99c0-.15-.24-.15-.23,0h0Z"/><path class="b" d="M1244.42,541.88c.7,15.89,.54,31.8-.49,47.67-1.03,16-2.93,31.94-5.68,47.73-2.74,15.73-6.31,31.32-10.71,46.68-4.37,15.29-9.56,30.34-15.54,45.07-6.03,14.85-12.86,29.38-20.47,43.49-.93,1.73-1.88,3.45-2.83,5.16-.07,.13,.13,.25,.2,.12,7.77-13.96,14.78-28.34,20.98-43.06,6.21-14.72,11.62-29.77,16.22-45.07,4.59-15.3,8.37-30.84,11.32-46.53,2.93-15.64,5.03-31.43,6.28-47.29,1.26-15.99,1.65-32.05,1.16-48.08-.06-1.96-.13-3.92-.22-5.88,0-.15-.24-.15-.23,0h0Z"/><path class="b" d="M1231.52,610.89c-6.7,11.58-12.75,23.54-18.1,35.8-5.29,12.11-9.91,24.52-13.84,37.14-3.98,12.78-7.25,25.77-9.8,38.91-2.53,13.03-4.34,26.2-5.42,39.43-1.08,13.28-1.43,26.62-1.01,39.93,.05,1.68,.12,3.36,.19,5.04,0,.15,.24,.15,.23,0-.6-13.25-.45-26.53,.43-39.77,.89-13.34,2.53-26.63,4.9-39.79,2.35-13.06,5.41-25.98,9.18-38.7,3.76-12.72,8.22-25.24,13.35-37.46,5.2-12.38,11.09-24.47,17.66-36.18,.79-1.41,1.6-2.82,2.41-4.23,.08-.13-.13-.25-.2-.12h0Z"/><path class="b" d="M1212.83,788.88c10.07-17.48,19.29-35.45,27.46-53.91,8.09-18.28,15.15-37.02,20.96-56.14,5.87-19.33,10.47-39.05,13.56-59.02,3.26-21.09,4.52-42.38,5.26-63.7,.38-11,.69-22,1.03-33,.26-8.53,1.54-18.24-2.09-26.27-.79-1.75-1.84-3.33-3.13-4.76-.1-.11-.27,.05-.16,.16,6.23,6.88,5.58,16.97,5.31,25.61-.33,10.81-.65,21.62-1,32.42-.69,21.46-1.67,42.93-4.67,64.21-2.77,19.65-7.01,39.09-12.52,58.16-5.54,19.18-12.34,37.99-20.2,56.34-7.8,18.22-16.64,36-26.33,53.29-1.22,2.17-2.45,4.33-3.69,6.48-.08,.13,.13,.25,.2,.12h0Z"/><path class="b" d="M933.94,614.87c8.09,2.26,16.59,.99,24.81,.2,8.44-.81,16.89-1.63,25.33-2.49,16.9-1.72,33.78-3.61,50.61-5.92,33.92-4.67,67.7-11.15,100.36-21.58,15.16-4.84,31.21-10.46,41.88-22.91,.07-.08,.02-.19-.08-.2-2.89-.2-5.78-.39-8.67-.59-.18-.01-1.21,.01-1.35-.15,.06,.08,1.6-.64,1.86-.74,1.34-.54,2.69-1.07,4.03-1.61,5.28-2.11,10.55-4.21,15.83-6.32,10.55-4.21,21.1-8.42,31.66-12.64,.09-.04,.12-.16,.03-.21-1.49-.95-2.97-1.9-4.46-2.85-.66-.42-2.08-.95-1.76-1.8,.18-.48,.91-1.03,1.27-1.39,2.04-2.04,4.52-3.64,7.2-4.72,5.13-2.07,10.89-2.24,16.07-.29,.09,.03,.16-.06,.14-.14-1.35-5.3,4.62-8.8,8.95-9.88,3.93-.98,8.28-1.2,11.71-3.58,2.93-2.03,3.77-5.31,4.4-8.63,.62-3.26,.98-8.37,5.15-8.83,.09,0,.14-.09,.1-.18-3.54-6.94-10.82-10.44-17.9-12.78-9.45-3.13-19.24-5.43-28.9-7.86-20.69-5.2-41.56-9.69-62.55-13.45-41.79-7.49-84.1-12.12-126.53-13.82-11.5-.46-23.2-1.21-34.69-.38-10.57,.76-20.55,3.88-28.64,10.93-.11,.1,.05,.26,.16,.16,5.12-4.46,11.17-7.59,17.75-9.24,6.78-1.69,13.82-1.94,20.78-1.89,14.13,.09,28.28,.7,42.39,1.53,28.71,1.71,57.33,4.75,85.76,9.11,28.22,4.33,56.24,9.96,83.94,16.88,7,1.75,13.99,3.58,20.95,5.49,5.69,1.56,11.49,3.03,16.78,5.7,2.46,1.24,4.8,2.76,6.78,4.68,1,.97,1.89,2.04,2.65,3.2,.16,.24,.96,1.28,.83,1.57-.12,.27-.66,.27-.98,.39-3.22,1.24-3.52,5.86-4.06,8.72-.45,2.39-.96,4.97-2.55,6.9-1.73,2.1-4.38,3.1-6.94,3.76-4.79,1.24-9.9,1.5-13.59,5.22-1.33,1.34-2.32,3.09-2.21,5.03,.02,.35,.23,.79-.07,.98-.16,.1-1.54-.49-1.8-.56-1.15-.3-2.33-.49-3.51-.59-4.88-.41-9.89,.83-14.04,3.44-2.08,1.31-3.9,2.96-5.42,4.89-.05,.06-.05,.14,.02,.18,1.11,.71,2.23,1.43,3.34,2.14,.56,.36,1.11,.71,1.67,1.07,.66,.42,1.49,.61,.77,1.23-.81,.69-2.73,1.09-3.72,1.49-1.24,.5-2.48,.99-3.72,1.49-5.07,2.02-10.14,4.05-15.21,6.07-10.14,4.05-20.28,8.09-30.42,12.14-.12,.05-.11,.22,.03,.23,2.22,.15,4.45,.3,6.67,.45,.45,.03,3-.14,3.34,.23,.41,.44-.13,.67-.47,1.05-.36,.39-.72,.78-1.09,1.16-2.65,2.71-5.61,5.09-8.77,7.18-6.27,4.15-13.23,7.17-20.28,9.73-15.99,5.81-32.54,10.26-49.11,14.07-34.07,7.84-68.79,12.41-103.52,16.08-9.81,1.04-19.63,2-29.45,2.95-9.64,.93-19.99,2.92-29.5,.26-.14-.04-.21,.18-.06,.22h0Z"/><path class="b" d="M941.1,473.79c3.17-3.65,6.43-7.23,10.95-9.19,2.37-1.03,4.87-1.7,7.34-2.43,2.63-.77,5.25-1.55,7.88-2.32l8.88-2.62c.14-.04,.08-.27-.06-.22l-16.1,4.74c-2.5,.74-5.04,1.41-7.46,2.39-2.17,.88-4.14,2.07-5.92,3.58-2.09,1.77-3.89,3.84-5.68,5.9-.1,.11,.07,.28,.16,.16h0Z"/><path class="b" d="M1110.13,455.41c13.21-2.63,26.43-5.25,39.64-7.88,6.6-1.31,13.18-2.7,19.8-3.91,6.62-1.21,13.32-1.95,20.01-.92,6.06,.93,11.87,2.94,17.73,4.65,5.94,1.74,11.95,2.9,18.12,3.44,12.75,1.12,25.58,.38,38.31,1.94,12.63,1.54,25.05,4.71,36.88,9.39,10.92,4.33,21.81,10.27,33.78,10.84,2.59,.12,5.12-.09,7.68-.45,2.3-.32,4.65-.64,6.98-.47,2.22,.16,4.54,.85,5.75,2.87,1.33,2.2,.78,4.66-.8,6.55-1.55,1.86-3.71,3.18-5.86,4.23-2.02,.98-4.2,1.56-6.17,2.66-3.01,1.68-7.26,5.06-6.64,9.01,.06,.37,.16,.73,.31,1.07,.11,.26,.58,.77,.62,1.04,.13,.9-2.27,2.19-2.96,2.62-2.21,1.41-4.63,2.44-7.06,3.42-4.74,1.91-9.39,3.75-13.24,7.22-8.13,7.31-12.65,18.82-23.4,23.01-2.48,.97-5.1,1.34-7.74,1.01-.15-.02-.15,.21,0,.23,9.08,1.15,16.35-5.96,21.5-12.52,2.84-3.62,5.5-7.41,8.81-10.64,3.48-3.39,7.55-5.46,12.01-7.25,4.42-1.77,8.98-3.46,12.46-6.85,.05-.05,.04-.12,0-.16-2.97-3.62,.67-7.76,3.66-9.9,3.09-2.2,6.85-2.98,10.08-4.95,2.42-1.48,5.26-3.75,5.42-6.84,.15-2.83-1.93-5.03-4.55-5.73-3.14-.84-6.56-.24-9.72,.2-4.89,.68-9.71,.42-14.53-.66-9.56-2.13-18.33-6.71-27.42-10.22-9.38-3.63-19.14-6.31-29.06-7.99-9.97-1.69-19.99-2.07-30.08-2.27-10.44-.21-20.83-.68-30.95-3.48-9.56-2.65-18.82-6.19-28.91-5.73-5.09,.23-10.1,1.17-15.09,2.15-5.27,1.04-10.55,2.1-15.82,3.14-10.57,2.1-21.14,4.2-31.71,6.3-2.64,.53-5.29,1.05-7.93,1.58-.15,.03-.08,.25,.06,.22h0Z"/><path class="b" d="M1317.25,517.09c3.62-1.45,6.02,3.01,6.94,5.8,.66,2.02,.95,4.18,1.33,6.27,.42,2.3,.8,4.6,1.15,6.9,1.43,9.34,2.33,18.75,2.72,28.19,.38,9.32,.26,18.67-.37,27.98-.64,9.42-1.79,18.81-3.46,28.11-1.65,9.22-3.81,18.36-6.48,27.35-.33,1.12-.67,2.23-1.02,3.35-.04,.14,.18,.2,.22,.06,2.86-9.19,5.19-18.54,6.99-27.99,1.79-9.38,3.05-18.86,3.78-28.38,.74-9.59,.95-19.23,.61-28.85-.33-9.54-1.19-19.07-2.59-28.52-.35-2.39-.74-4.78-1.16-7.15-.39-2.22-.71-4.5-1.31-6.68-.73-2.61-2.42-6.46-5.48-6.93-.67-.1-1.33,.01-1.95,.26-.14,.06-.08,.28,.06,.22h0Z"/><path class="b" d="M1310.12,577.22c0,11.55-1.84,22.98-3.76,34.34-1.82,10.72-3.72,21.47-4.21,32.35-.46,10.12,.25,20.43,3.34,30.13,1.56,4.92,3.85,9.43,6.37,13.92,2.66,4.72,5.02,9.47,6,14.85,1.96,10.69-.62,21.67-3.78,31.86-.39,1.25-.79,2.5-1.2,3.74-.05,.14,.18,.2,.22,.06,3.29-10.01,6.28-20.56,5.55-31.2-.35-5.11-1.69-10-3.97-14.59-2.39-4.8-5.34-9.28-7.36-14.26-3.92-9.66-5.18-20.18-5.05-30.55,.14-10.95,1.86-21.78,3.69-32.55,1.89-11.18,3.89-22.39,4.31-33.74,.05-1.45,.08-2.91,.08-4.36,0-.15-.23-.15-.23,0h0Z"/><path class="b" d="M1354.25,475.44c9.85,12.81,13.39,29,13.27,44.9-.13,17.3-4.51,34-9.43,50.47-5.29,17.7-11.15,35.46-12.67,53.98-1.61,19.58,2.35,39.08,1.39,58.66-.75,15.28-4.86,31.62-15.85,42.86-1.33,1.36-2.75,2.62-4.25,3.79-.12,.09,.05,.26,.16,.16,12.1-9.49,17.68-24.65,19.53-39.48,2.4-19.19-1.4-38.45-1.14-57.67,.26-19.37,5.72-37.96,11.28-56.36,5.05-16.74,10.09-33.59,11.04-51.15,.84-15.61-1.41-31.91-9.76-45.41-1.04-1.68-2.17-3.31-3.38-4.88-.09-.12-.29,0-.2,.12h0Z"/><path class="b" d="M1335.73,534.56c.65,14.7-.06,29.45-2.12,44.01-.57,4.06-1.25,8.1-2.03,12.12-.03,.15,.2,.21,.22,.06,2.79-14.39,4.27-29.02,4.39-43.68,.03-4.17-.04-8.35-.23-12.52,0-.15-.24-.15-.23,0h0Z"/><path class="b" d="M1341.19,583.46c-1.68,8.61-3.35,17.23-5.03,25.84-.48,2.47-.96,4.93-1.44,7.4-.03,.15,.2,.21,.22,.06,1.68-8.61,3.35-17.23,5.03-25.84,.48-2.47,.96-4.93,1.44-7.4,.03-.15-.2-.21-.22-.06h0Z"/><path class="b" d="M1209.5,798.25c11.81-2.61,23.97-2.66,36.01-2.92,12.27-.27,24.55-.54,36.82-.79,11.79-.24,23.62-.37,35.36,.86,5.9,.61,11.77,1.57,17.52,3.02,5.13,1.29,10.21,2.96,14.85,5.52,4.47,2.46,8.52,5.77,11.29,10.1,2.61,4.08,4.15,8.98,3.71,13.85-.11,1.25-.37,2.48-.74,3.67-.04,.14,.18,.2,.22,.06,2.93-9.43-2.31-19.24-9.76-24.91-4.14-3.15-8.96-5.3-13.88-6.91-5.5-1.79-11.19-2.99-16.91-3.84-11.92-1.78-24.01-1.93-36.04-1.75-12.45,.18-24.9,.52-37.35,.79-12.25,.26-24.66,.11-36.77,2.18-1.48,.25-2.94,.54-4.41,.86-.15,.03-.08,.26,.06,.22h0Z"/><path class="b" d="M1311.07,814.25c2.39,3.51,6.52,5.08,10.62,5.41,5.12,.41,10.01-1.17,14.86-2.58,3.18-.92,6.39-1.76,9.71-1.93,.07,0,.11-.05,.12-.12,.2-2.95-1.88-5.28-4.16-6.86-2.54-1.76-5.55-2.66-8.11-4.38-1.5-1-2.8-2.29-3.49-3.98-.06-.14-.28-.08-.22,.06,1.1,2.68,3.58,4.28,6.07,5.53,2.76,1.39,5.69,2.51,7.82,4.84,1.21,1.32,1.99,2.96,1.87,4.78l.12-.12c-9.82,.5-19.38,7.14-29.29,3.52-2.29-.84-4.32-2.27-5.7-4.3-.08-.12-.29,0-.2,.12h0Z"/><path class="b" d="M1325.99,790.44c0,2.42,3.49,2.09,5.01,1.57,1.65-.57,3.3-1.28,4.86-2.07,1.55-.79,3.04-1.73,4.28-2.96,2.3-2.28,3.62-5.46,2.79-8.68-.46-1.77-1.33-3.73-.28-5.47,.68-1.13,1.93-1.74,3.11-2.21,2.4-.97,5.03-1.62,6.47-3.99,1.56-2.57,1.46-5.87,1.19-8.75-.51-5.49-2.17-12.13-7.68-14.64-2.58-1.17-5.49-1.28-8.28-1.44-2.79-.16-5.85-.27-8.28-1.83-.62-.4-1.16-.88-1.64-1.43-.1-.11-.26,.05-.16,.16,3.62,4.19,10.05,2.94,14.92,3.77,2.89,.49,5.45,1.78,7.25,4.15,1.74,2.29,2.64,5.12,3.17,7.91,.55,2.91,.91,6.1,.36,9.04-.27,1.46-.83,2.9-1.86,3.99-.95,1-2.23,1.57-3.5,2.06-1.95,.75-4.55,1.38-5.48,3.48-.64,1.42-.2,2.93,.21,4.35,.52,1.77,.72,3.44,.14,5.23-1.1,3.4-4.02,5.66-7.11,7.18-1.53,.75-3.15,1.51-4.79,1.99-1.1,.33-2.57,.51-3.63-.05-.55-.29-.83-.76-.83-1.38,0-.15-.23-.15-.23,0h0Z"/><path class="b" d="M1369.03,766.05c-.79,.23-.94,1.15-.64,1.83,.46,1.06,1.79,1.09,2.77,.96,3.34-.44,6.67-1.22,9.96-1.94,6.75-1.48,13.43-3.25,20.01-5.33,3.33-1.05,6.63-2.17,9.91-3.37,1.13-.41,2.44-.77,3.31-1.65,.91-.93,.78-2.14,.22-3.23-1.21-2.34-3.23-4.38-5.3-5.96-2.17-1.65-4.65-2.88-7.27-3.61-2.91-.81-5.89-.87-8.88-.52-3.33,.39-6.63,1.18-10,1.25-2.63,.05-5.37-.41-7.7-1.67-1.09-.59-2.09-1.37-2.87-2.35-.22-.28-.43-.58-.61-.88-.24-.4-.07-.44,.29-.71,.54-.4,1.1-.78,1.67-1.13,4.22-2.57,9.26-3.86,13.01-7.16,1.74-1.54,3.07-3.5,3.6-5.78,.5-2.15,.33-4.44-.38-6.51-.72-2.08-2.01-3.99-3.78-5.32-2.32-1.75-5.27-2.3-8.1-2.59-3.29-.34-6.57-.57-9.83-1.18-3.34-.62-6.63-1.49-9.85-2.61-1.63-.56-3.24-1.19-4.82-1.88-.14-.06-.25,.14-.12,.2,5.12,2.22,10.5,3.82,16,4.73,2.66,.44,5.33,.65,8,.9,2.63,.25,5.34,.65,7.66,2,3.49,2.04,5.41,6.19,5.25,10.17-.08,2.04-.73,4-1.93,5.65-1.24,1.71-2.93,3.01-4.73,4.07-4.05,2.38-8.69,3.71-12.38,6.7-.04,.03-.04,.1-.02,.14,2.7,5.09,9.24,5.82,14.37,5.23,3.59-.41,7.14-1.28,10.77-1.27,3.08,.01,6.13,.75,8.89,2.1,2.64,1.29,5.02,3.11,6.91,5.36,.49,.58,.94,1.18,1.36,1.81,.55,.83,1.19,1.84,.94,2.89-.38,1.58-2.46,2.1-3.77,2.58-6.91,2.52-13.93,4.71-21.05,6.57-3.95,1.03-7.93,1.96-11.93,2.77-2.04,.42-4.08,.81-6.13,1.17-.92,.16-2.17,.43-2.95-.25-.56-.49-.69-1.72,.17-1.97,.14-.04,.08-.27-.06-.22h0Z"/><path class="b" d="M1421.19,764.45c-.81,8.91-.7,17.9,.32,26.79,1,8.79,2.89,17.49,5.63,25.91,1.54,4.73,3.35,9.38,5.42,13.9,.06,.14,.26,.02,.2-.12-3.68-8.07-6.54-16.51-8.52-25.15-1.99-8.68-3.1-17.55-3.31-26.45-.12-4.97,.05-9.94,.5-14.88,.01-.15-.22-.15-.23,0h0Z"/><path class="b" d="M1428.71,831.88c8.96-2.46,17.65-5.87,25.89-10.15,4.13-2.15,8.15-4.52,12.03-7.09,1.34-.89,3.43-1.98,3.38-3.86-.05-1.62-1.66-2.7-2.92-3.42-1.72-.99-3.43-1.95-5.03-3.15-1.67-1.25-3.23-2.66-4.66-4.18-2.77-2.97-5.04-6.43-6.63-10.17-.75-1.77-1.24-3.7-2.29-5.33-.98-1.52-2.38-2.32-4.12-2.69-1.76-.37-3.88-.39-5.23-1.76-1.45-1.48-1.24-3.76-1.35-5.66-.1-1.74-.5-3.35-1.72-4.65-1.12-1.21-2.63-1.98-4.14-2.59-3.33-1.35-7.56-2.02-9.65-5.3-.49-.77-.75-1.63-.77-2.55,0-.15-.24-.15-.23,0,.08,3.45,3.45,5.47,6.32,6.58,3.2,1.23,7.44,1.95,9.21,5.28,1.59,2.99-.42,7.75,3.06,9.73,1.54,.88,3.41,.84,5.09,1.3,2.04,.55,3.26,1.98,4.1,3.86,.79,1.77,1.36,3.63,2.2,5.38,.86,1.78,1.87,3.49,3.02,5.1,2.24,3.14,4.99,5.92,8.11,8.18,1.58,1.14,3.29,2.02,4.95,3.04,.8,.49,1.64,1.08,2.12,1.91,.58,1.01,.32,2.11-.46,2.93-.77,.81-1.8,1.39-2.73,2.01-.93,.61-1.86,1.21-2.81,1.8-1.97,1.23-3.98,2.41-6.02,3.54-8.08,4.47-16.63,8.08-25.47,10.75-1.1,.33-2.2,.65-3.31,.95-.14,.04-.08,.26,.06,.22h0Z"/><path class="b" d="M1343.19,839.22c-1.75-.34-3.5-.67-5.24-1.01v.22c10.45-2.19,21.05-3.68,31.71-4.44,10.56-.75,21.17-.8,31.74-.14,10.71,.67,21.38,2.07,31.89,4.2,9.59,1.94,19.09,4.48,28.16,8.2,4.58,1.88,9.03,4.06,13.28,6.59,4.07,2.43,7.76,5.48,11.89,7.8,1.95,1.09,4.01,1.96,6.21,2.4,2.28,.45,5.01,.54,6.73,2.32,.8,.82,1.39,1.98,1.26,3.15-.14,1.3-1.19,2.07-2.27,2.63-2.27,1.18-4.59,2.26-6.88,3.39-9.4,4.6-18.86,9.1-28.56,13.04-9.67,3.92-19.58,7.27-29.76,9.57-10.47,2.37-21.14,3.72-31.83,4.59-5.31,.44-10.64,.75-15.96,1.03-2.66,.14-5.32,.26-7.99,.38-2.17,.1-4.36,.38-6.47-.3-1.57-.51-3.52-1.69-2.74-3.6,.06-.14-.17-.2-.22-.06-1.31,3.2,3.77,4.39,5.95,4.35,5.49-.09,11-.49,16.48-.8,10.95-.63,21.9-1.56,32.72-3.37,10.75-1.8,21.26-4.61,31.51-8.33,10.04-3.64,19.8-8.02,29.43-12.63,4.83-2.31,9.69-4.58,14.44-7.05,1.58-.82,2.77-2.1,2.3-3.99-.46-1.83-1.99-3.04-3.71-3.63-2.32-.79-4.81-.83-7.12-1.69-2.34-.86-4.48-2.17-6.54-3.56-4.15-2.8-8.18-5.66-12.61-8.02-8.88-4.73-18.45-8.04-28.18-10.5-10.33-2.61-20.88-4.4-31.48-5.51-10.94-1.15-21.96-1.54-32.96-1.16-10.9,.38-21.78,1.5-32.52,3.38-2.66,.46-5.31,.98-7.95,1.53-.11,.02-.11,.2,0,.22,1.75,.34,3.5,.67,5.24,1.01,.15,.03,.21-.2,.06-.22h0Z"/><path class="b" d="M1298.6,831.65c11.61,5.93,23.21,11.86,34.82,17.79,5.29,2.7,10.71,5.31,15.09,9.4,3.8,3.55,6.74,7.91,9.14,12.5,2.45,4.69,4.36,9.64,6.2,14.59,2.12,5.72,4.24,11.44,5.92,17.31,1.72,6,2.96,12.17,3.1,18.43,.15,6.45-.85,12.85-2.05,19.17-2.42,12.75-5.02,25.46-7.54,38.19-.31,1.58-.63,3.17-.94,4.75-.03,.15,.2,.21,.22,.06,2.56-12.96,5.12-25.91,7.68-38.87,1.23-6.24,2.46-12.51,2.78-18.88,.32-6.23-.43-12.41-1.87-18.47-1.46-6.13-3.55-12.08-5.71-17.98-1.84-5.03-3.66-10.08-5.9-14.94-2.16-4.67-4.73-9.2-8.09-13.12-3.71-4.31-8.32-7.36-13.32-9.98-11.63-6.11-23.4-11.97-35.1-17.94-1.44-.74-2.88-1.47-4.32-2.21-.13-.07-.25,.13-.12,.2h0Z"/><path class="b" d="M1128.3,897.48c.69-1.66,1.97-2.98,3.58-3.76l-.18-.1c1,10.31,.26,20.76-2.2,30.82-.69,2.82-1.51,5.6-2.46,8.33-.05,.14,.18,.2,.22,.06,3.38-9.77,5.11-20.09,5.1-30.43,0-2.93-.15-5.87-.43-8.79,0-.09-.09-.14-.18-.1-1.68,.81-2.97,2.19-3.69,3.9-.06,.14,.17,.2,.22,.06h0Z"/><path class="b" d="M1142.65,887.02c-2.97,10.9-5.95,21.8-8.93,32.7-.84,3.06-1.67,6.12-2.51,9.18-.04,.14,.19,.21,.22,.06,2.98-10.9,5.95-21.8,8.93-32.7l2.51-9.18c.04-.14-.19-.21-.22-.06h0Z"/><path class="b" d="M1073.25,932.74c1.66,7.95,.19,16.41-4.06,23.34-.08,.13,.12,.25,.2,.12,4.28-6.98,5.76-15.51,4.08-23.52-.03-.15-.26-.08-.22,.06h0Z"/><path class="b" d="M1084.68,962.72c-1.32,12.66-3.22,25.25-5.69,37.73-2.45,12.33-5.45,24.55-8.99,36.62-3.55,12.06-7.63,23.97-12.24,35.67-4.67,11.84-9.87,23.46-15.59,34.83-5.66,11.23-11.82,22.2-18.47,32.87-.82,1.32-1.65,2.63-2.49,3.94-.08,.13,.12,.24,.2,.12,6.83-10.69,13.17-21.68,18.99-32.95,5.78-11.18,11.05-22.62,15.8-34.27,4.79-11.74,9.04-23.7,12.74-35.83,3.71-12.13,6.86-24.42,9.45-36.83,2.56-12.27,4.57-24.65,6.01-37.09,.18-1.59,.36-3.19,.53-4.79,.02-.15-.22-.15-.23,0h0Z"/><path class="b" d="M1005.23,992.73c-2.57,8.72-5.23,17.43-7.96,26.1-2.72,8.64-5.51,17.25-8.38,25.84-2.89,8.63-5.85,17.23-8.89,25.8-3.04,8.57-6.16,17.12-9.35,25.64-3.19,8.52-6.46,17.01-9.81,25.47-.41,1.03-.82,2.06-1.23,3.1-.06,.14,.17,.2,.22,.06,3.36-8.45,6.65-16.93,9.87-25.44,3.2-8.47,6.32-16.97,9.37-25.5,3.06-8.57,6.04-17.16,8.95-25.78,2.91-8.62,5.73-17.27,8.48-25.94,2.75-8.67,5.42-17.37,8.01-26.09,.32-1.06,.63-2.13,.95-3.19,.04-.14-.18-.21-.22-.06h0Z"/><path class="b" d="M936.33,1068.54c-.28-9.86-.33-19.73-.13-29.6,.2-9.86,.65-19.72,1.34-29.57,.39-5.54,.86-11.07,1.4-16.59,.01-.15-.22-.15-.23,0-.96,9.82-1.69,19.66-2.16,29.52-.48,9.85-.71,19.72-.7,29.59,0,5.55,.09,11.1,.25,16.65,0,.15,.24,.15,.23,0h0Z"/><path class="b" d="M843.12,1073.52c3.98-6.09,7.82-12.28,11.51-18.55,3.71-6.31,7.26-12.7,10.66-19.18,3.38-6.44,6.61-12.97,9.69-19.57,3.05-6.54,5.94-13.16,8.67-19.84,2.76-6.74,5.35-13.54,7.79-20.4,.31-.87,.61-1.74,.92-2.61,.05-.14-.18-.2-.22-.06-2.38,6.84-4.92,13.62-7.62,20.34-2.74,6.81-5.64,13.55-8.7,20.22-3.02,6.58-6.2,13.09-9.53,19.52-3.35,6.46-6.85,12.85-10.5,19.14-3.63,6.27-7.42,12.44-11.34,18.53-.5,.78-1,1.55-1.51,2.32-.08,.13,.12,.24,.2,.12h0Z"/></g></svg>