<?xml version="1.0" encoding="UTF-8"?><svg id="a" xmlns="http://www.w3.org/2000/svg" viewBox="0 0 917.5 740"><defs><style>.b{fill:none;stroke:#d1dadf;stroke-miterlimit:10;stroke-width:1.04px;}</style></defs><path class="b" d="M536.97,198.34l-186.17,287.16-55.88-80.75-176.7,246.02c-2.99,4.16-.01,9.95,5.11,9.95H832.46c5.02,0,8.01-5.59,5.24-9.77L536.97,198.34Z"/><line class="b" x1="536.63" y1="192.08" x2="536.63" y2="63.15"/><polyline class="b" points="537.36 62.35 655.63 62.35 612.59 105.43 655.63 147.91 537.36 147.91"/><path class="b" d="M424.28,373.78c28.44,0,28.44,26.87,56.88,26.87s28.44-26.87,56.88-26.87,28.44,26.87,56.88,26.87,28.44-26.87,56.88-26.87"/><line class="b" x1="364.02" y1="465.19" x2="308.51" y2="550.54"/><line class="b" x1="732.35" y1="587.83" x2="645.86" y2="460.25"/><line class="b" x1="278.86" y1="511.81" x2="221.58" y2="597.05"/></svg>