<?xml version="1.0" encoding="UTF-8"?><svg id="a" xmlns="http://www.w3.org/2000/svg" viewBox="0 0 708.72 614.31"><defs><style>.b{fill:none;stroke:#fff;stroke-miterlimit:10;}</style></defs><path class="b" d="M527.01,412.88c7.52,5.98,11.66,12.46,11.66,19.24,0,29.94-80.42,54.2-179.62,54.2s-179.62-24.27-179.62-54.2c0-3.41,1.05-6.74,3.04-9.97-10.1,7.14-15.7,14.99-15.7,23.24,0,32.7,87.85,59.21,196.22,59.21s196.22-26.51,196.22-59.21c0-12.01-11.85-23.17-32.21-32.51Z"/><path class="b" d="M586.03,433.82c10.32,8.2,15.99,17.1,15.99,26.39,0,41.07-110.34,74.37-246.44,74.37s-246.44-33.3-246.44-74.37c0-4.67,1.44-9.25,4.18-13.68-13.86,9.79-21.54,20.57-21.54,31.89,0,44.87,120.53,81.24,269.22,81.24s269.22-36.37,269.22-81.24c0-16.47-16.26-31.8-44.19-44.6Z"/><path class="b" d="M196.2,182.12c-14.96,0-27.09,12.13-27.09,27.09s12.13,27.09,27.09,27.09c6.32,0,12.13-2.17,16.74-5.8v217.06h10.35V209.21c0-14.96-12.13-27.09-27.09-27.09Zm0,43.44c-9.25,0-16.75-7.5-16.75-16.75s7.5-16.75,16.75-16.75,16.75,7.5,16.75,16.75-7.5,16.75-16.75,16.75Z"/><path class="b" d="M250.38,119.45c-14.96,0-27.09,12.13-27.09,27.09s12.13,27.09,27.09,27.09c6.32,0,12.13-2.17,16.74-5.8V447.6h10.35V146.54c0-14.96-12.13-27.09-27.09-27.09Zm0,44.14c-9.25,0-16.75-7.5-16.75-16.75s7.5-16.75,16.75-16.75,16.75,7.5,16.75,16.75-7.5,16.75-16.75,16.75Z"/><path class="b" d="M311.83,82.79c-14.96,0-27.09,12.13-27.09,27.09s12.13,27.09,27.09,27.09c6.32,0,12.13-2.17,16.74-5.8V447.56h10.35V109.88c0-14.96-12.13-27.09-27.09-27.09Zm0,43.77c-9.25,0-16.75-7.5-16.75-16.75s7.5-16.75,16.75-16.75,16.75,7.5,16.75,16.75-7.5,16.75-16.75,16.75Z"/><path class="b" d="M410.77,82.71c-14.96,0-27.09,12.13-27.09,27.09V447.56h10.35V131.09c4.61,3.63,10.42,5.8,16.74,5.8,14.96,0,27.09-12.13,27.09-27.09s-12.13-27.09-27.09-27.09Zm0,43.85c-9.25,0-16.75-7.5-16.75-16.75s7.5-16.75,16.75-16.75,16.75,7.5,16.75,16.75-7.5,16.75-16.75,16.75Z"/><path class="b" d="M469.15,119.37c-14.96,0-27.09,12.13-27.09,27.09V447.6h10.35V167.75c4.61,3.63,10.42,5.8,16.74,5.8,14.96,0,27.09-12.13,27.09-27.09s-12.13-27.09-27.09-27.09Zm0,44.23c-9.25,0-16.75-7.5-16.75-16.75s7.5-16.75,16.75-16.75,16.75,7.5,16.75,16.75-7.5,16.75-16.75,16.75Z"/><path class="b" d="M526.4,182.04c-14.96,0-27.09,12.13-27.09,27.09v238.43h10.36V230.42c4.61,3.63,10.42,5.8,16.74,5.8,14.96,0,27.09-12.13,27.09-27.09s-12.13-27.09-27.09-27.09Zm0,43.52c-9.25,0-16.75-7.5-16.75-16.75s7.5-16.75,16.75-16.75,16.75,7.5,16.75,16.75-7.5,16.75-16.75,16.75Z"/></svg>