<?xml version="1.0" encoding="UTF-8"?><svg id="a" xmlns="http://www.w3.org/2000/svg" viewBox="0 0 1083.96 1014.6"><defs><style>.b{fill:none;stroke:#b3d5e4;stroke-miterlimit:10;stroke-width:.76px;}</style></defs><path class="b" d="M127.97,464.39c-1.68,17.41,15.9,2.49,15.9,2.49,0,0-14.45-17.41-15.9-2.49Z"/><path class="b" d="M126.15,492.81c-.41,19.08,16.11,2.11,16.11,2.11,0,0-15.79-17.37-16.11-2.11Z"/><path class="b" d="M147.75,493.42c-.85,15.96,15.37,1.5,15.37,1.5,0,0-14.6-15.91-15.37-1.5Z"/><path class="b" d="M149.96,465.53c-1.69,15.83,15.9,2.87,15.9,2.87,0,0-14.36-17.3-15.9-2.87Z"/><path class="b" d="M191.6,281.62c-9.03,14.78,15.05,11.62,15.05,11.62,0,0-5.82-26.74-15.05-11.62Z"/><path class="b" d="M177.63,305.21c-8.66,15.12,14.76,11.03,14.76,11.03,0,0-6-26.33-14.76-11.03Z"/><path class="b" d="M131.74,436.71c-3.85,17.55,16.09,4.42,16.09,4.42,0,0-12.99-18.55-16.09-4.42Z"/><path class="b" d="M154.5,437.41c-3.36,16.95,15.81,4.67,15.81,4.67,0,0-13.09-18.39-15.81-4.67Z"/><path class="b" d="M225.01,237.03c-10.23,12.06,12.1,12.81,12.1,12.81,0,0-.7-26.26-12.1-12.81Z"/><path class="b" d="M206.67,258.68c-9.09,12.23,14.91,12.81,14.91,12.81,0,0-5.6-25.33-14.91-12.81Z"/><path class="b" d="M164.94,330.35c-7.43,15.65,15.73,9.87,15.73,9.87,0,0-9.1-23.84-15.73-9.87Z"/><path class="b" d="M153.97,355.47c-5.74,18.29,15.84,9.05,15.84,9.05,0,0-10.8-25.07-15.84-9.05Z"/><path class="b" d="M144.99,381.62c-5.74,17.87,15.52,7.57,15.52,7.57,0,0-10.99-21.69-15.52-7.57Z"/><path class="b" d="M137.37,409.13c-3.88,17.02,15.79,5.42,15.79,5.42,0,0-12.24-21.01-15.79-5.42Z"/><path class="b" d="M160.86,410.03c-4.06,15.84,15.27,6.02,15.27,6.02,0,0-11.36-21.31-15.27-6.02Z"/><path class="b" d="M169.02,383.57c-6.09,15.51,15.88,7.28,15.88,7.28,0,0-10.49-21-15.88-7.28Z"/><path class="b" d="M178.95,357.78c-6.07,14.88,15.55,7.98,15.55,7.98,0,0-9.48-22.85-15.55-7.98Z"/><path class="b" d="M191.1,331.98c-7.58,14.57,14.85,10.21,14.85,10.21,0,0-7.8-23.8-14.85-10.21Z"/><path class="b" d="M204.41,308.27c-8.15,13.85,14.94,10.9,14.94,10.9,0,0-6.79-24.75-14.94-10.9Z"/><path class="b" d="M219.7,283.88c-9.42,14.71,14.63,13.22,14.63,13.22,0,0-6.14-26.48-14.63-13.22Z"/><path class="b" d="M236.96,262.22c-10.06,12.52,13.97,13.6,13.97,13.6,0,0-4.79-25.02-13.97-13.6Z"/><path class="b" d="M242.66,216.43c-10.77,12.17,14.03,15.17,14.03,15.17,0,0-2.98-27.67-14.03-15.17Z"/><path class="b" d="M255.89,240.87c-10.86,13.25,12.61,15.63,12.61,15.63,0,0-3.27-27.02-12.61-15.63Z"/><path class="b" d="M274.83,222.03c-10.68,11.12,11.63,15.25,11.63,15.25,0,0-.2-27.15-11.63-15.25Z"/><path class="b" d="M262.85,197.44c-11.56,10.67,12.61,15.14,12.61,15.14,0,0-1.05-25.81-12.61-15.14Z"/><path class="b" d="M284.07,179.5c-12.5,10.15,12.55,16.33,12.55,16.33,0,0-.04-26.48-12.55-16.33Z"/><path class="b" d="M296.7,203.46c-12.67,10.32,11.53,16.88,11.53,16.88,0,0,.8-26.92-11.53-16.88Z"/><path class="b" d="M306.22,163.12c-13.31,8.44,11.21,17.24,11.21,17.24,0,0,2.21-25.75-11.21-17.24Z"/><path class="b" d="M379.81,122.77c-16.02,7.02,7.75,20.02,7.75,20.02,0,0,6.48-26.26-7.75-20.02Z"/><path class="b" d="M405.2,113.04c-15.35,5.65,7.44,20.42,7.44,20.42,0,0,8.35-26.23-7.44-20.42Z"/><path class="b" d="M318.47,187.35c-12.7,8.61,10.53,17.39,10.53,17.39,0,0,2.42-26.17-10.53-17.39Z"/><path class="b" d="M342.5,172.55c-14.24,8.28,9.47,18.49,9.47,18.49,0,0,5.27-27.06-9.47-18.49Z"/><path class="b" d="M330.11,148.4c-12.9,7.5,9.67,17.41,9.67,17.41,0,0,4.66-25.74-9.67-17.41Z"/><path class="b" d="M354.44,134.51c-14.13,7.37,9.04,18.49,9.04,18.49,0,0,4.97-25.79-9.04-18.49Z"/><path class="b" d="M367.11,159.19c-15,7.39,9.73,18.81,9.73,18.81,0,0,5.27-26.2-9.73-18.81Z"/><path class="b" d="M392.7,147.3c-15.81,6.68,9.3,19.54,9.3,19.54,0,0,4.75-25.48-9.3-19.54Z"/><path class="b" d="M418.56,137.75c-15.05,5.29,6.39,20.6,6.39,20.6,0,0,10.03-26.37-6.39-20.6Z"/><path class="b" d="M431.74,104.76c-16.22,4.82,6.52,20.61,6.52,20.61,0,0,10.76-25.74-6.52-20.61Z"/><path class="b" d="M445.7,129.82c-17.32,4.68,4.9,20.76,4.9,20.76,0,0,10.63-24.96-4.9-20.76Z"/><path class="b" d="M459.76,97.77c-16.85,4.01,4.24,21.36,4.24,21.36,0,0,13.28-25.53-4.24-21.36Z"/><path class="b" d="M473.06,123.98c-16.78,3.31,3.32,21.53,3.32,21.53,0,0,13.22-24.8-3.32-21.53Z"/><path class="b" d="M487.12,93.35c-16.9,2.74,2.43,21.93,2.43,21.93,0,0,15.19-24.79-2.43-21.93Z"/><path class="b" d="M500.84,120.04c-17.11,2.04,.55,21.73,1.3,21.73s14.67-23.63-1.3-21.73Z"/><path class="b" d="M514.88,90.69c-16.86,1.37,1.95,21.84,1.95,21.84,0,0,13.83-23.11-1.95-21.84Z"/><path class="b" d="M528.4,118.07c-16.72,.98,1.21,21.83,1.21,21.83,0,0,16.13-22.85-1.21-21.83Z"/><path class="b" d="M542.84,89.72c-15.87-.29,0,21.73,0,21.73,0,0,16.22-21.43,0-21.73Z"/><path class="b" d="M556.3,118.04c-17.05-.24,0,21.87,0,21.87,0,0,17.46-21.62,0-21.87Z"/><path class="b" d="M569.86,90.64c-16.73-.78-.59,21.89-.59,21.89,0,0,18.3-21.06,.59-21.89Z"/><path class="b" d="M583.71,119.93c-17-1.39-1.37,21.72-1.37,21.72,0,0,19.5-20.24,1.37-21.72Z"/><path class="b" d="M612.46,123.95c-19.04-4.29-3.46,21.21-3.46,21.21,0,0,23.05-16.8,3.46-21.21Z"/><path class="b" d="M598.49,93.49c-18.25-2.07-2.84,21.79-2.84,21.79,0,0,21.09-19.72,2.84-21.79Z"/><path class="b" d="M625.99,98.1c-18.23-3.28-4.35,21.54-4.35,21.54,0,0,22.95-18.19,4.35-21.54Z"/><path class="b" d="M639.73,130.49c-17.6-4.7-5.17,20.73-5.17,20.73,0,0,22.18-16.19,5.17-20.73Z"/><path class="b" d="M653.02,104.53c-18.59-4.75-5.62,21.06-5.62,21.06,0,0,22.23-16.81,5.62-21.06Z"/><path class="b" d="M679.75,112.76c-15.67-5.64-7.37,20.11-7.37,20.11,0,0,23.91-14.17,7.37-20.11Z"/><path class="b" d="M666.44,137.53c-16.35-4.33-5.85,20.94-5.85,20.94,0,0,24.79-15.92,5.85-20.94Z"/><path class="b" d="M692.97,147.31c-17.39-6.7-7.42,19.88-7.42,19.88,0,0,25.44-12.94,7.42-19.88Z"/><path class="b" d="M168.37,494.32c-1.52,16.77,15.93,3.25,15.93,3.25,0,0-14.71-16.7-15.93-3.25Z"/><path class="b" d="M172.08,466.76c-2.12,17.18,15.75,4.67,15.75,4.67,0,0-13.84-20.19-15.75-4.67Z"/><path class="b" d="M190.56,496.1c-1.49,17.48,14.94,3.82,14.94,3.82,0,0-13.78-17.45-14.94-3.82Z"/><path class="b" d="M194.05,469.54c-2.38,16.14,15.67,3.73,15.67,3.73,0,0-13.03-21.59-15.67-3.73Z"/><path class="b" d="M176.94,438.83c-4.32,16.4,16.06,6.37,16.06,6.37,0,0-12-21.8-16.06-6.37Z"/><path class="b" d="M184.26,411.97c-4.68,16.71,15.06,6.71,15.06,6.71,0,0-10.19-24.13-15.06-6.71Z"/><path class="b" d="M207.86,413.99c-5.58,17.62,15.04,9.37,15.04,9.37,0,0-10.21-24.63-15.04-9.37Z"/><path class="b" d="M200.12,441.33c-4.49,17.73,15.05,6.41,15.05,6.41,0,0-11.12-21.9-15.05-6.41Z"/><path class="b" d="M193.05,384.26c-5.19,16.22,15.85,8.87,15.85,8.87,0,0-10.89-24.36-15.85-8.87Z"/><path class="b" d="M204,358.87c-5.98,14.57,15.36,9.92,15.36,9.92,0,0-9.12-25.14-15.36-9.92Z"/><path class="b" d="M217.39,387.27c-5.84,16.03,15.89,10.12,15.89,10.12,0,0-10.05-26.15-15.89-10.12Z"/><path class="b" d="M229.36,360.46c-6.92,16.8,15.11,11.78,15.11,11.78,0,0-8.63-27.49-15.11-11.78Z"/><path class="b" d="M217.72,333.98c-8,14.72,13.96,11.26,13.96,11.26,0,0-5.5-26.81-13.96-11.26Z"/><path class="b" d="M244.18,337.94c-8.06,12.91,13.84,11.84,13.84,11.84,0,0-5.78-24.76-13.84-11.84Z"/><path class="b" d="M232.5,310.29c-9.25,14.16,14.15,11.6,14.15,11.6,0,0-4.91-25.75-14.15-11.6Z"/><path class="b" d="M248.48,288.82c-8.99,11.47,14.36,12.47,14.36,12.47,0,0-4.81-24.66-14.36-12.47Z"/><path class="b" d="M260.33,314.51c-8.81,12.31,14.88,12.27,14.88,12.27,0,0-5.44-25.47-14.88-12.27Z"/><path class="b" d="M278.72,292.19c-11.14,12.93,12.65,15.27,12.65,15.27,0,0-1.01-28.79-12.65-15.27Z"/><path class="b" d="M267.29,266.32c-12.02,14,12.63,15.5,12.63,15.5,0,0-1.27-28.73-12.63-15.5Z"/><path class="b" d="M286.8,246.79c-11.77,11.28,12.09,15.66,12.09,15.66,0,0-.31-26.94-12.09-15.66Z"/><path class="b" d="M306.5,229.03c-11.33,10.11,12.97,16.06,12.97,16.06,0,0-.63-27.07-12.97-16.06Z"/><path class="b" d="M297.98,272.26c-12.47,12.43,12.62,16.13,12.62,16.13,0,0-.15-28.56-12.62-16.13Z"/><path class="b" d="M319.67,253.04c-12.62,10.75,10.53,16.85,10.53,16.85,0,0,2.66-28.09-10.53-16.85Z"/><path class="b" d="M342.03,236.19c-14.64,10.55,8.42,17.76,8.42,17.76,0,0,5.21-27.58-8.42-17.76Z"/><path class="b" d="M330.74,211.49c-13.95,11.47,10.28,18.32,10.28,18.32,0,0,3.53-29.68-10.28-18.32Z"/><path class="b" d="M354.02,196.77c-14.09,8.59,9.22,18.75,9.22,18.75,0,0,5.29-27.6-9.22-18.75Z"/><path class="b" d="M379.11,183.39c-15.14,7.72,9.4,19.63,9.4,19.63,0,0,5.74-27.35-9.4-19.63Z"/><path class="b" d="M405.19,171.95c-16.31,6.8,7.63,19.45,7.63,19.45,0,0,8.68-26.26-7.63-19.45Z"/><path class="b" d="M367.03,220.52c-15.8,9.48,8.3,19.7,8.3,19.7,0,0,6.68-28.68-8.3-19.7Z"/><path class="b" d="M391.17,208.01c-15.76,7.74,7.86,19.73,7.86,19.73,0,0,7.29-27.17-7.86-19.73Z"/><path class="b" d="M417.57,196.87c-16.49,6.59,6.4,19.94,6.4,19.94,0,0,10.09-26.52-6.4-19.94Z"/><path class="b" d="M431.7,162.63c-15.47,5.13,6.11,20.25,6.11,20.25,0,0,9.37-25.38-6.11-20.25Z"/><path class="b" d="M458.94,155.36c-17.17,4.32,4.18,21.07,4.18,21.07,0,0,12.99-25.39-4.18-21.07Z"/><path class="b" d="M444.42,187.83c-16.29,5.06,4.87,20.48,4.87,20.48,0,0,11.42-25.55-4.87-20.48Z"/><path class="b" d="M472.13,181.05c-17.21,3.91,3.05,21.9,3.05,21.9,0,0,14.17-25.81-3.05-21.9Z"/><path class="b" d="M486.66,150.12c-17.31,2.98,2.84,21.38,2.84,21.38,0,0,14.47-24.36-2.84-21.38Z"/><path class="b" d="M500.88,176.44c-16.87,2.3,1.86,21.75,1.86,21.75,0,0,15.01-24.04-1.86-21.75Z"/><path class="b" d="M514.68,146.56c-16.96,1.12,2.22,21.95,2.22,21.95,0,0,14.73-23.07-2.22-21.95Z"/><path class="b" d="M528.53,174.32c-17.25,.22,.29,22,.29,22,0,0,16.96-22.23-.29-22Z"/><path class="b" d="M542.83,146.1c-15.29,0,0,20.76,0,20.76,0,0,15.29-20.76,0-20.76Z"/><path class="b" d="M556.87,174.27c-16.67-1.27-.42,21.23-.42,21.23,0,0,18.04-19.89,.42-21.23Z"/><path class="b" d="M570.96,146.56c-16.67-1.47-1.5,21.95-1.5,21.95,0,0,18.57-20.45,1.5-21.95Z"/><path class="b" d="M585.41,176.52c-17.26-2.57-2.54,21.66-2.54,21.66,0,0,20.43-19,2.54-21.66Z"/><path class="b" d="M598.95,150.12c-17-3.36-2.79,21.38-2.79,21.38,0,0,19.79-18.03,2.79-21.38Z"/><path class="b" d="M612.49,180.78c-16.07-4-2.77,21.29-2.77,21.29,0,0,19.89-17.03,2.77-21.29Z"/><path class="b" d="M625.82,155.17c-16.09-4.17-3.27,21.25-3.27,21.25,0,0,20.37-16.81,3.27-21.25Z"/><path class="b" d="M641.01,187.85c-16.69-5.42-5.14,21.01-5.14,21.01,0,0,21.83-15.59,5.14-21.01Z"/><path class="b" d="M653.93,162.62c-17.38-5.81-5.38,20.25-5.38,20.25,0,0,22.72-14.45,5.38-20.25Z"/><path class="b" d="M668.36,196.87c-16.65-7.03-6.86,20.25-6.56,19.94s22.28-13.3,6.56-19.94Z"/><path class="b" d="M679.52,171.6c-15.14-5.59-6.13,20.02-6.13,20.02,0,0,22.48-13.99,6.13-20.02Z"/><path class="b" d="M706.31,183.23c-16.94-7.73-8.53,18.91-8.53,18.91,0,0,25.46-11.18,8.53-18.91Z"/><path class="b" d="M718.48,159.19c-16.02-7.93-8.57,18.89-8.57,18.89,0,0,23.85-11.33,8.57-18.89Z"/><path class="b" d="M694.55,208.05c-15.99-7.14-8.76,19.7-8.76,19.7,0,0,25.32-12.31,8.76-19.7Z"/><path class="b" d="M719.12,221.27c-16.07-9.1-10.17,17.94-10.17,17.94,0,0,26.23-8.83,10.17-17.94Z"/><path class="b" d="M731.53,196.73c-13.72-7.61-9.94,18.75-9.94,18.75,0,0,26.33-9.66,9.94-18.75Z"/><path class="b" d="M754.8,211.51c-15.27-10.05-10.59,18.32-10.59,18.32,0,0,25.18-8.72,10.59-18.32Z"/><path class="b" d="M744.23,236.67c-16.1-10.47-11.93,16.92-11.93,16.92,0,0,28.48-6.15,11.93-16.92Z"/><path class="b" d="M767.17,253.97c-14.2-11.24-11.73,15.96-11.73,15.96,0,0,25.92-4.72,11.73-15.96Z"/><path class="b" d="M777.24,228.08c-13.17-10.65-11.12,16.98-11.12,16.98,0,0,26.05-4.9,11.12-16.98Z"/><path class="b" d="M705.71,122.75c-15.75-6.32-7.78,19.65-7.78,19.65,0,0,23.52-13.34,7.78-19.65Z"/><path class="b" d="M731,134.46c-17.52-8.44-8.73,18.85-8.73,18.85,0,0,25.16-10.93,8.73-18.85Z"/><path class="b" d="M756.21,148.27c-17.19-9.87-11.35,17.5-11.35,17.5,0,0,26.16-8.99,11.35-17.5Z"/><path class="b" d="M743.12,172.54c-14.47-8.6-9.51,18.36-9.51,18.36,0,0,23.98-9.76,9.51-18.36Z"/><path class="b" d="M766.9,187.28c-15.13-9.93-10.88,18.72-10.88,18.72,0,0,26.01-8.79,10.88-18.72Z"/><path class="b" d="M779.29,163.04c-13.89-9.29-11.14,16.82-11.14,16.82,0,0,25.03-7.54,11.14-16.82Z"/><path class="b" d="M802.15,179.9c-14.91-12.66-12.67,16.64-12.67,16.64,0,0,26.67-4.76,12.67-16.64Z"/><path class="b" d="M789.46,204.03c-13.47-10.45-11.04,16.98-11.04,16.98,0,0,25.03-6.12,11.04-16.98Z"/><path class="b" d="M823.63,198.21c-14.27-12.67-14.03,14.37-14.03,14.37,0,0,26.34-3.43,14.03-14.37Z"/><path class="b" d="M810.1,221.64c-12.72-12.27-12.14,16.04-12.14,16.04,0,0,25.08-3.57,12.14-16.04Z"/><path class="b" d="M798.94,246.78c-13.24-11.84-12.24,15.65-12.24,15.65,0,0,25.49-3.81,12.24-15.65Z"/><path class="b" d="M830.59,241.72c-12.04-13.66-13.52,14.77-13.52,14.77,0,0,25.61-1.06,13.52-14.77Z"/><path class="b" d="M843.04,217.16c-13.38-13.37-14.08,14.46-14.08,14.46,0,0,27.17-1.39,14.08-14.46Z"/><path class="b" d="M861.73,237.71c-11.52-15.16-14.92,13.25-14.92,13.25,0,0,25.47,.64,14.92-13.25Z"/><path class="b" d="M849.02,262.68c-10.63-14.16-14.31,13.3-14.31,13.3,0,0,25.08,1.05,14.31-13.3Z"/><path class="b" d="M879.03,259.82c-11.47-15.2-14.95,11.69-14.95,11.69,0,0,25.99,2.94,14.95-11.69Z"/><path class="b" d="M818.66,266.68c-12.47-12.96-12.92,13.48-12.92,13.48,0,0,26.79,.94,12.92-13.48Z"/><path class="b" d="M837.19,288.56c-12.29-15.02-14.09,12.84-14.09,12.84,0,0,25.6,1.23,14.09-12.84Z"/><path class="b" d="M865.75,285.3c-10.22-14.44-14.98,11.85-14.98,11.85,0,0,25.79,3.41,14.98-11.85Z"/><path class="b" d="M894.34,282.28c-9.25-13.96-14.97,10.92-14.97,10.92,0,0,24.87,4.02,14.97-10.92Z"/><path class="b" d="M881.14,308c-8.09-15.02-14.99,11.28-14.99,11.28,0,0,23.51,4.51,14.99-11.28Z"/><path class="b" d="M853.04,310.35c-7.94-13.83-14.15,12.43-14.15,12.43,0,0,22.29,1.75,14.15-12.43Z"/><path class="b" d="M908.59,306.44c-8.17-14.11-16.24,9.74-16.24,9.74,0,0,25.88,6.93,16.24-9.74Z"/><path class="b" d="M921.64,332.32c-6.48-16.33-16.67,7.24-16.67,7.24,0,0,22.83,8.27,16.67-7.24Z"/><path class="b" d="M894.77,332.46c-7.98-14.77-15.44,9.44-15.44,9.44,0,0,21.78,7.25,15.44-8.68"/><path class="b" d="M868.58,335.22c-6.79-16.57-15.08,10.07-15.08,10.07,0,0,21.41,5.35,15.08-10.07Z"/><path class="b" d="M932.31,357.71c-6.59-16.46-16.66,6.18-16.66,6.18,0,0,23.25,10.28,16.66-6.18Z"/><path class="b" d="M906.97,358.48c-6.29-17.88-15.86,7.75-15.86,7.75,0,0,20.65,5.88,15.86-7.75Z"/><path class="b" d="M881.44,360.08c-7.63-15.63-15.3,9.3-15.3,9.3,0,0,22.21,4.84,15.3-9.3Z"/><path class="b" d="M855.58,362.55c-7.34-16.49-15.39,9.76-15.39,9.76,0,0,21.72,4.45,15.39-9.76Z"/><path class="b" d="M867.77,387.96c-7.12-15.56-15.55,8.71-15.55,8.71,0,0,22.67,6.85,15.55-8.71Z"/><path class="b" d="M892.49,385.45c-6.38-15.6-16.05,8.16-16.05,8.16,0,0,21.84,5.99,16.05-8.16Z"/><path class="b" d="M916.63,383.87c-5.59-15.55-16.3,6.12-16.3,6.12,0,0,21.9,9.43,16.3-6.12Z"/><path class="b" d="M941.24,383.77c-5.46-17.31-16.65,4.81-16.65,4.81,0,0,21.43,10.33,16.65-4.81Z"/><path class="b" d="M948.47,410.53c-2.22-17.54-17.62,3.67-16.38,3.41,1.23-.26,18.42,12.81,16.38-3.41Z"/><path class="b" d="M924.94,411.23c-3.59-17.97-16.79,4.89-16.79,4.89,0,0,20.01,11.23,16.79-4.89Z"/><path class="b" d="M901.71,412.3c-5.48-16.39-15.85,6.65-15.85,6.65,0,0,21.03,8.81,15.85-6.65Z"/><path class="b" d="M877.78,414.17c-5.85-16.29-15.4,7.98-15.4,7.98,0,0,21.25,8.31,15.4-7.98Z"/><path class="b" d="M855.35,420.29c-6.16-15.73-15.18,8.58-15.18,8.58,0,0,21.34,7.14,15.18-8.58Z"/><path class="b" d="M863.39,446.93c-5.24-16.07-14.26,6.77-14.26,6.77,0,0,19.06,7.94,14.26-6.77Z"/><path class="b" d="M885.56,440.64c-4.52-16.28-14.66,7.02-14.66,7.02,0,0,19.59,10.75,14.66-7.02Z"/><path class="b" d="M908.64,439.34c-4.17-16.67-15.58,4.75-15.58,4.75,0,0,19.75,11.93,15.58-4.75Z"/><path class="b" d="M931.13,437.28c-2.37-16.66-15.96,5.18-15.96,5.18,0,0,18.27,10.96,15.96-5.18Z"/><path class="b" d="M954.01,437.79c-2.02-18.26-16.67,2.57-16.14,2.56,.53-.01,17.93,13.63,16.14-2.56Z"/><path class="b" d="M957.56,464.96c-1.13-18.48-16.35,1.91-16.35,1.91,0,0,17.5,16.88,16.35-1.91Z"/><path class="b" d="M959.52,493.29c-.85-18.39-15.48,0-15.48,0,0,0,16.23,16.23,15.48,0Z"/><path class="b" d="M935.58,465.64c-2.2-16.33-15.71,3.57-15.71,3.57,0,0,18.01,13.47,15.71-3.57Z"/><path class="b" d="M937.93,493.36c-.01-16.86-15.24,1.5-15.24,1.5,0,0,15.25,14.44,15.24-1.5Z"/><path class="b" d="M913.67,468.15c-1.99-18.48-15.95,3.13-15.95,3.13,0,0,17.55,11.77,15.95-3.13Z"/><path class="b" d="M916.47,495.02c-.28-17.66-15.3,2.48-15.3,2.48,0,0,15.54,13.2,15.3-2.48Z"/><path class="b" d="M891.72,470.35c-2.25-17-15.1,4.03-15.1,4.03,0,0,17.14,11.39,15.1-4.03Z"/><path class="b" d="M894.99,497.23c-.92-16.72-15.52,3.83-15.52,3.83,0,0,16.52,14.26,15.52-3.83Z"/><path class="b" d="M870.19,474.23c-3.41-16.36-15.16,5.99-15.16,5.99,0,0,18.57,10.37,15.16-5.99Z"/><path class="b" d="M873.9,501.76c-2.11-17.37-14.65,4.13-14.65,4.13,0,0,16.76,13.24,14.65-4.13Z"/><path class="b" d="M853.36,506.73c-1.3-16.23-15.52,4.59-15.52,4.59,0,0,16.74,10.73,15.52-4.59Z"/><path class="b" d="M848.45,478.65c-2.38-15.97-14.78,6.56-14.78,6.56,0,0,17.14,9.25,14.78-6.56Z"/><path class="b" d="M841.5,451.06c-5.4-16.32-15.86,6.79-15.86,6.79,0,0,21,8.76,15.86-6.79Z"/><path class="b" d="M831.98,424.37c-6.35-14.45-14.93,9-14.93,9,0,0,22.38,7.97,14.93-9Z"/><path class="b" d="M844.82,394.88c-8.13-16.44-15.91,8.69-15.91,8.69,0,0,24.39,8.47,15.91-8.69Z"/><path class="b" d="M820.39,399.09c-8.11-15.05-14.35,10.59-14.35,10.59,0,0,22.46,4.47,14.35-10.59Z"/><path class="b" d="M832.03,369.91c-9.46-14.87-14.95,11.17-14.95,11.17,0,0,23.48,2.23,14.95-11.17Z"/><path class="b" d="M806.19,374.27c-9.67-14.43-13.44,12.35-13.44,12.35,0,0,23.12,2.08,13.44-12.35Z"/><path class="b" d="M841.71,338.4c-9.48-14.47-14.79,11.63-14.79,11.63,0,0,24.28,2.83,14.79-11.63Z"/><path class="b" d="M817.14,345.88c-9.27-12.88-13.63,12.6-13.63,12.6,0,0,22.89,.28,13.63-12.6Z"/><path class="b" d="M789.3,350.89c-10.04-12.74-12.92,13.24-12.92,13.24,0,0,23.86,.64,12.92-13.24Z"/><path class="b" d="M800.09,324.22c-10.96-13.59-13.38,12.87-13.38,12.87,0,0,24.34,.72,13.38-12.87Z"/><path class="b" d="M825.4,314.69c-10.6-13.48-13.94,12.11-13.94,12.11,0,0,24.53,1.37,13.94-12.11Z"/><path class="b" d="M807.05,292.39c-12-12.87-13.14,15.1-13.14,15.1,0,0,25.57-1.77,13.14-15.1Z"/><path class="b" d="M781.83,302.99c-12.84-12.58-12.85,14.98-12.85,14.98,0,0,25.69-2.4,12.85-14.98Z"/><path class="b" d="M787.74,272.32c-13.24-12.26-12.92,15.88-12.92,15.88,0,0,25.24-4.47,12.92-15.88Z"/><path class="b" d="M760.74,283.1c-12.86-10.57-11.94,16.74-11.94,16.74,0,0,26.23-5,11.94-16.74Z"/><path class="b" d="M771.54,329.49c-13.18-13.49-13.37,14.57-12.84,14.36,.52-.21,25.46-1.46,12.84-14.36Z"/><path class="b" d="M750.87,309.26c-12.88-10.97-11.5,17.47-11.1,16.89,.39-.58,24.62-5.38,11.1-16.89Z"/><path class="b" d="M739.51,266.12c-15.68-9.85-9.73,17.68-9.73,17.68,0,0,25.34-7.87,9.73-17.68Z"/><path class="b" d="M729.34,291.65c-14.65-10.36-9.19,17.92-9.19,17.92,0,0,23.85-7.55,9.19-17.92Z"/><path class="b" d="M704.55,275.03c-14.77-8.35-8.06,18.95-8.06,18.95,0,0,22.83-10.59,8.06-18.95Z"/><path class="b" d="M716.04,250.51c-15.59-8.98-9.76,18.8-9.76,18.8,0,0,25.35-9.82,9.76-18.8Z"/><path class="b" d="M680.19,261.84c-16.29-7.55-9.24,18.39-9.24,18.39,0,0,25.52-10.84,9.24-18.39Z"/><path class="b" d="M691.92,237.5c-15.77-7.82-8.01,19.11-8.01,19.11,0,0,23.78-11.29,8.01-19.11Z"/><path class="b" d="M665.33,225.27c-16.46-6.09-5.94,19.95-5.94,19.95,0,0,22.39-13.86,5.94-19.95Z"/><path class="b" d="M639.6,216.32c-15.96-4.36-5.64,21.23-5.64,21.23,0,0,23.25-16.42,5.64-21.23Z"/><path class="b" d="M611.89,209.4c-16.83-3.28-3.69,21.51-3.69,21.51,0,0,20.52-18.23,3.69-21.51Z"/><path class="b" d="M584.76,204.69c-16.43-1.69-1.92,21.79-1.92,21.79,0,0,19.53-19.98,1.92-21.79Z"/><path class="b" d="M556.95,202.3c-16.32-.38-.41,20.81-.41,20.81,0,0,16.73-20.44,.41-20.81Z"/><path class="b" d="M529.16,202.28c-17.7,1.11,0,20.83,0,20.83,0,0,17.7-21.94,0-20.83Z"/><path class="b" d="M500.9,204.42c-16.86,2.79,1.86,22.04,1.86,22.04,0,0,15.99-24.99-1.86-22.04Z"/><path class="b" d="M473.04,209.08c-16.48,4.16,4.05,21.8,4.05,21.8,0,0,12.43-25.97-4.05-21.8Z"/><path class="b" d="M445.67,216.34c-17.47,5.96,5.36,19.98,5.36,19.98,0,0,12.98-26.24-5.36-19.98Z"/><path class="b" d="M419.53,225.59c-15.64,6.67,6.58,20.3,6.58,20.3,0,0,9.86-27.31-6.58-20.3Z"/><path class="b" d="M392.96,237.5c-15.24,8.23,8.93,19.32,8.93,19.32,0,0,7.18-28.02-8.93-19.32Z"/><path class="b" d="M368.31,251.24c-13.71,8.83,10.91,18.1,10.91,18.1,0,0,3.16-27.16-10.91-18.1Z"/><path class="b" d="M346.29,265.94c-14.11,10.98,9.92,17.65,9.92,17.65,0,0,4.19-28.63-9.92-17.65Z"/><path class="b" d="M324.31,283.49c-13.3,13.3,11.27,15.47,11.27,15.47,0,0,2.29-29.03-11.27-15.47Z"/><path class="b" d="M304.22,302.56c-12.31,13.26,11.62,15.6,11.62,15.6,0,0,.69-28.85-11.62-15.6Z"/><path class="b" d="M285.64,323.29c-10.84,13.89,13.11,14.31,13.11,14.31,0,0-1.91-28.66-13.11-14.31Z"/><path class="b" d="M269.32,344.75c-9.87,15.13,12.75,13.63,12.75,13.63,0,0-2.53-29.29-12.75-13.63Z"/><path class="b" d="M254.44,368.34c-9.01,16.76,14.07,11.95,14.07,11.95,0,0-5.06-28.71-14.07-11.95Z"/><path class="b" d="M241.27,393.75c-7.06,16.21,14.4,9.85,14.4,9.85,0,0-7.34-26.06-14.4-9.85Z"/><path class="b" d="M230.54,419.72c-5.63,16.26,15.2,8.57,15.2,8.57,0,0-9.57-24.83-15.2-8.57Z"/><path class="b" d="M221.76,446.93c-4.04,16.27,15.05,6.86,15.05,6.86,0,0-10.76-24.16-15.05-6.86Z"/><path class="b" d="M215.69,473.4c-2.82,17.96,15.37,4.85,15.37,4.85,0,0-12.36-24.04-15.37-4.85Z"/><path class="b" d="M211.77,500.45c-1.94,15.66,15.24,4.96,15.24,4.96,0,0-13.5-19-15.24-4.96Z"/><path class="b" d="M232.54,506.56c-2.71,16.75,14.84,4.82,14.84,4.82,0,0-12.52-19.13-14.84-4.82Z"/><path class="b" d="M237.12,477.52c-3.31,18.02,15.46,7.44,15.46,7.44,0,0-12.46-23.76-15.46-7.44Z"/><path class="b" d="M244.13,451c-5.25,17,15.45,7.67,15.45,7.67,0,0-11.07-21.81-15.45-7.67Z"/><path class="b" d="M253.18,513.15c-1.8,15.32,14.21,4.44,14.21,4.44,0,0-12.68-17.52-14.21-4.44Z"/><path class="b" d="M257.75,486.64c-3.48,17.3,15.2,5.63,15.2,5.63,0,0-12.28-20.2-15.2-5.63Z"/><path class="b" d="M264.88,460.46c-6.4,17.68,14.46,9.07,14.46,9.07,0,0-9.5-22.8-14.46-9.07Z"/><path class="b" d="M254.08,423.29c-6.73,17.11,13.3,11.78,13.3,11.78,0,0-6.82-28.26-13.3-11.78Z"/><path class="b" d="M274.47,434.93c-6.28,15.48,13.83,11,13.83,11,0,0-7.54-26.48-13.83-11Z"/><path class="b" d="M286.54,409.92c-8.17,15.9,13.88,11.98,13.88,11.98,0,0-6.03-27.26-13.88-11.98Z"/><path class="b" d="M265.41,398.5c-7.48,15.67,14.23,10.22,14.23,10.22,0,0-6.74-25.89-14.23-10.22Z"/><path class="b" d="M279.84,373.25c-8.45,16.36,13.22,13.35,13.22,13.35,0,0-5.43-28.42-13.22-13.35Z"/><path class="b" d="M300.19,387.41c-8.6,13.39,12.81,12.4,12.81,12.4,0,0-4.21-25.78-12.81-12.4Z"/><path class="b" d="M296.51,350.02c-10.99,14.76,13.1,13.32,13.1,13.32,0,0-2.66-27.34-13.1-13.32Z"/><path class="b" d="M316.9,364.92c-10.05,12.95,12.14,14.95,12.14,14.95,0,0-1.3-28.91-12.14-14.95Z"/><path class="b" d="M314.35,329.25c-10.23,11.3,12.86,14.09,12.86,14.09,0,0-2.63-25.39-12.86-14.09Z"/><path class="b" d="M334.49,309.31c-12.45,11.75,11.89,15.14,11.89,15.14,0,0,.56-26.89-11.89-15.14Z"/><path class="b" d="M334.84,344.94c-11.92,12.73,11.57,15.7,11.57,15.7,0,0-.1-27.95-11.57-15.7Z"/><path class="b" d="M353.74,327.44c-11.18,9.9,11.38,16.38,11.38,16.38,0,0-.2-26.28-11.38-16.38Z"/><path class="b" d="M356.7,291.35c-13.39,10.33,9.61,17.83,9.61,17.83,0,0,3.79-28.16-9.61-17.83Z"/><path class="b" d="M379.2,276.1c-13.7,8.95,10.93,17.32,10.93,17.32,0,0,3.48-26.73-10.93-17.32Z"/><path class="b" d="M405.31,261.89c-15.38,7.89,7.7,19.34,7.7,19.34,0,0,7.68-27.22-7.7-19.34Z"/><path class="b" d="M376.59,309.84c-12.85,9.43,8.62,17.93,8.62,17.93,0,0,4.92-27.87-8.62-17.93Z"/><path class="b" d="M399.29,295.68c-14.31,8.34,8.52,18.9,8.52,18.9,0,0,6.06-27.39-8.52-18.9Z"/><path class="b" d="M422.83,283.85c-13.94,6.6,7.81,19.37,7.81,19.37,0,0,6.13-25.96-7.81-19.37Z"/><path class="b" d="M449.04,273.49c-16.44,6.04,6.77,20.5,6.77,20.5,0,0,8.51-26.11-6.77-20.5Z"/><path class="b" d="M431.42,250.78c-15.71,6.19,6.28,19.66,6.28,19.66,0,0,9.43-25.85-6.28-19.66Z"/><path class="b" d="M458.52,241.63c-14.85,4.54,4.41,20.57,4.41,20.57,0,0,11.81-25.53-4.41-20.57Z"/><path class="b" d="M485.79,235.28c-17.85,3.71,3.62,20.41,3.62,20.41,0,0,12.8-23.82-3.62-20.41Z"/><path class="b" d="M514.31,231.39c-16.7,1.95,.88,21.29,.88,21.29,0,0,16.5-23.32-.88-21.29Z"/><path class="b" d="M542.91,230.13c-16.75,.39-.1,21.18-.1,21.18,0,0,17.89-21.59,.1-21.18Z"/><path class="b" d="M571.18,231.4c-16.58-1.1-1.71,21.3-1.71,21.3,0,0,18.81-20.16,1.71-21.3Z"/><path class="b" d="M599.85,235.35c-17.65-3.64-3.93,21.55-3.62,21.2,.31-.35,21.28-17.56,3.62-21.2Z"/><path class="b" d="M627.23,241.8c-16.37-4.32-4.77,20.6-4.77,20.6,0,0,21.14-16.27,4.77-20.6Z"/><path class="b" d="M654.23,250.81c-15.37-6.82-6.68,20.37-6.68,20.37,0,0,22.05-13.55,6.68-20.37Z"/><path class="b" d="M474.84,266.16c-15.69,4.07,4,21.18,4,21.18,0,0,11.69-25.25-4-21.18Z"/><path class="b" d="M502.09,261.25c-16.62,2.52,2.12,20.96,2.12,20.96,0,0,14.51-23.47-2.12-20.96Z"/><path class="b" d="M529.18,258.5c-17,1.2,.73,21.98,.73,21.98,0,0,16.27-23.18-.73-21.98Z"/><path class="b" d="M556.49,258.44c-15.75-.38-.87,21.69-.87,21.69,0,0,16.6-21.31,.87-21.69Z"/><path class="b" d="M584.12,261.06c-17.75-2.03-2.95,21.15-2.95,21.15,0,0,20.35-19.16,2.95-21.15Z"/><path class="b" d="M610.56,266.12c-15.99-3.43-5.15,21.23-5.15,21.23,0,0,21.14-17.8,5.15-21.23Z"/><path class="b" d="M636.55,273.5c-15.2-4.72-5.14,20.45-5.14,20.45,0,0,20.75-15.61,5.14-20.45Z"/><path class="b" d="M661.9,283.48c-15.18-6.36-6.92,20.22-6.92,20.22,0,0,22.42-13.73,6.92-20.22Z"/><path class="b" d="M686.81,296.01c-14.7-7.86-8.63,18.39-8.63,18.39,0,0,23.33-10.54,8.63-18.39Z"/><path class="b" d="M708.95,310.08c-13.15-8.86-9.21,17.59-9.21,17.59,0,0,22.35-8.72,9.21-17.59Z"/><path class="b" d="M731.04,326.68c-13.53-10.82-10.64,17.25-10.64,17.25,0,0,23.82-6.72,10.64-17.25Z"/><path class="b" d="M751.36,345.52c-11.96-11.69-12.09,15.75-12.09,15.75,0,0,24.03-4.07,12.09-15.75Z"/><path class="b" d="M768.96,365.63c-10.59-12.78-12.32,14.29-12.32,14.29,0,0,23.22-1.13,12.32-14.29Z"/><path class="b" d="M785.63,387.41c-10.18-13.99-15.21,11.41-15.21,11.41,0,0,25.38,2.57,15.21-11.41Z"/><path class="b" d="M799.62,411.47c-7.3-15.37-14.48,10.46-14.48,10.46,0,0,20.65,2.53,14.48-10.46Z"/><path class="b" d="M811.25,435.1c-6.78-15.26-14.83,10.13-14.83,10.13,0,0,20.99,3.71,14.83-10.13Z"/><path class="b" d="M821,461.25c-4.42-16.11-14.99,5.32-14.99,5.32,0,0,19.16,9.88,14.99-5.32Z"/><path class="b" d="M828.03,487.17c-3.96-15.97-14,6.47-14,6.47,0,0,18.13,10.14,14-6.47Z"/><path class="b" d="M832.44,513.39c-2.07-14.67-14.67,6.14-14.67,6.14,0,0,16.73,8.53,14.67-6.14Z"/><path class="b" d="M812.27,521.09c-1.91-16.93-14.11,5.27-14.11,5.27,0,0,15.81,9.71,14.11-5.27Z"/><path class="b" d="M806.84,492.9c-3.92-14.72-15.3,9.15-14.1,8.32,1.19-.83,18.03,6.41,14.1-8.32Z"/><path class="b" d="M798.88,466.3c-5.42-14.19-13.79,9.35-13.79,9.35,0,0,19.44,5.44,13.79-9.35Z"/><path class="b" d="M788.76,441.91c-7.56-14.74-14.58,10.04-13.95,10.07,.64,.04,20.79,3.27,13.95-10.07Z"/><path class="b" d="M774.91,416.11c-8.16-12.67-13.36,12.41-13.36,12.41,0,0,21.52,.26,13.36-12.41Z"/><path class="b" d="M759.85,394.01c-9.87-12.62-12.08,13.1-12.08,13.1,0,0,21.94-.49,12.08-13.1Z"/><path class="b" d="M741.43,372.11c-11.55-11.69-11.59,15.31-11.59,15.31,0,0,23.13-3.62,11.59-15.31Z"/><path class="b" d="M721.03,352.61c-12.18-10.14-10.18,17.39-10.18,17.39,0,0,22.35-7.25,10.18-17.39Z"/><path class="b" d="M699.67,335.8c-13.73-9.12-9.59,17.63-9.59,17.63,0,0,23.31-8.52,9.59-17.63Z"/><path class="b" d="M676.09,321.09c-15.18-6.9-9.81,19.53-8.77,19.42,1.04-.11,23.05-12.92,8.77-19.42Z"/><path class="b" d="M651.1,308.28c-14.47-6.52-6.29,20.76-6.29,20.76,0,0,20.76-14.25,6.29-20.76Z"/><path class="b" d="M624.98,298.94c-15.81-4.57-5.21,20.85-5.21,20.85,0,0,21.03-16.27,5.21-20.85Z"/><path class="b" d="M597.18,291.62c-15.39-3.36-2.59,21.8-2.59,21.8,0,0,20.04-17.98,2.59-21.8Z"/><path class="b" d="M569.6,287.62c-16.23-1.99-1.3,21.67-1.3,21.67,0,0,18.72-19.55,1.3-21.67Z"/><path class="b" d="M542.77,286.57c-16.42,.13,0,21.35,0,21.35,0,0,16.42-21.49,0-21.35Z"/><path class="b" d="M513.89,287.83c-16.17,2.15,2.68,21.47,2.68,21.47,0,0,13.93-23.67-2.68-21.47Z"/><path class="b" d="M487.48,291.95c-16.48,3.86,3.46,21.48,3.46,21.48,0,0,13.02-25.34-3.46-21.48Z"/><path class="b" d="M460.15,299.07c-15.54,5.35,5.38,20.71,5.38,20.71,0,0,10.16-26.05-5.38-20.71Z"/><path class="b" d="M434.46,308.64c-15.49,7.31,6.55,20.07,6.55,20.07,0,0,8.94-27.38-6.55-20.07Z"/><path class="b" d="M409.67,320.97c-14.38,8.51,7.79,18.75,7.79,18.75,0,0,6.59-27.26-7.79-18.75Z"/><path class="b" d="M386.1,335.71c-14.19,10.53,8.31,18.44,8.31,18.44,0,0,5.1-28.39-8.31-18.44Z"/><path class="b" d="M364.5,352.55c-12.79,11.84,10.15,16.86,10.15,16.86,0,0,3.35-29.36-10.15-16.86Z"/><path class="b" d="M344.19,372.09c-12.05,13.69,11.96,15.75,11.96,15.75,0,0,.09-29.45-11.96-15.75Z"/><path class="b" d="M325.96,393.79c-9.72,13.59,13.18,14.03,13.18,14.03,0,0-3.04-28.2-13.18-14.03Z"/><path class="b" d="M311.05,415.38c-9.02,15.76,12.73,13.84,12.73,13.84,0,0-3.72-29.6-12.73-13.84Z"/><path class="b" d="M297.52,440.44c-6.72,15.22,13.58,11.48,13.58,11.48,0,0-6.87-26.7-13.58-11.48Z"/><path class="b" d="M286.84,466.29c-5.59,16.48,13.64,9.35,13.64,9.35,0,0-8.3-25.07-13.64-9.35Z"/><path class="b" d="M278.69,492.89c-3.43,15,13.69,7.7,13.69,7.7,0,0-10.26-22.7-13.69-7.7Z"/><path class="b" d="M273.41,520.27c-2.51,15.79,14.32,6.15,14.32,6.15,0,0-12.37-18.48-14.32-6.15Z"/><path class="b" d="M293.02,528.4c-2.07,13.1,13.94,6.81,13.94,6.81,0,0-11.42-22.72-13.94-6.81Z"/><path class="b" d="M298.93,501.37c-3.4,14.8,13.43,7.54,13.43,7.54,0,0-9.64-24.01-13.43-7.54Z"/><path class="b" d="M307.18,475.11c-6.07,14.71,14.26,8.45,14.26,8.45,0,0-8.03-23.54-14.26-8.45Z"/><path class="b" d="M318.77,450.26c-6.69,13.53,13.37,12.69,13.37,12.69,0,0-6.68-26.22-13.37-12.69Z"/><path class="b" d="M332.27,427.12c-7.29,13.81,12.88,12.98,12.88,12.98,0,0-3.84-30.1-12.88-12.98Z"/><path class="b" d="M348.98,404.61c-9.3,11.62,11.69,15.27,11.69,15.27,0,0-2.4-26.9-11.69-15.27Z"/><path class="b" d="M367.81,384.72c-10.87,10.91,11.37,16.63,11.37,16.63,0,0,.25-28.28-11.37-16.63Z"/><path class="b" d="M388.69,366.62c-13.27,10.78,9.39,17.25,9.39,17.25,0,0,3.4-27.64-9.39-17.25Z"/><path class="b" d="M410.18,351.8c-12.2,7.96,9.8,18.55,9.8,18.55,0,0,2.4-26.51-9.8-18.55Z"/><path class="b" d="M435.94,337.98c-15.03,7.45,6.26,19.78,6.26,19.78,0,0,8.78-27.23-6.26-19.78Z"/><path class="b" d="M461.48,327.68c-15.68,5.88,4.87,20.4,4.87,20.4,0,0,10.81-26.28-4.87-20.4Z"/><path class="b" d="M488.05,320.3c-15.86,3.93,3.43,21,3.43,21,0,0,12.43-24.94-3.43-21Z"/><path class="b" d="M515.3,315.84c-16.61,2.28,1.9,21.95,1.9,21.95,0,0,14.72-24.23-1.9-21.95Z"/><path class="b" d="M542.89,314.28c-16.38,0,0,21.38,0,21.38,0,0,16.38-21.38,0-21.38Z"/><path class="b" d="M569.52,315.75c-15.77-1.21-1.06,22.05-1.06,22.05,0,0,18.04-20.75,1.06-22.05Z"/><path class="b" d="M597.11,320.3c-16.47-3.21-3.47,21.01-3.47,21.01,0,0,20.27-17.73,3.47-21.01Z"/><path class="b" d="M624.97,328.26c-16.42-5.31-5.91,20.42-5.91,20.42,0,0,22.86-14.94,5.91-20.42Z"/><path class="b" d="M649.22,337.61c-14.42-7.26-5.74,20.14-5.74,20.14,0,0,21.27-12.32,5.74-20.14Z"/><path class="b" d="M674.02,350.9c-14.24-9.41-8.52,19.03-8.52,19.03,0,0,22.75-9.61,8.52-19.03Z"/><path class="b" d="M696.51,366.26c-13.03-9.37-8.45,17.98-8.45,17.98,0,0,22.86-7.61,8.45-17.98Z"/><path class="b" d="M717.32,384.18c-11.9-10.88-10.42,16.4-10.42,16.4,0,0,22.32-5.51,10.42-16.4Z"/><path class="b" d="M736.09,404.12c-9.78-13.41-11.27,15.39-11.27,15.39,0,0,21.31-1.61,11.27-15.39Z"/><path class="b" d="M752.83,426.49c-10.07-14.08-12.47,13.64-12.47,13.64,0,0,22.96,1.02,12.47-13.64Z"/><path class="b" d="M766.88,450.22c-7.47-15.05-12.93,12.17-12.93,12.17,0,0,20.62,3.31,12.93-12.17Z"/><path class="b" d="M778.21,475.2c-6.52-15.44-12.36,10.43-12.36,10.43,0,0,18.87,5.01,12.36-10.43Z"/><path class="b" d="M786.55,501.43c-4.71-16.32-13.99,8.22-13.99,8.22,0,0,18.71,8.11,13.99-8.22Z"/><path class="b" d="M792.19,528.44c-1.87-15.81-13.86,6.81-13.86,6.81,0,0,15.63,8.08,13.86-6.81Z"/><path class="b" d="M772.78,538.03c-2.41-15.5-13.09,5.49-13.09,5.49,0,0,15.49,10.01,13.09-5.49Z"/><path class="b" d="M766.84,511.06c-4.69-15.66-12.95,9.19-12.95,9.19,0,0,17.28,5.27,12.95-9.19Z"/><path class="b" d="M757.61,484.67c-5.28-14.33-12.82,11.27-12.82,11.27,0,0,17.94,2.61,12.82-11.27Z"/><path class="b" d="M745.65,460.54c-8.3-14.17-12.28,13.38-12.28,13.38,0,0,19.81-.52,12.28-13.38Z"/><path class="b" d="M731.32,438.15c-9.98-13.02-11.53,14.78-11.53,14.78,0,0,21.5-1.76,11.53-14.78Z"/><path class="b" d="M713.43,416.37c-11.63-11.71-10.64,16.29-10.64,16.29,0,0,22.26-4.58,10.64-16.29Z"/><path class="b" d="M693.95,397.88c-12.25-8.76-9.87,17.89-9.52,17.66,.35-.22,22-8.74,9.52-17.66Z"/><path class="b" d="M672.09,381.37c-13.74-8.61-8.1,19.11-8.1,19.11,0,0,21.85-10.5,8.1-19.11Z"/><path class="b" d="M647.26,367.02c-14.04-5.58-6.08,20.76-5.63,20.25,.45-.51,21.13-14.09,5.63-20.25Z"/><path class="b" d="M622.65,356.39c-15.82-5.17-4.67,20.74-4.67,20.74,0,0,20.4-15.6,4.67-20.74Z"/><path class="b" d="M596.56,348.22c-16.28-2.83-3.3,21.66-3.3,21.66,0,0,20.61-18.65,3.3-21.66Z"/><path class="b" d="M570.01,343.62c-16.61-2.1-2.61,21.03-2.08,21.63,.52,.6,18.69-19.53,2.08-21.63Z"/><path class="b" d="M542.89,342.44c-16.02,.44-.1,21.51-.1,21.51,0,0,16.13-21.95,.1-21.51Z"/><path class="b" d="M514.77,344.11c-15.7,2.41,2.58,21.18,2.58,21.18,0,0,13.76-23.68-2.58-21.18Z"/><path class="b" d="M487.56,348.34c-14.59,4.54,4.47,21.51,4.47,21.51,0,0,12.12-27.16-3.95-21.88"/><path class="b" d="M461.77,356.35c-15.5,6.8,5.68,21.17,5.68,21.17,0,0,9.82-27.97-5.68-21.17Z"/><path class="b" d="M437.22,367.37c-14.99,8.34,6.77,19.52,6.77,19.52,0,0,8.23-27.85-6.77-19.52Z"/><path class="b" d="M413.59,381.27c-14.13,10.13,8.1,18.63,8.1,18.63,0,0,6.04-28.76-8.1-18.63Z"/><path class="b" d="M391.79,397.62c-13.16,11.03,8.69,17.26,8.69,17.26,0,0,4.8-28.56-8.69-17.26Z"/><path class="b" d="M372.29,416.58c-11.62,13.11,11.79,15.05,11.79,15.05,0,0-.18-28.16-11.79-15.05Z"/><path class="b" d="M354.19,438.21c-9.12,13.41,12.46,13.6,12.46,13.6,0,0-2.9-27.66-12.46-13.6Z"/><path class="b" d="M339.74,460.71c-7.51,14.47,12.55,12.78,12.55,12.78,0,0-5.03-27.25-12.55-12.78Z"/><path class="b" d="M327.73,485.48c-5.94,15.81,12.78,10.62,12.78,10.62,0,0-6.43-27.52-12.78-10.62Z"/><path class="b" d="M318.14,510.91c-3.75,17.13,14,8.47,14,8.47,0,0-10.55-24.25-14-8.47Z"/><path class="b" d="M313.04,536.13c-2.74,14.48,13.88,7.43,13.88,7.43,0,0-10.97-22.89-13.88-7.43Z"/><path class="b" d="M331.77,547.71c-3.05,14.94,13.04,6.14,13.04,6.14,0,0-10.33-19.4-13.04-6.14Z"/><path class="b" d="M338.07,521.31c-4.71,16.69,12.5,8.99,12.5,8.99,0,0-8.42-23.45-12.5-8.99Z"/><path class="b" d="M347.89,495.46c-6.44,15.25,12.38,11.31,12.38,11.31,0,0-6.16-26.04-12.38-11.31Z"/><path class="b" d="M350.16,558.72c-1.7,13.84,11.1,7.28,11.1,7.28,0,0-9.53-20.05-11.1-7.28Z"/><path class="b" d="M356.33,532.36c-3.8,14.99,13.39,9.26,13.39,9.26,0,0-9.35-25.2-13.39-9.26Z"/><path class="b" d="M366.88,507.97c-4.73,11.2,12.46,11.2,12.46,11.2,0,0-6.53-25.24-12.46-11.2Z"/><path class="b" d="M360.44,471.81c-8.08,14.2,11.52,13.43,11.52,13.43,0,0-3.44-27.62-11.52-13.43Z"/><path class="b" d="M375.96,450.18c-9.44,12.21,12.03,15.1,12.03,15.1,0,0-2.58-27.31-12.03-15.1Z"/><path class="b" d="M380.58,484.33c-8.09,12.63,11.73,14.25,11.73,14.25,0,0-3.89-26.49-11.73-14.25Z"/><path class="b" d="M397.33,463.09c-9.97,11.54,10.74,16.05,10.74,16.05,0,0-.78-27.58-10.74-16.05Z"/><path class="b" d="M394.28,430.07c-10.14,10.28,10.09,16.65,10.09,16.65,0,0,.65-27.52-10.09-16.65Z"/><path class="b" d="M414.43,412.93c-11.35,9.07,8.73,17.49,8.73,17.49,0,0,3.49-27.26-8.73-17.49Z"/><path class="b" d="M438.36,397.49c-14.79,8.89,6.71,18.95,6.71,18.95,0,0,8.08-27.84-6.71-18.95Z"/><path class="b" d="M462.31,386.07c-14.42,6.38,5.72,20.22,5.72,20.22,0,0,8.7-26.6-5.72-20.22Z"/><path class="b" d="M489,377.3c-15.16,5.52,3.07,21.17,3.07,21.17,0,0,11.65-26.54-3.07-21.17Z"/><path class="b" d="M515.69,372.16c-16.17,2.65,1.53,21.3,1.53,21.3,0,0,14.64-23.95-1.53-21.3Z"/><path class="b" d="M542.79,370.49c-15.76,0,0,21.59,0,21.59,0,0,16.44-21.59,0-21.59Z"/><path class="b" d="M569.42,371.95c-15.85-2.08-1.52,21.5-1.52,21.5,0,0,17.75-19.37,1.52-21.5Z"/><path class="b" d="M597.12,377.85c-16.53-3.97-4.34,20.66-4.34,20.66,0,0,22.39-16.32,4.34-20.66Z"/><path class="b" d="M622.6,385.8c-15.8-5.76-6.07,19.91-6.07,19.91,0,0,21.88-14.15,6.07-19.91Z"/><path class="b" d="M647.68,397.75c-14.56-9.19-7.22,18.7-7.22,18.7,0,0,21.77-9.52,7.22-18.7Z"/><path class="b" d="M670.14,412.27c-12.69-8.89-8.07,19.53-7.9,19.11,.15-.42,20.13-10.54,7.9-19.11Z"/><path class="b" d="M691.05,429.82c-11.74-10.72-9.9,16.51-9.9,16.51,0,0,21.64-5.79,9.9-16.51Z"/><path class="b" d="M709.31,449.6c-9.1-11.81-10.9,14.64-10.9,14.64,0,0,19.7-3.21,10.9-14.64Z"/><path class="b" d="M725.42,472.4c-9.55-14.5-12.35,13.91-12.35,13.91,0,0,21.34-.24,12.35-13.91Z"/><path class="b" d="M737.41,496.35c-6.96-15.61-12.3,10.66-12.3,10.66,0,0,18.95,4.3,12.3-10.66Z"/><path class="b" d="M747.51,521.59c-6.4-16.13-12.4,10.59-12.4,10.59,0,0,18.1,3.78,12.4-10.59Z"/><path class="b" d="M753.88,548.14c-3.2-16.37-12.8,7.28-12.8,7.28,0,0,15.77,7.86,12.8-7.28Z"/><path class="b" d="M735.4,558.77c-3.09-14.72-12.24,9.35-12.24,9.35,0,0,15.33,5.38,12.24-9.35Z"/><path class="b" d="M728.66,532.38c-4.28-14.47-13.28,9.08-13.28,9.08,0,0,17.52,5.24,13.28-9.08Z"/><path class="b" d="M718.8,508.24c-7.36-14.16-12.06,11.98-11.96,11.87,.12-.11,19.31,2.28,11.96-11.87Z"/><path class="b" d="M704.55,483.88c-8.7-12.05-10.61,15.39-10.61,15.39,0,0,19.69-2.82,10.61-15.39Z"/><path class="b" d="M687.45,462.11c-10.02-10.19-9.86,16.34-9.86,16.34,0,0,21.41-4.6,9.86-16.34Z"/><path class="b" d="M667.46,443.15c-11.54-9.03-7.21,18.62-7.21,18.62,0,0,18.76-9.59,7.21-18.62Z"/><path class="b" d="M645.33,427.41c-13.99-7.86-7.39,20.13-7.39,20.13,0,0,21.37-12.27,7.39-20.13Z"/><path class="b" d="M621.55,415.03c-14.84-5.84-5.44,20.59-5.44,20.59,0,0,21.16-14.4,5.44-20.59Z"/><path class="b" d="M596.17,406.01c-15.64-3.95-4.4,20.63-4.4,20.63,0,0,20.03-16.68,4.4-20.63Z"/><path class="b" d="M569.09,400.31c-16.09-1.53-.86,20.99-.86,20.99,0,0,16.95-19.45,.86-20.99Z"/><path class="b" d="M542.81,398.64c-15.61,0,.15,21.48,.15,21.48,0,0,16.85-21.48-.15-21.48Z"/><path class="b" d="M515.36,400.75c-16.15,2.56,2.2,20.56,2.2,20.56,0,0,13.96-23.12-2.2-20.56Z"/><path class="b" d="M488.54,406.14c-15.52,5.08,4.42,20.5,4.42,20.5,0,0,11.11-25.58-4.42-20.5Z"/><path class="b" d="M463,415.21c-14.91,7.52,5.97,20.2,5.97,20.2,0,0,8.93-27.72-5.97-20.2Z"/><path class="b" d="M438.46,428.48c-13.02,8.98,8.52,18.18,8.52,18.18,0,0,5.75-28.02-8.52-18.18Z"/><path class="b" d="M417.26,443.8c-13.42,12.14,8.66,17.27,8.66,17.27,0,0,4.17-28.88-8.66-17.27Z"/><path class="b" d="M367.99,570.69c-3.27,15.38,11.98,9.34,11.98,9.34,0,0-8.9-23.81-11.98-9.34Z"/><path class="b" d="M375.16,544.57c-5.03,16.84,12.76,9.94,12.76,9.94,0,0-9-22.51-12.76-9.94Z"/><path class="b" d="M386.22,519.49c-8.04,14.17,10.97,13.59,10.97,13.59,0,0-2.86-27.88-10.97-13.59Z"/><path class="b" d="M401.17,496.68c-9.11,12.58,11.15,15.18,11.15,15.18,0,0-2.05-27.76-11.15-15.18Z"/><path class="b" d="M418.97,476.49c-11.35,11.88,8.43,17.09,8.43,17.09,0,0,2.91-28.97-8.43-17.09Z"/><path class="b" d="M440.3,458.98c-12.8,9.63,7.95,18.54,7.95,18.54,0,0,4.85-28.17-7.95-18.54Z"/><path class="b" d="M463.02,445.41c-14.35,7.85,6.85,19.45,6.85,19.45,0,0,7.02-27.04-6.85-19.45Z"/><path class="b" d="M489.03,434.95c-15.74,5.68,3.72,20.57,3.72,20.57,0,0,12.02-26.26-3.72-20.57Z"/><path class="b" d="M515.71,428.79c-16.52,3.2,2.23,21.86,2.23,21.86,0,0,14.29-25.06-2.23-21.86Z"/><path class="b" d="M543.19,426.69c-15.6,0-.34,21.7-.34,21.7,0,0,17.86-21.7,.34-21.7Z"/><path class="b" d="M570.03,428.79c-15.81-2.74-2.08,21.58-2.08,21.58,0,0,18.51-18.73,2.08-21.58Z"/><path class="b" d="M596.98,435.05c-16.33-5.61-4.13,20.47-4.13,20.47,0,0,20.97-14.7,4.13-20.47Z"/><path class="b" d="M621.93,444.84c-15-6.36-5.97,20.28-5.97,20.28,0,0,21.49-13.7,5.97-20.28Z"/><path class="b" d="M645.31,458.99c-14.23-9.25-8.01,18.54-8.01,18.54,0,0,22.24-9.29,8.01-18.54Z"/><path class="b" d="M666.56,476.41c-13.11-11.87-8.43,16.85-8.43,16.85,0,0,20-6.38,8.43-16.85Z"/><path class="b" d="M684.74,496.88c-10.4-12.77-10.99,13.01-10.99,13.01,0,0,21.46-.16,10.99-13.01Z"/><path class="b" d="M699.3,519.6c-7.63-13.08-10.26,13.51-10.26,13.51,0,0,18.39,.4,10.26-13.51Z"/><path class="b" d="M710.77,545.37c-6.94-16.66-11.79,11.62-11.79,11.62,0,0,16.95,.73,11.79-11.62Z"/><path class="b" d="M717.74,571.83c-2.75-17.19-13.46,5.63-12.28,6.1,1.19,.46,14.33,6.75,12.28-6.1Z"/><path class="b" d="M700.47,584.12c-3.23-17.54-11.47,8.57-11.47,8.57,0,0,13.99,5.12,11.47-8.57Z"/><path class="b" d="M692.7,557.1c-4.88-15.36-10.67,12.36-10.67,12.36,0,0,15.22,1.93,10.67-12.36Z"/><path class="b" d="M680.92,533.07c-8.14-14.66-10.67,13.9-10.67,13.9,0,0,17.5-1.6,10.67-13.9Z"/><path class="b" d="M664.98,510.27c-10.89-12.51-9.84,16.57-9.84,16.57,0,0,21.06-3.69,9.84-16.57Z"/><path class="b" d="M645.06,491.37c-13.36-10.06-9.61,18.26-8.74,17.83,.87-.43,22.63-7.38,8.74-17.83Z"/><path class="b" d="M621.7,475.39c-13.04-6.81-7.19,19.7-6.67,19.53,.53-.17,20.51-12.3,6.67-19.53Z"/><path class="b" d="M596.97,464.09c-16.41-4.95-4.56,20.71-4.13,20.71s20.54-15.76,4.13-20.71Z"/><path class="b" d="M570.11,457.12c-14.62-2.41-2.07,21.18-2.07,21.18,0,0,20.6-18.13,2.07-21.18Z"/><path class="b" d="M542.8,454.86c-16.65,0,.1,21.79,.1,21.79,0,0,17.25-21.79-.1-21.79Z"/><path class="b" d="M514.98,457.22c-16.6,3.64,2.73,21.08,2.73,21.08,0,0,13.86-24.73-2.73-21.08Z"/><path class="b" d="M487.95,464.32c-14.63,6.23,4.75,20.47,4.75,20.47,0,0,11.39-27.34-4.75-20.47Z"/><path class="b" d="M463.37,475.61c-15.04,9.63,6.54,19.28,6.54,19.28,0,0,8.5-28.9-6.54-19.28Z"/><path class="b" d="M440.88,490.99c-12.56,11.35,8.36,17.35,8.36,17.35,0,0,4.79-29.23-8.36-17.35Z"/><path class="b" d="M420.98,510.33c-10.53,13.39,9.59,15.88,9.59,15.88,0,0,.93-29.28-9.59-15.88Z"/><path class="b" d="M405.27,531.98c-8.42,13.98,11.06,13.58,11.06,13.58,0,0-2.39-27.98-11.06-13.58Z"/><path class="b" d="M392.97,557.11c-6.24,13.99,11.8,11.02,11.8,11.02,0,0-5.55-25.02-11.8-11.02Z"/><path class="b" d="M385.5,582.02c-3.02,16.12,11,9.72,11,9.72,0,0-8.52-22.94-11-9.72Z"/><path class="b" d="M401.89,596.79c-2.47,14.43,11.28,9.45,11.28,9.45,0,0-8.9-23.29-11.28-9.45Z"/><path class="b" d="M409.95,570.78c-6.55,15.47,10.56,10.51,10.56,10.51,0,0-5.03-23.57-10.56-10.51Z"/><path class="b" d="M424.21,544.82c-10.3,15.72,9.99,15.2,9.99,15.2,0,0-1.99-27.42-9.99-15.2Z"/><path class="b" d="M441,524.74c-11.33,12.49,9.14,15.82,9.14,15.82,0,0,2.19-28.31-9.14-15.82Z"/><path class="b" d="M463.22,506.65c-13.16,9.85,7.67,18.48,7.67,18.48,0,0,6.18-28.84-7.67-18.48Z"/><path class="b" d="M486.82,494.13c-13.58,6.45,5.78,20.32,5.78,20.32,0,0,8.45-27.09-5.78-20.32Z"/><path class="b" d="M514.96,485.59c-17.48,4.28,2.79,21.11,2.79,21.11,0,0,13.7-25.15-2.79-21.11Z"/><path class="b" d="M542.77,483.04c-15.76,0,.23,21.16,.23,21.16,0,0,17.41-21.16-.23-21.16Z"/><path class="b" d="M570.32,485.38c-16.34-3.66-3.22,21.32-3.22,21.32,0,0,18.22-17.96,3.22-21.32Z"/><path class="b" d="M598.01,493.8c-16.79-6.29-5.14,20.11-5.14,20.11,0,0,19.89-14.58,5.14-20.11Z"/><path class="b" d="M623.27,507.24c-15.1-9.02-9.33,17.95-9.33,17.95,0,0,24.44-8.93,9.33-17.95Z"/><path class="b" d="M644.54,524.77c-13.06-12.99-8.42,17.31-8.42,17.31,0,0,18.5-7.29,8.42-17.31Z"/><path class="b" d="M662,545.58c-9.3-14.98-9.23,14.55-9.23,14.55,0,0,17.77-.79,9.23-14.55Z"/><path class="b" d="M675.88,571.26c-6.3-15.75-10.31,11.79-10.31,11.79,0,0,16.26,3.06,10.31-11.79Z"/><path class="b" d="M683.63,596.66c-2.91-18.77-12.8,9.26-11.62,9.45,1.18,.19,13.65,3.66,11.62-9.45Z"/><path class="b" d="M668.13,612.1c-2.24-21.86-10.07,9.31-10.07,9.31,0,0,11.34,3.11,10.07-9.31Z"/><path class="b" d="M659.77,586.47c-5.99-14.46-9.65,12.65-9.65,12.65,0,0,16.25,3.26,9.65-12.65Z"/><path class="b" d="M646.34,563.27c-9.91-12.06-9.22,16.95-9.22,16.95,0,0,19.51-4.42,9.22-16.95Z"/><path class="b" d="M628.79,544.01c-13.6-10.94-7.76,17.64-7.76,17.64,0,0,21.35-6.7,7.76-17.64Z"/><path class="b" d="M606.82,527.87c-15.07-7.41-5.63,19.56-5.63,19.56,0,0,20.7-12.15,5.63-19.56Z"/><path class="b" d="M582.3,517.21c-15.6-4.99-2.95,20.83-2.95,20.83,0,0,18.57-15.83,2.95-20.83Z"/><path class="b" d="M556.2,511.67c-16.7-2.39-.95,21.54-.95,21.54,0,0,17.65-19.15,.95-21.54Z"/><path class="b" d="M529.05,511.49c-16.2,2.15,2.27,21.71,2.27,21.71,0,0,13.99-23.86-2.27-21.71Z"/><path class="b" d="M503.27,517.19c-15.79,6.1,3.48,20.83,3.48,20.83,0,0,12.31-26.93-3.48-20.83Z"/><path class="b" d="M477.94,528.09c-13.28,9.32,7.08,19.16,7.08,19.16,0,0,7.01-29.06-7.08-19.16Z"/><path class="b" d="M456.51,544.06c-11.17,11.73,8.44,17.01,8.44,17.01,0,0,3.55-29.59-8.44-17.01Z"/><path class="b" d="M439.24,563.42c-8.1,12.59,9.12,14.6,9.12,14.6,0,0,0-28.78-9.12-14.6Z"/><path class="b" d="M425.81,586.55c-7.28,13.76,9.4,14,9.4,14,0,0-2.26-27.5-9.4-14Z"/><path class="b" d="M417.54,612.56c4.84-16.91,9.92,8.42,9.92,8.42,0,0-13.47,4.01-9.92-8.42Z"/><path class="b" d="M432.84,625.99c-3.92,14.67,9.33,9.9,9.33,9.9,0,0-5.97-22.47-9.33-9.9Z"/><path class="b" d="M442.07,600.91c-6.34,15.39,9.35,14.31,9.35,14.31,0,0-3.29-29-9.35-14.31Z"/><path class="b" d="M457.14,577.88c-10.55,12.82,7.85,16.79,7.85,16.79,0,0,3.19-30.21-7.85-16.79Z"/><path class="b" d="M477.9,559.37c-12.91,10.28,6.45,18.53,6.45,18.53,0,0,6.46-28.82-6.45-18.53Z"/><path class="b" d="M502.14,546.6c-15.39,7.08,4.94,19.79,4.94,19.79,0,0,10.45-26.87-4.94-19.79Z"/><path class="b" d="M529.06,539.97c-15.87,1.92,2.27,21.05,2.27,21.05,0,0,13.99-23.03-2.27-21.05Z"/><path class="b" d="M556.23,539.87c-16.8-2.33-1.76,21.69-1.76,21.69,0,0,20.51-19.09,1.76-21.69Z"/><path class="b" d="M582.33,546.22c-15.57-5.76-2.94,21.51-2.94,21.51,0,0,19.97-15.22,2.94-21.51Z"/><path class="b" d="M607.77,559.6c-14.36-8.84-6.52,20.5-6.52,20.5,0,0,20.87-11.66,6.52-20.5Z"/><path class="b" d="M628.47,578.21c-10.91-12.75-7.9,17.16-7.9,17.16,0,0,18.81-4.42,7.9-17.16Z"/><path class="b" d="M643.38,600.48c-7.61-14.02-8.31,14.73-8.31,14.73,0,0,15.88-.76,8.31-14.73Z"/><path class="b" d="M653.09,627.99c-3.79-18.6-10.37,6.85-10.37,6.85,0,0,13.29,7.5,10.37-6.85Z"/><path class="b" d="M638.92,644.02c-2.32-18.51-8.8,10.18-8.8,10.18,0,0,10.6,4.14,8.8-10.18Z"/><path class="b" d="M629.27,618.35c-7.18-14.29-8.72,14.94-8.72,14.94,0,0,15.89-.65,8.72-14.94Z"/><path class="b" d="M613.89,597.31c-11.72-10.72-7.36,17.81-7.36,17.81,0,0,19.09-7.1,7.36-17.81Z"/><path class="b" d="M593.23,580.72c-12.96-6.42-5.42,19.84-5.42,19.84,0,0,19.4-12.91,5.42-19.84Z"/><path class="b" d="M568.95,570.69c-14.51-4.26-1.9,21.14-1.9,21.14,0,0,17.52-16.56,1.9-21.14Z"/><path class="b" d="M542.75,567.28c-15.71,0-1.61,22.92,0,22.21,1.61-.72,16.94-22.21,0-22.21Z"/><path class="b" d="M515.3,571.04c-14.5,5.5,3.25,20.8,3.25,20.8,0,0,11.96-26.58-3.25-20.8Z"/><path class="b" d="M491.64,581.38c-12.89,9.39,6.06,18.99,6.06,18.99,0,0,7.8-29.09-6.06-18.99Z"/><path class="b" d="M471.7,597.32c-11.46,12.19,6.84,17.76,6.84,17.76,0,0,5.3-30.68-6.84-17.76Z"/><path class="b" d="M455.89,617.67c-7.35,14.7,9.09,15.58,9.09,15.58,0,0-1.74-30.27-9.09-15.58Z"/><path class="b" d="M446.84,643.8c-2.95,13.69,9.93,8.06,9.93,8.06,0,0-6.69-23.1-9.93-8.06Z"/><path class="b" d="M460.38,660.43c5.12-23.52,9.36,9.2,9.36,9.2,0,0-12.04,3.13-9.36-9.2Z"/><path class="b" d="M471.6,634.01c-9.37,13.88,8.14,15.53,8.14,15.53,0,0,.52-28.37-8.14-15.53Z"/><path class="b" d="M490.35,613.48c-12.56,9.8,5.96,18.73,5.96,18.73,0,0,7.21-29.01-5.96-18.73Z"/><path class="b" d="M514.18,600.42c-14.16,4.5,4.37,20.21,4.37,20.21,0,0,13.92-26.02-4.37-20.21Z"/><path class="b" d="M542.78,594.99c-16.42,0,.05,22.06,.05,22.06,0,0,18.63-22.06-.05-22.06Z"/><path class="b" d="M570.3,599.52c-17.61-6.3-4.31,21.01-4.31,21.01,0,0,21.92-14.71,4.31-21.01Z"/><path class="b" d="M595.74,613.83c-15.55-13.2-7.11,17.82-7.11,17.82,0,0,20.16-6.74,7.11-17.82Z"/><path class="b" d="M614.03,633.87c-10.92-16.42-7.9,14.52-7.9,14.52,0,0,18.38,1.25,7.9-14.52Z"/><path class="b" d="M625.45,659.95c-5.94-19.17-8.12,11.29-8.12,11.29,0,0,12.39,2.5,8.12-11.29Z"/><path class="b" d="M612.48,677.05c-2.89-17.29-8.18,11.33-8.18,11.33,0,0,10.4,1.93,8.18-11.33Z"/><path class="b" d="M600.66,652.5c-11.42-15.98-7.4,17.65-6.93,16.94,.47-.71,16.71-3.24,6.93-16.94Z"/><path class="b" d="M582.1,635.17c-16.75-11.37-5.56,18.56-5.56,18.56,0,0,19.73-8.93,5.56-18.56Z"/><path class="b" d="M556.45,624.88c-17.83-3.61-2.02,21-2.02,21,0,0,19.85-17.38,2.02-21Z"/><path class="b" d="M528.74,624.93c-15.45,3.13,2.56,20.23,2.56,20.23,0,0,12.89-23.37-2.56-20.23Z"/><path class="b" d="M503.44,634.4c-13.65,8.27,6.1,18.55,6.1,18.55,0,0,8.97-27.67-6.1-18.55Z"/><path class="b" d="M484.33,653.32c-9.85,13.01,7.9,15.49,7.9,15.49,0,0,1.94-28.5-7.9-15.49Z"/><path class="b" d="M473.2,676.93c-3.38,13.53,8.26,10.6,8.26,10.6,0,0-4.2-26.84-8.26-10.6Z"/><path class="b" d="M484.71,695.57c-2.87,13.37,7.66,10.6,7.66,10.6,0,0-4.4-25.8-7.66-10.6Z"/><path class="b" d="M495.44,715.19c-3.27,10.86,6.82,10.83,6.82,10.83,0,0-2.93-23.77-6.82-10.83Z"/><path class="b" d="M496.73,672.91c-8.97,11.6,6.98,16.74,6.98,16.74,0,0,3.39-30.15-6.98-16.74Z"/><path class="b" d="M517.57,657.14c-16.4,7.92,3.83,19.53,3.83,19.53,0,0,11.5-26.92-3.83-19.53Z"/><path class="b" d="M542.74,651.71c-19,0,0,21.39,0,21.39,0,0,17.69-21.39,0-21.39Z"/><path class="b" d="M567.92,657.14c-17.29-8.24-3.58,19.52-3.58,19.52,0,0,18.9-12.23,3.58-19.52Z"/><path class="b" d="M589.05,673.11c-11.14-12.84-6.24,16.56-6.24,16.56,0,0,17.39-3.73,6.24-16.56Z"/><path class="b" d="M601.04,696.34c-3.81-16.06-7.24,10.1-7.24,10.1,0,0,10.45,3.44,7.24-10.1Z"/><path class="b" d="M590,715.77c-4.2-16.96-6.71,10.2-6.71,10.2,0,0,9.74,2.01,6.71-10.2Z"/><path class="b" d="M577.19,693.63c-13.57-12.48-5.27,15.82-5.27,15.82,0,0,16.57-5.43,5.27-15.82Z"/><path class="b" d="M555.23,681.11c-15.44-4.14-1.91,21.08-1.91,21.08,0,0,18.61-16.61,1.91-21.08Z"/><path class="b" d="M529.47,681.59c-15.23,4.29,2.74,20.62,2.74,20.62,0,0,12.66-24.95-2.74-20.62Z"/><path class="b" d="M508.75,693.22c-11.29,12.59,4.75,17.72,4.75,17.72,0,0,6.6-30.37-4.75-17.72Z"/><path class="b" d="M505.59,734.04c-4.16,13.42,6.4,12.26,6.4,12.26,0,0-1.24-28.91-6.4-12.26Z"/><path class="b" d="M519.4,715.55c-13.41,9.42,5.64,17.42,5.64,17.42,0,0,6.91-26.23-5.64-17.42Z"/><path class="b" d="M542.45,708.13c-16.52,0,0,21.22,0,21.22,0,0,16.52-21.22,0-21.22Z"/><path class="b" d="M565.92,715.42c-13.22-10.39-4.13,19.03-4.13,19.03,0,0,16.07-9.66,4.13-19.03Z"/><path class="b" d="M579.91,734.09c-8.62-17.46-5.58,13.24-5.58,13.24,0,0,11.14-1.99,5.58-13.24Z"/><path class="b" d="M570.7,754.56c-7.15-19.77-5.8,13.27-5.8,13.27,0,0,10.23-.99,5.8-13.27Z"/><path class="b" d="M554.12,738.5c-12.68-4.95-1.6,20.34-1.6,20.34,0,0,16.74-14.43,1.6-20.34Z"/><path class="b" d="M531.75,737.79c18.6-7.46,1.96,20.99,1.96,20.99,0,0-17.28-14.84-1.96-20.99Z"/><path class="b" d="M514.86,754.54c7.57-16.99,5.57,12.61,5.57,12.61,0,0-10.32-1.95-5.57-12.61Z"/><path class="b" d="M523.37,775.16c10.17-14.86,4.86,16.48,4.86,16.48,0,0-11.54-6.71-4.86-16.48Z"/><path class="b" d="M542.74,761.25c-17.66,0-.29,23.63-.29,23.63,0,0,16.91-23.63,.29-23.63Z"/><path class="b" d="M561.34,774.54c-8.68-15.11-4.13,17.07-4.13,17.07,0,0,11.68-3.91,4.13-17.07Z"/><path class="b" d="M531.76,795.85c-10.62,7.22,3.11,17.54,3.11,17.54,0,0,11.31-27.34-3.11-17.54Z"/><path class="b" d="M553.12,795.61c-14.27-11.41-3.43,17.85-2.8,17.7,.63-.16,11.44-10.79,2.8-17.7Z"/><path class="b" d="M542.72,820.33c-16.07,0,.1,19.29,.1,19.29,0,0,16.06-19.29-.1-19.29Z"/><path class="b" d="M542.75,847.46c-8.62,0,.05,34.37,.05,34.37,0,0,7.48-34.37-.05-34.37Z"/></svg>